<svg width="48" height="48" viewBox="0 0 48 48" fill="none" xmlns="http://www.w3.org/2000/svg">
<g clip-path="url(#clip0_2445_4159)">
<path d="M24 0C37.2561 0 48 10.7461 48 24C48 37.2561 37.2561 48 24 48C10.7461 48 0 37.255 0 24C0 10.7461 10.7461 0 24 0Z" fill="white"/>
<path d="M24.2946 5.45703L24.0483 6.29385V30.5744L24.2946 30.8202L35.5652 24.1581L24.2946 5.45703Z" fill="#343434"/>
<path d="M24.2946 5.45703L13.0237 24.1581L24.2946 30.8202V19.0351V5.45703Z" fill="#8C8C8C"/>
<path d="M24.2947 32.9546L24.1559 33.1239V41.773L24.2947 42.1783L35.5722 26.2959L24.2947 32.9546Z" fill="#3C3C3B"/>
<path d="M24.2948 42.1783V32.9546L13.024 26.2959L24.2948 42.1783Z" fill="#8C8C8C"/>
<path d="M24.2944 30.8202L35.565 24.1581L24.2944 19.0352V30.8202Z" fill="#141414"/>
<path d="M13.024 24.1581L24.2948 30.8202V19.0352L13.024 24.1581Z" fill="#393939"/>
</g>
<defs>
<clipPath id="clip0_2445_4159">
<rect width="48" height="48" fill="white"/>
</clipPath>
</defs>
</svg>
