<svg width="48" height="48" viewBox="0 0 48 48" fill="none" xmlns="http://www.w3.org/2000/svg">
<g clip-path="url(#clip0_2445_4205)">
<path d="M24 0C37.2561 0 48 10.7461 48 24C48 37.2561 37.2561 48 24 48C10.7461 48 0 37.255 0 24C0 10.7461 10.7461 0 24 0Z" fill="white"/>
<path d="M18.3647 12C20.3878 13.1591 22.4131 14.314 24.4323 15.4791C25.0503 15.8354 25.3541 16.3796 25.3503 17.0863C25.3464 17.8038 25.3497 18.5219 25.3497 19.2394C25.3497 19.3366 25.3624 19.4257 25.2463 19.4905C24.3652 19.9839 23.4885 20.4844 22.5644 21.0086C22.5644 20.7689 22.5644 20.5681 22.5644 20.3672C22.5644 19.802 22.565 19.2367 22.5644 18.6714C22.5639 17.996 22.2639 17.4821 21.6767 17.1327C20.6751 16.5362 19.674 15.938 18.6652 15.3533C18.0241 14.9818 17.3675 14.9575 16.7104 15.3333C15.7214 15.898 14.7297 16.4584 13.7402 17.0221C13.1095 17.3811 12.7782 17.9178 12.7743 18.6326C12.7682 19.7809 12.7682 20.9293 12.7748 22.0776C12.7787 22.8011 13.1067 23.3388 13.7501 23.7097C14.7049 24.2599 15.6499 24.8278 16.5965 25.392C17.3119 25.818 18.018 25.8439 18.7428 25.4012C22.2254 23.2746 25.8632 21.4081 29.3766 19.3312C29.9825 18.9732 30.6309 18.9673 31.2593 19.3242C33.1768 20.4126 35.0931 21.5032 37.0116 22.59C37.6846 22.9711 38.0016 23.5386 38 24.2971C37.9945 26.4686 37.9956 28.6395 37.9994 30.8109C38.0005 31.5689 37.6813 32.1326 37.0055 32.5137C35.1167 33.5795 33.2384 34.6625 31.3435 35.718C30.6727 36.0916 29.9611 36.0975 29.282 35.7147C27.4003 34.6549 25.5264 33.5822 23.6469 32.5186C22.9777 32.1396 22.631 31.5916 22.6459 30.8233C22.6591 30.1506 22.6492 29.4774 22.6481 28.8047C22.6481 28.688 22.6404 28.5838 22.7746 28.5088C23.6409 28.0251 24.5022 27.5332 25.3651 27.0441C25.4515 27.1035 25.4147 27.1812 25.4152 27.2444C25.4185 27.8993 25.4163 28.5542 25.4174 29.209C25.4191 29.9212 25.7168 30.4713 26.353 30.8336C27.3508 31.4015 28.3453 31.9754 29.3485 32.5332C30.0057 32.8987 30.6699 32.9041 31.3298 32.5148C32.2637 31.9641 33.1999 31.4183 34.1399 30.8773C34.8157 30.4886 35.1547 29.9271 35.1459 29.1524C35.1338 28.0402 35.142 26.9275 35.1431 25.8147C35.1437 25.0891 34.8311 24.5417 34.185 24.1767C33.2169 23.6298 32.2511 23.0797 31.2863 22.5284C30.5934 22.1327 29.9126 22.1192 29.2077 22.5225C25.774 24.4839 22.3327 26.4318 18.8986 28.3922C18.3752 28.6907 17.8468 28.897 17.2305 28.7501C17.0687 28.7118 16.9162 28.653 16.7731 28.5714C14.8397 27.4744 12.9069 26.3752 10.9714 25.2813C10.4573 24.9909 10.1541 24.5557 10 24.0066C10 21.5658 10 19.1249 10 16.6841C10.1646 16.2068 10.4062 15.79 10.8938 15.5568C11.0088 15.5017 11.1161 15.4326 11.2273 15.37C13.2052 14.2503 15.1573 13.0879 17.154 12C17.5574 12 17.9613 12 18.3647 12Z" fill="#8247E5"/>
</g>
<defs>
<clipPath id="clip0_2445_4205">
<rect width="48" height="48" fill="white"/>
</clipPath>
</defs>
</svg>
