<svg width="12" height="11" viewBox="0 0 12 11" fill="none" xmlns="http://www.w3.org/2000/svg">
<path d="M9.0625 3.07463C8.84375 2.95522 8.5625 2.95522 8.3125 3.07463L6.5625 4.0597L5.375 4.68657L3.65625 5.67164C3.4375 5.79105 3.15625 5.79105 2.90625 5.67164L1.5625 4.89552C1.34375 4.77612 1.1875 4.53731 1.1875 4.26866V2.77612C1.1875 2.53731 1.3125 2.29851 1.5625 2.14925L2.90625 1.40299C3.125 1.28358 3.40625 1.28358 3.65625 1.40299L5 2.1791C5.21875 2.29851 5.375 2.53731 5.375 2.80597V3.79105L6.5625 3.13433V2.1194C6.5625 1.8806 6.4375 1.64179 6.1875 1.49254L3.6875 0.0895522C3.46875 -0.0298507 3.1875 -0.0298507 2.9375 0.0895522L0.375 1.52239C0.125 1.64179 0 1.8806 0 2.1194V4.92537C0 5.16418 0.125 5.40299 0.375 5.55224L2.90625 6.95522C3.125 7.07463 3.40625 7.07463 3.65625 6.95522L5.375 6L6.5625 5.34328L8.28125 4.38806C8.5 4.26866 8.78125 4.26866 9.03125 4.38806L10.375 5.13433C10.5937 5.25373 10.75 5.49254 10.75 5.76119V7.25373C10.75 7.49254 10.625 7.73134 10.375 7.8806L9.0625 8.62687C8.84375 8.74627 8.5625 8.74627 8.3125 8.62687L6.96875 7.8806C6.75 7.76119 6.59375 7.52239 6.59375 7.25373V6.29851L5.40625 6.95522V7.9403C5.40625 8.1791 5.53125 8.41791 5.78125 8.56717L8.3125 9.97015C8.53125 10.0896 8.8125 10.0896 9.0625 9.97015L11.5937 8.56717C11.8125 8.44776 11.9687 8.20896 11.9687 7.9403V5.10448C11.9687 4.86567 11.8437 4.62687 11.5937 4.47761L9.0625 3.07463Z" fill="#8247E5"/>
</svg>
