<svg width="877" height="141" viewBox="0 0 877 141" fill="none" xmlns="http://www.w3.org/2000/svg">
<g clip-path="url(#clip0_4234_5465)">
<mask id="mask0_4234_5465" style="mask-type:luminance" maskUnits="userSpaceOnUse" x="0" y="0" width="877" height="141">
<path d="M877 0.385742H0V140.615H877V0.385742Z" fill="white"/>
</mask>
<g mask="url(#mask0_4234_5465)">
<mask id="mask1_4234_5465" style="mask-type:luminance" maskUnits="userSpaceOnUse" x="0" y="-31" width="877" height="203">
<path d="M877 -30.4897H0V171.49H877V-30.4897Z" fill="white"/>
</mask>
<g mask="url(#mask1_4234_5465)">
<path d="M877 -30.4897H0V171.49H877V-30.4897Z" fill="white"/>
<path d="M1263.2 -166.02H0V328.073H1263.2V-166.02Z" fill="#4B2EFF"/>
<g filter="url(#filter0_f_4234_5465)">
<path d="M438.555 -262.973H443.874C443.874 -262.973 466.504 -201.07 487.613 -163.069C522.504 -100.258 744.724 156.923 744.724 156.923L680.89 151.449C680.89 151.449 31.0179 289.989 157.8 141.664C284.583 -6.66049 438.555 -262.973 438.555 -262.973Z" fill="url(#paint0_linear_4234_5465)"/>
</g>
<path d="M67.637 107.364C78.2514 107.364 86.8561 98.6509 86.8561 87.9037C86.8561 77.1566 78.2514 68.4443 67.637 68.4443C57.0226 68.4443 48.418 77.1566 48.418 87.9037C48.418 98.6509 57.0226 107.364 67.637 107.364Z" fill="#2F4050"/>
<mask id="mask2_4234_5465" style="mask-type:alpha" maskUnits="userSpaceOnUse" x="55" y="75" width="25" height="27">
<path d="M79.7785 75.0044H55.4053V101.242H79.7785V75.0044Z" fill="#C4C4C4"/>
</mask>
<g mask="url(#mask2_4234_5465)">
<path fill-rule="evenodd" clip-rule="evenodd" d="M56.6019 75.7787C59.2403 78.975 62.1364 82.9915 62.605 83.6411C62.6305 83.6757 62.6486 83.7005 62.6593 83.7153C62.9089 84.0599 63.1147 84.3163 63.2712 84.5108C63.6195 84.9428 63.7224 85.0706 63.5149 85.1885C63.3478 85.2833 63.1748 85.3146 63.0027 85.3146C62.8084 85.3146 62.5885 85.2215 62.4288 85.0698C62.316 84.9634 61.5427 83.8422 60.4903 82.2124C59.6858 80.9651 59.0114 79.9304 58.9932 79.9131C58.9504 79.8727 58.9512 79.8745 60.4088 82.4771C61.3237 84.1119 61.9495 85.3196 61.9495 85.3963C61.9495 85.5537 61.9067 85.6363 61.7123 85.8531C61.3887 86.2133 61.2438 86.618 61.1392 87.4573C61.0223 88.3971 60.6929 89.0607 59.7796 90.1976C59.246 90.8629 59.1579 90.9849 59.0237 91.2528C58.8532 91.59 58.8071 91.7796 58.7882 92.2059C58.7676 92.6568 58.8071 92.9479 58.9446 93.3791C59.0657 93.7558 59.1917 94.0055 59.5137 94.5035C59.792 94.9338 59.9526 95.2538 59.9526 95.3783C59.9526 95.478 59.9715 95.4779 60.4022 95.3806C61.434 95.1482 62.2715 94.7393 62.7425 94.238C63.034 93.928 63.1024 93.7566 63.104 93.332C63.1057 93.0534 63.0958 92.9956 63.0208 92.8357C62.8981 92.5752 62.675 92.3585 62.1834 92.0229C61.5394 91.5835 61.2636 91.2289 61.1878 90.7425C61.1252 90.3427 61.1977 90.0616 61.5542 89.3155C61.9232 88.5438 62.0146 88.2149 62.0763 87.4367C62.1167 86.9338 62.1718 86.7351 62.3168 86.576C62.4675 86.4103 62.6033 86.3542 62.9764 86.3031C63.5849 86.2198 63.9728 86.0632 64.2915 85.7697C64.5681 85.5158 64.6834 85.2701 64.7016 84.9016L64.7147 84.6221L64.5607 84.4424C64.0008 83.7911 56.2272 75.2668 56.1926 75.2668C56.1852 75.2668 56.3696 75.4968 56.6019 75.7787ZM60.2663 92.7162C60.3931 92.4919 60.3256 92.205 60.114 92.0641C59.9139 91.9313 59.6034 91.994 59.6034 92.1671C59.6034 92.2199 59.6331 92.2586 59.6989 92.2924C59.8093 92.3493 59.8175 92.4128 59.7302 92.5439C59.6421 92.6766 59.6495 92.7937 59.7508 92.8728C59.9139 93.0006 60.1453 92.9297 60.2663 92.7162ZM64.0732 80.5215C63.8237 80.4828 63.813 80.4787 63.9308 80.4605C64.1556 80.4259 64.6867 80.4729 65.0532 80.5595C65.9079 80.7631 66.6861 81.2825 67.5162 82.2058L67.7369 82.4506L68.0531 82.4004C69.3822 82.1868 70.7352 82.3567 71.8658 82.8777C72.1771 83.022 72.6678 83.3072 72.7296 83.3806C72.7485 83.4045 72.7848 83.5545 72.8087 83.7153C72.8926 84.2718 72.8507 84.6981 72.6802 85.0163C72.588 85.1894 72.583 85.2447 72.6448 85.3931C72.695 85.5109 72.8334 85.5982 72.9709 85.5982C73.2517 85.5982 73.5547 85.144 73.6947 84.5133L73.7507 84.2619L73.8611 84.3872C74.4663 85.0714 74.9415 86.0047 75.023 86.6691L75.0444 86.8423L74.9423 86.6848C74.7677 86.4144 74.5915 86.2298 74.3667 86.0806C73.9607 85.8127 73.5308 85.7212 72.3936 85.6618C71.3668 85.6074 70.7862 85.5199 70.2098 85.3328C69.229 85.0129 68.7349 84.5883 67.5705 83.0624C67.0526 82.3847 66.7331 82.0104 66.4152 81.7079C65.6922 81.022 64.9824 80.6625 64.0732 80.5215ZM72.961 82.0343C72.9865 81.5801 73.0483 81.2808 73.1726 81.0071C73.2212 80.8991 73.2673 80.8109 73.2747 80.8109C73.2813 80.8109 73.2608 80.8909 73.227 80.9881C73.1372 81.2536 73.1224 81.6163 73.1842 82.0393C73.2632 82.5751 73.3077 82.6526 73.8751 83.2314C74.1419 83.5026 74.4515 83.8455 74.5635 83.9923L74.7677 84.2594L74.5635 84.069C74.314 83.8348 73.74 83.379 73.6132 83.3139C73.5284 83.2702 73.5152 83.2709 73.4633 83.3237C73.4147 83.3715 73.4049 83.4432 73.3983 83.7845C73.3876 84.3163 73.3151 84.6568 73.1397 84.9981C73.045 85.1827 73.0302 85.1432 73.1158 84.9354C73.18 84.7796 73.1866 84.7112 73.1858 84.1967C73.185 83.1629 73.0623 82.9148 72.3409 82.4886C72.1581 82.3806 71.8576 82.2257 71.6723 82.1432C71.487 82.0608 71.3404 81.989 71.3453 81.984C71.3659 81.9634 72.0692 82.1687 72.3516 82.2767C72.7733 82.4383 72.8424 82.4597 72.8935 82.4399C72.9281 82.4267 72.9445 82.327 72.961 82.0343ZM63.8056 81.2412C63.7381 82.0393 64.051 83.1069 64.5583 83.8027C64.9502 84.3427 65.5596 84.7623 66.0092 84.8027C66.3032 84.8291 66.3913 84.7376 66.2587 84.543C66.0735 84.2734 65.8462 83.8587 65.7861 83.6815C65.749 83.571 65.6675 83.2446 65.6057 82.9568C65.3941 81.9733 65.1866 81.59 64.7065 81.299C64.5319 81.1934 64.1589 81.0541 63.9423 81.0145L63.827 80.9939L63.8056 81.2412ZM72.3467 88.9857C69.9784 88.0335 69.145 87.2075 69.145 85.8142C69.145 85.609 69.1516 85.4408 69.1607 85.4408C69.1689 85.4408 69.2611 85.5084 69.3641 85.5916C69.8441 85.9758 70.3819 86.14 71.8707 86.3568C72.7461 86.4846 73.2393 86.5875 73.6939 86.7384C75.1391 87.2166 76.0326 88.1877 76.2458 89.5101C76.3084 89.8942 76.2714 90.6149 76.1709 90.9949C76.0919 91.295 75.8497 91.8357 75.7855 91.8563C75.7682 91.8621 75.7501 91.7937 75.746 91.7013C75.7213 91.205 75.4701 90.7211 75.0477 90.3592C74.5684 89.947 73.9228 89.6197 72.3467 88.9857ZM70.5696 88.8811C70.6034 88.9801 70.6544 89.205 70.6841 89.3806C70.8735 90.5076 70.2814 91.4186 69.1294 91.7706C69.0067 91.8085 68.5266 91.9025 68.0613 91.9791C67.1193 92.1358 66.6985 92.2472 66.276 92.45C65.9763 92.5943 65.614 92.8102 65.6354 92.8316C65.6428 92.8382 65.7111 92.8217 65.7877 92.7953C66.3197 92.6082 66.9126 92.5117 67.8135 92.4647C68.1709 92.4466 68.5776 92.417 68.7168 92.3997C69.5197 92.2983 70.0756 92.055 70.5079 91.6156C70.7483 91.3716 70.8924 91.1432 71.0077 90.8225C71.081 90.6181 71.0909 90.543 71.0917 90.1819C71.0917 89.8134 71.0835 89.7468 71.0036 89.52C70.8998 89.2233 70.7772 89.0006 70.6215 88.8266L70.5095 88.7013L70.5696 88.8811ZM71.7694 91.3056C71.4549 90.6304 71.3832 89.9784 71.5553 89.3708C71.5735 89.3057 71.6031 89.252 71.6212 89.252C71.6393 89.252 71.7134 89.2924 71.7859 89.341C71.9308 89.4392 72.2215 89.6032 72.9964 90.0245C73.9632 90.5505 74.5141 90.9577 74.8888 91.4235C75.2165 91.8308 75.4199 92.295 75.5179 92.8614C75.5731 93.1821 75.5409 93.9536 75.4586 94.2768C75.1984 95.2949 74.5948 96.0946 73.7326 96.5612C73.6066 96.6296 73.4938 96.6857 73.4814 96.6857C73.4691 96.6857 73.5152 96.5694 73.5836 96.426C73.8734 95.8217 73.9063 95.2331 73.6873 94.5785C73.5531 94.1778 73.2797 93.6882 72.7271 92.8614C72.0848 91.9001 71.9275 91.6444 71.7694 91.3056ZM65.8437 93.5201C64.8481 93.6817 63.7554 94.2075 62.8767 94.9478L62.6149 95.1688L62.8446 95.2042C64.0444 95.3914 64.3672 95.5571 65.1998 96.4128C65.6782 96.9058 65.8404 97.0147 66.2373 97.1161C66.8204 97.2653 67.396 96.9915 67.5928 96.4722C67.6809 96.2397 67.6694 95.8556 67.5681 95.6627C67.3276 95.2027 66.6268 95.0542 66.2884 95.3914C66.0059 95.6717 66.0883 96.0938 66.4391 96.1663C66.5198 96.1836 66.5173 96.1795 66.4185 96.135C66.2653 96.0657 66.1986 95.9701 66.1978 95.8168C66.1953 95.4581 66.6071 95.257 66.9892 95.4293C67.2691 95.5554 67.3803 95.7204 67.3803 96.0089C67.3803 96.4541 67.0015 96.7896 66.5593 96.7343C66.3238 96.7055 66.0348 96.5546 65.8799 96.3798C65.4904 95.9404 65.6428 95.2463 66.1863 94.98C66.6005 94.778 67.1506 94.8275 67.5771 95.107C68.0671 95.4268 68.2763 95.7203 68.6979 96.6816C68.8354 96.9948 69.0124 97.3469 69.0915 97.4648C69.4909 98.0625 69.9701 98.3559 70.5474 98.3559C70.8661 98.3559 71.1057 98.2974 71.4071 98.1474C71.6311 98.0361 71.9481 97.8234 71.9251 97.8011C71.9193 97.7945 71.8263 97.8234 71.7192 97.8646C71.0884 98.1103 70.4478 98.0938 70.0755 97.8217C69.8417 97.6502 69.6523 97.3098 69.5551 96.8827C69.5386 96.8093 69.4835 96.4829 69.4324 96.1581C69.3023 95.3353 69.1788 94.9652 68.8889 94.5406C68.5925 94.1069 68.0226 93.7417 67.3853 93.5793C66.9883 93.4779 66.2736 93.45 65.8437 93.5201ZM64.4496 87.1572C64.5352 86.8398 64.8135 86.5372 65.0993 86.4498C65.2805 86.3946 65.6568 86.4301 65.833 86.5191C66.1756 86.6931 66.4234 87.0888 66.3699 87.3748C66.304 87.7227 65.7383 88.0014 65.0878 88.0063C64.7551 88.008 64.6324 87.9635 64.5056 87.7945C64.4265 87.6898 64.3969 87.3501 64.4496 87.1572ZM65.7457 86.6436C65.9162 86.7475 65.9598 86.9017 65.8602 87.0443C65.791 87.1416 65.5769 87.2355 65.4204 87.2355C65.1849 87.2355 64.9288 87.0682 64.9288 86.9156C64.9288 86.6098 65.4204 86.4457 65.7457 86.6436ZM116.761 87.5216C116.23 85.7755 117.106 84.3278 118.974 83.8629C119.51 83.7293 121.936 83.7895 122.352 83.9461C122.505 84.0038 122.571 84.2248 122.572 84.6798C122.574 85.0376 122.613 85.4721 122.66 85.6452C122.732 85.9082 122.69 85.9593 122.409 85.9552C122.155 85.9511 122.002 85.8043 121.788 85.36C121.446 84.6502 121.031 84.4243 120.066 84.4218C118.834 84.4177 117.933 85.2381 118.079 86.229C118.175 86.8737 118.827 87.5076 120.289 88.3798C121.681 89.2091 122.493 89.8917 122.817 90.5026C123.682 92.1374 122.943 93.886 121.015 94.7673C120.025 95.2191 118.367 95.2661 117.201 94.8745L116.454 94.6238V93.4441C116.454 92.3765 116.479 92.2653 116.725 92.2653C116.932 92.2653 117.021 92.3996 117.093 92.8209C117.273 93.8695 118.079 94.5061 119.228 94.5061C120.353 94.5061 121.138 93.8992 121.44 92.7978C121.568 92.3279 121.546 92.1556 121.292 91.6378C120.987 91.0171 120.461 90.6049 118.678 89.5884C117.688 89.0237 116.989 88.2693 116.761 87.5216ZM81.7993 84.5595C81.5564 84.5595 81.4609 84.4813 81.4609 84.2793C81.4609 84.0122 81.5564 83.9989 83.4628 83.9989C85.2332 83.9989 85.4597 84.0253 85.4193 84.2264C85.3938 84.3509 85.1492 84.5241 84.875 84.6115L84.3768 84.7697L84.3348 88.3419C84.306 90.7261 84.3464 92.1012 84.4551 92.4746C84.7779 93.5867 85.7627 94.2265 87.1528 94.2265C88.1203 94.2265 88.6852 94.0022 89.3951 93.3386C90.1593 92.6247 90.2811 91.947 90.2787 88.4218C90.2762 84.9445 90.2144 84.6576 89.4593 84.5859C89.1151 84.5529 89.0006 84.4737 89.0006 84.2701C89.0006 84.017 89.1134 83.9989 90.7069 83.9989C92.3192 83.9989 92.4139 84.0147 92.4139 84.2793C92.4139 84.4516 92.3184 84.5603 92.1652 84.5611C91.5065 84.5669 91.4941 84.6297 91.406 88.4417C91.3138 92.4013 91.2273 92.8695 90.4162 93.8398C90.1815 94.1193 89.6232 94.5257 89.1752 94.7426C88.4448 95.0962 88.2126 95.1366 86.9378 95.1342C85.7627 95.1317 85.3913 95.0757 84.8042 94.8111C83.9461 94.4253 83.3887 93.9256 82.9769 93.1754C82.6904 92.6519 82.6656 92.3684 82.5989 88.8185C82.5232 84.7558 82.4861 84.5595 81.7993 84.5595ZM95.11 84.5595C94.7847 84.5595 94.69 84.4961 94.69 84.2793C94.69 84.0163 94.7806 83.9997 96.1484 84.0104L97.6059 84.022L98.3034 84.8159C98.6872 85.2528 99.9372 86.6189 101.082 87.8513C102.226 89.0847 103.54 90.5191 104.001 91.0385C104.463 91.5595 104.897 91.9849 104.966 91.9849C105.038 91.9849 105.073 90.515 105.048 88.6098L105.003 85.2355L104.604 84.8975C104.384 84.7112 104.048 84.5595 103.857 84.5595C103.602 84.5595 103.509 84.4828 103.509 84.2751C103.509 84.0014 103.582 83.9924 105.465 84.0303C107.067 84.0625 107.421 84.1061 107.421 84.2734C107.421 84.393 107.223 84.5174 106.946 84.5735C106.684 84.6263 106.396 84.7426 106.305 84.8316C106.189 84.9462 106.129 86.4335 106.1 89.9603L106.06 94.9264H105.647C105.292 94.9264 104.87 94.5315 102.611 92.0896C101.168 90.529 99.4835 88.6749 98.8675 87.9684C98.2524 87.2619 97.7006 86.679 97.6413 86.6724C97.4767 86.6543 97.5162 92.9644 97.685 93.5629C97.8167 94.0304 97.9073 94.1103 98.4673 94.2579C98.9177 94.3766 99.0997 94.4969 99.0997 94.6758C99.0997 94.905 98.9276 94.9264 97.1086 94.9264C95.2557 94.9264 95.1166 94.9083 95.1166 94.6642C95.1166 94.4853 95.2508 94.3749 95.5374 94.3188C96.4053 94.1473 96.463 93.8762 96.5124 89.7253C96.5395 87.4005 96.4992 85.7738 96.4061 85.4334C96.2423 84.8348 95.8346 84.5595 95.11 84.5595ZM110.026 84.5595C109.721 84.5595 109.626 84.4928 109.626 84.2793C109.626 84.0114 109.721 83.9989 111.76 83.9989C113.799 83.9989 113.893 84.0114 113.893 84.2793C113.893 84.4846 113.799 84.5595 113.538 84.5595C113.343 84.5595 113.052 84.6881 112.892 84.8456C112.61 85.1226 112.603 85.2611 112.643 89.5496C112.682 93.7368 112.699 93.9792 112.96 94.168C113.112 94.2768 113.385 94.3666 113.565 94.3666C113.799 94.3666 113.893 94.4474 113.893 94.6461C113.893 94.914 113.799 94.9264 111.76 94.9264C109.769 94.9264 109.626 94.9091 109.626 94.6642C109.626 94.4672 109.765 94.3798 110.189 94.313C111.031 94.1811 111.074 93.9092 111.022 89.0658C110.98 85.1878 110.962 84.9453 110.701 84.7582C110.549 84.6485 110.245 84.5595 110.026 84.5595ZM124.909 84.5595C124.715 84.5595 124.566 84.4532 124.52 84.2793C124.449 84.0081 124.516 83.9989 126.567 83.9989C128.592 83.9989 128.687 84.0114 128.687 84.2793C128.687 84.4945 128.592 84.5595 128.277 84.5595C127.382 84.5595 127.403 84.7194 128.757 88.3839C129.447 90.2487 130.117 92.0204 130.246 92.3205L130.48 92.8662L131.566 90.0089C132.845 86.6453 133.011 86.0228 132.794 85.4094C132.643 84.9816 132.054 84.5595 131.61 84.5595C131.484 84.5595 131.39 84.4392 131.39 84.2793C131.39 84.0114 131.484 83.9989 133.594 83.9989C135.704 83.9989 135.799 84.0114 135.799 84.2793C135.799 84.4788 135.704 84.5595 135.471 84.5595C134.873 84.5595 134.609 84.8737 134.695 85.4837C134.783 86.1119 137.23 92.8637 137.333 92.7623C137.499 92.5983 140.209 85.3303 140.209 85.0467C140.209 84.7071 139.968 84.5595 139.415 84.5595C139.166 84.5595 139.071 84.4821 139.071 84.2793C139.071 84.0147 139.166 83.9989 140.778 83.9989C142.226 83.9989 142.484 84.0319 142.484 84.2165C142.484 84.3361 142.307 84.4953 142.091 84.5695C141.603 84.7368 141.481 84.928 140.869 86.4754C140.6 87.1555 139.76 89.2825 139 91.2034C138.242 93.1234 137.588 94.778 137.549 94.8802C137.508 94.9833 137.273 95.0667 137.026 95.0667H136.575L135.553 92.44C134.992 90.9956 134.327 89.2833 134.078 88.6362C133.65 87.5273 133.615 87.4796 133.453 87.7962C133.36 87.9809 132.685 89.6955 131.953 91.6065L130.624 95.0807L130.127 95.0385L129.631 94.9965L127.739 90.1044C126.68 87.3707 125.709 85.0673 125.534 84.886C125.364 84.7062 125.082 84.5595 124.909 84.5595ZM153.352 84.6189C153.328 84.5654 153.328 84.374 153.328 84.374C153.328 84.374 153.322 84.3056 153.352 84.2685C153.381 84.2322 153.391 84.2305 153.496 84.2215L153.497 84.2207C153.881 84.1852 154.651 84.1242 155.294 84.0962C155.354 84.0937 155.419 84.0912 155.49 84.0879H155.492C156.199 84.0558 157.467 84.0137 158.337 84.0566C160.008 84.139 161.195 84.9371 161.601 86.2553C162.005 87.5735 161.791 88.8118 161.239 89.5991C160.687 90.3872 159.759 91.0657 158.218 91.0212C156.944 90.9849 156.604 90.7491 156.331 90.5612C156.274 90.5216 156.219 90.4837 156.16 90.4507V92.1317C156.173 93.2784 156.183 93.8291 156.273 94.0336C156.394 94.3081 156.667 94.4771 157.201 94.6065C157.201 94.6065 157.442 94.6626 157.504 94.722C157.566 94.7813 157.566 94.914 157.566 94.914C157.566 94.914 157.579 95.0377 157.529 95.1004C157.479 95.1638 157.383 95.1516 157.383 95.1516L155.022 95.1325L153.598 95.1284C153.598 95.1284 153.448 95.1572 153.392 95.0979C153.336 95.0377 153.342 94.914 153.342 94.914C153.342 94.914 153.354 94.7805 153.419 94.7211C153.484 94.6609 153.727 94.5942 153.727 94.5942C154.277 94.4425 154.515 94.2809 154.639 93.9775C154.739 93.7327 154.74 93.2784 154.739 89.5744C154.738 86.0624 154.733 85.407 154.651 85.2182C154.531 84.9395 154.229 84.8653 153.799 84.7598C153.713 84.7392 153.624 84.7169 153.528 84.6922C153.528 84.6922 153.376 84.6725 153.352 84.6189ZM160.226 87.4853C160.226 88.0607 160.215 88.9626 159.595 89.5397C158.975 90.116 157.753 90.2734 156.924 90.1127C156.663 90.0624 156.513 89.9849 156.399 89.9247L156.387 89.9181L156.175 89.8077L156.162 87.7837C156.154 86.5158 156.168 85.6897 156.199 85.5719C156.226 84.9033 157.224 84.82 157.711 84.8447C159.797 84.8447 160.165 86.5818 160.226 87.4853ZM146.802 84.0772C146.802 84.0772 146.7 84.116 146.545 84.1737L145.988 84.4581L145.587 85.4482C145.367 85.9923 144.963 86.9916 144.691 87.6684C144.194 88.9017 143.866 89.7112 143.521 90.557C143.42 90.8052 143.114 91.5628 142.84 92.2397C142.568 92.9165 142.294 93.5604 142.234 93.6708C142.224 93.6898 142.214 93.7096 142.202 93.7302C142.05 94.0138 141.785 94.506 141.316 94.581C141.316 94.581 141.058 94.6057 140.963 94.6989C140.868 94.792 140.877 94.868 140.877 94.868V94.9858C140.877 94.9858 140.885 95.0426 140.94 95.0707C140.994 95.0987 141.066 95.1004 141.066 95.1004L142.78 95.0814H144.551C144.551 95.0814 144.676 95.0962 144.724 95.0567C144.772 95.0171 144.786 94.9577 144.786 94.9577V94.8349C144.786 94.8349 144.761 94.7006 144.691 94.6487C144.621 94.5959 144.358 94.5604 144.358 94.5604C143.649 94.468 143.527 93.9379 143.614 93.4614C143.658 93.2273 143.943 92.3617 144.263 91.4895L144.374 91.1885L146.23 91.1745C147.25 91.1663 148.131 91.1721 148.187 91.1861C148.268 91.2059 148.381 91.4326 148.712 92.2388C149.213 93.4598 149.253 93.6082 149.142 93.8365C149.136 93.8506 149.128 93.8662 149.121 93.8827C149.016 94.1036 148.814 94.5333 148.304 94.577C148.304 94.577 148.034 94.5859 147.966 94.6659C147.899 94.7459 147.914 94.8382 147.914 94.8382V94.9603C147.914 94.9603 147.932 95.032 147.966 95.0601C148.001 95.0889 148.06 95.0814 148.06 95.0814L149.744 95.069H152.111C152.111 95.069 152.204 95.0789 152.229 95.0435C152.255 95.008 152.26 94.9669 152.26 94.9669V94.8045C152.26 94.8045 152.249 94.7178 152.204 94.6708C152.159 94.623 151.851 94.5727 151.851 94.5727C151.459 94.5101 151.264 94.1902 151.119 93.952C151.082 93.8909 151.048 93.8357 151.015 93.7912C150.947 93.7005 150.707 93.2026 150.518 92.7244C150.33 92.2454 149.904 91.1647 149.573 90.3222C149.242 89.4796 148.779 88.3039 148.545 87.7104C148.311 87.116 147.868 85.9857 147.558 85.1984C147.508 85.069 147.462 84.9527 147.421 84.8489C147.214 84.3196 147.13 84.1061 147.107 84.0772C147.033 83.984 146.802 84.0772 146.802 84.0772ZM146.692 87.2949C146.617 87.116 146.485 86.7936 146.399 86.5793C146.243 86.1902 146.183 86.1003 146.135 86.1811C146.121 86.2042 146.023 86.4705 145.917 86.7722C145.23 88.7252 144.919 89.6049 144.857 89.7706C144.817 89.8744 144.786 89.9817 144.786 90.0089C144.786 90.0402 145.344 90.0583 146.301 90.0583C147.134 90.0583 147.816 90.0476 147.816 90.0352C147.816 90.0228 147.742 89.8365 147.651 89.6213C147.56 89.4053 147.337 88.8678 147.157 88.4251C146.976 87.9832 146.767 87.4746 146.692 87.2949Z" fill="white"/>
</g>
<path d="M806.886 114.122C814.075 114.122 819.904 108.191 819.904 100.875C819.904 93.5593 814.075 87.6287 806.886 87.6287C799.696 87.6287 793.868 93.5593 793.868 100.875C793.868 108.191 799.696 114.122 806.886 114.122Z" fill="#2F4050"/>
<path d="M803.852 94.0234C804.941 94.663 806.032 95.3006 807.119 95.9434C807.451 96.1399 807.615 96.4403 807.613 96.8307C807.61 97.2264 807.613 97.6227 807.613 98.0189C807.613 98.0727 807.619 98.1217 807.557 98.1574C807.083 98.4301 806.61 98.706 806.113 98.9952C806.113 98.8631 806.113 98.7523 806.113 98.6416C806.113 98.3295 806.113 98.0173 806.113 97.7052C806.113 97.3324 805.951 97.0491 805.635 96.8563C805.096 96.5271 804.557 96.1969 804.014 95.8742C803.669 95.6691 803.315 95.6558 802.961 95.863C802.429 96.1746 801.895 96.484 801.363 96.795C801.023 96.9932 800.845 97.2893 800.843 97.6839C800.839 98.3177 800.839 98.9515 800.843 99.5853C800.845 99.9848 801.021 100.282 801.368 100.487C801.882 100.79 802.391 101.104 802.9 101.415C803.285 101.651 803.665 101.664 804.056 101.42C805.93 100.247 807.889 99.2162 809.78 98.0695C810.106 97.8719 810.456 97.8688 810.794 98.0658C811.826 98.6666 812.858 99.2684 813.89 99.8681C814.253 100.079 814.424 100.392 814.423 100.811C814.42 102.009 814.42 103.208 814.423 104.406C814.423 104.824 814.251 105.135 813.887 105.346C812.87 105.934 811.859 106.532 810.839 107.114C810.478 107.321 810.095 107.324 809.729 107.113C808.716 106.528 807.708 105.936 806.696 105.348C806.336 105.14 806.149 104.837 806.157 104.413C806.164 104.042 806.159 103.67 806.158 103.299C806.158 103.234 806.154 103.177 806.226 103.135C806.693 102.869 807.156 102.597 807.621 102.327C807.668 102.36 807.647 102.403 807.647 102.438C807.65 102.799 807.649 103.16 807.649 103.522C807.65 103.915 807.81 104.219 808.153 104.418C808.69 104.732 809.225 105.049 809.765 105.357C810.119 105.558 810.477 105.561 810.832 105.347C811.335 105.043 811.838 104.741 812.345 104.443C812.709 104.228 812.891 103.918 812.886 103.491C812.88 102.877 812.884 102.262 812.885 101.648C812.885 101.248 812.716 100.946 812.369 100.745C811.848 100.443 811.328 100.139 810.809 99.834C810.436 99.6157 810.069 99.6082 809.69 99.8308C807.841 100.914 805.988 101.989 804.14 103.071C803.858 103.236 803.573 103.35 803.242 103.269C803.154 103.247 803.072 103.215 802.995 103.17C801.954 102.564 800.914 101.958 799.872 101.354C799.595 101.194 799.432 100.953 799.349 100.65C799.349 99.303 799.349 97.9556 799.349 96.6086C799.438 96.345 799.568 96.1149 799.83 95.9865C799.892 95.9562 799.95 95.9178 800.01 95.8832C801.075 95.2654 802.126 94.6236 803.2 94.0234C803.417 94.0234 803.635 94.0234 803.852 94.0234Z" fill="#AD7CFF"/>
<path d="M214.203 30.6754C220.018 30.6754 224.731 25.8665 224.731 19.9344C224.731 14.0023 220.018 9.19336 214.203 9.19336C208.388 9.19336 203.675 14.0023 203.675 19.9344C203.675 25.8665 208.388 30.6754 214.203 30.6754Z" fill="#2F4050"/>
<path d="M210.754 22.5086C210.992 21.8736 211.449 21.347 212.041 21.0264L213.053 21.6179C213.458 21.8535 213.375 22.5024 213.013 22.7152L210.946 23.9253C210.911 23.9445 210.872 23.9548 210.832 23.955C210.792 23.9553 210.753 23.9455 210.718 23.9267C210.682 23.9078 210.652 23.8804 210.63 23.847C210.608 23.8135 210.594 23.775 210.589 23.7349C210.556 23.3189 210.612 22.9005 210.754 22.5086Z" fill="#FA4B29"/>
<path d="M213.963 19.7665C213.962 19.5891 213.918 19.4146 213.835 19.2584C213.751 19.1022 213.631 18.9692 213.484 18.871L207.747 15.5352C207.776 16.475 208.041 17.3919 208.516 18.2014C208.991 19.0109 209.66 19.6867 210.463 20.1664L213.024 21.6606C213.431 21.8976 213.349 22.5592 212.983 22.7652L213.625 22.3902C213.725 22.3316 213.808 22.2477 213.865 22.1467C213.923 22.0458 213.953 21.9314 213.952 21.815V21.0538C213.952 21.0404 213.963 19.7665 213.963 19.7665Z" fill="#FA9F29"/>
<path opacity="0.2" d="M213.055 21.6358L212.043 21.0264C212.353 21.2994 212.651 21.5884 212.933 21.8924C213.17 22.1744 213.013 22.7652 213.013 22.7652C213.376 22.5547 213.457 21.8782 213.055 21.6358Z" fill="black"/>
<path d="M217.623 17.5305C217.377 18.1657 216.905 18.6924 216.293 19.0131L215.247 18.4214C214.828 18.1858 214.914 17.5368 215.289 17.3239L217.424 16.1136C217.46 16.0946 217.501 16.0846 217.542 16.0845C217.583 16.0844 217.623 16.0942 217.66 16.113C217.696 16.1318 217.728 16.159 217.751 16.1923C217.774 16.2256 217.788 16.2639 217.793 16.304C217.827 16.72 217.769 17.1385 217.623 17.5305Z" fill="#FA4B29"/>
<path d="M214.328 20.2724C214.329 20.4498 214.373 20.6243 214.456 20.7805C214.54 20.9367 214.66 21.0697 214.807 21.1679L220.545 24.5037C220.514 23.564 220.25 22.6469 219.775 21.8375C219.301 21.028 218.631 20.3522 217.828 19.8725L215.267 18.3783C214.86 18.1412 214.942 17.4797 215.308 17.2737L214.666 17.6489C214.566 17.7074 214.483 17.7914 214.426 17.8922C214.368 17.9932 214.338 18.1075 214.339 18.2239V18.9851C214.339 18.9987 214.328 20.2724 214.328 20.2724Z" fill="#FA9F29"/>
<path opacity="0.2" d="M215.256 18.4032L216.339 19.0126C216.007 18.7396 215.689 18.4505 215.386 18.1466C215.133 17.8646 215.3 17.2737 215.3 17.2737C214.911 17.4836 214.824 18.1601 215.256 18.4032Z" fill="black"/>
<path d="M226.102 124.044C232.661 124.044 237.978 118.653 237.978 112.003C237.978 105.353 232.661 99.9614 226.102 99.9614C219.543 99.9614 214.226 105.353 214.226 112.003C214.226 118.653 219.543 124.044 226.102 124.044Z" fill="#2F4050"/>
<mask id="mask3_4234_5465" style="mask-type:luminance" maskUnits="userSpaceOnUse" x="218" y="107" width="15" height="11">
<path d="M232.722 107.653H218.805V117.157H232.722V107.653Z" fill="white"/>
</mask>
<g mask="url(#mask3_4234_5465)">
<path fill-rule="evenodd" clip-rule="evenodd" d="M229.199 110.321L229.927 110.325C230.01 110.319 230.093 110.32 230.177 110.326L231.955 110.335C232.225 110.35 232.44 110.563 232.44 110.825C232.44 110.948 232.392 111.06 232.313 111.146L231.448 112.573C231.441 112.585 231.434 112.597 231.427 112.609L229.286 116.147C228.996 116.627 228.474 116.899 227.933 116.91L227.934 116.911H227.908C227.895 116.911 227.88 116.911 227.867 116.91L221.531 116.88H220.825V116.867C221.361 116.797 221.812 116.471 222.041 116.024H222.046L225.15 110.872C225.324 110.545 225.681 110.321 226.092 110.321H226.063H229.199Z" fill="#2BBDF7"/>
<path fill-rule="evenodd" clip-rule="evenodd" d="M224.27 107.815H229.93C230.204 107.83 230.42 108.043 230.42 108.304C230.42 108.409 230.385 108.506 230.326 108.586L228.799 111.086L227.175 113.743H227.189L226.67 114.591C226.232 115.306 226.478 116.216 227.216 116.649L227.262 116.675C227.47 116.788 227.693 116.853 227.918 116.872V116.909L225.242 116.908L225.241 116.911H220.601C220.338 116.906 220.07 116.843 219.823 116.714C219.027 116.298 218.739 115.352 219.18 114.601L222.702 108.612C223.024 108.062 223.648 107.77 224.27 107.815Z" fill="#2B6DEF"/>
<path fill-rule="evenodd" clip-rule="evenodd" d="M226.134 110.322L229.242 110.325L228.792 111.065L227.173 113.732H227.187L226.669 114.583C226.233 115.3 226.478 116.214 227.214 116.648L227.26 116.674C227.467 116.787 227.69 116.853 227.913 116.872V116.908H225.245L225.244 116.91L220.825 116.911C221.315 116.862 221.775 116.606 222.052 116.183L222.083 116.134L225.351 110.712C225.537 110.485 225.823 110.335 226.145 110.321L226.134 110.322Z" fill="white"/>
<path fill-rule="evenodd" clip-rule="evenodd" d="M226.134 110.322L229.242 110.325L228.792 111.065L227.173 113.732H227.187L226.669 114.583C226.233 115.3 226.478 116.214 227.214 116.648L227.26 116.674C227.467 116.787 227.69 116.853 227.913 116.872V116.908H225.245L225.244 116.91L220.825 116.911C221.315 116.862 221.775 116.606 222.052 116.183L222.083 116.134L225.351 110.712C225.537 110.485 225.823 110.335 226.145 110.321L226.134 110.322Z" fill="#0CC19B" fill-opacity="0.5"/>
<path fill-rule="evenodd" clip-rule="evenodd" d="M226.134 110.322L229.242 110.325L228.792 111.065L227.173 113.732H227.187L226.669 114.583C226.233 115.3 226.478 116.214 227.214 116.648L227.26 116.674C227.467 116.787 227.69 116.853 227.913 116.872V116.908H225.245L225.244 116.91L220.825 116.911C221.315 116.862 221.775 116.606 222.052 116.183L222.083 116.134L225.351 110.712C225.537 110.485 225.823 110.335 226.145 110.321L226.134 110.322Z" fill="#003CB2"/>
</g>
</g>
<path d="M678.762 125.084C684.059 125.084 688.354 120.687 688.354 115.264C688.354 109.84 684.059 105.443 678.762 105.443C673.464 105.443 669.169 109.84 669.169 115.264C669.169 120.687 673.464 125.084 678.762 125.084Z" fill="#2F4050"/>
<path d="M640.85 35.8769C647.913 35.8769 653.639 30.0792 653.639 22.9274C653.639 15.7755 647.913 9.97778 640.85 9.97778C633.786 9.97778 628.06 15.7755 628.06 22.9274C628.06 30.0792 633.786 35.8769 640.85 35.8769Z" fill="#2F4050"/>
<path d="M637.994 21.8976L640.851 19.0385L643.709 21.8999L645.37 20.2354L640.851 15.7095L636.331 20.2342L637.994 21.8976Z" fill="#F3BA2F"/>
<path d="M633.494 23.0733L635.156 21.4094L636.818 23.0733L635.156 24.7372L633.494 23.0733Z" fill="#F3BA2F"/>
<path d="M637.994 24.2477L640.851 27.108L643.709 24.2466L645.372 25.9088L645.37 25.9099L640.851 30.4358L636.331 25.9122L636.329 25.9099L637.994 24.2477Z" fill="#F3BA2F"/>
<path d="M644.881 23.074L646.543 21.4102L648.205 23.074L646.543 24.7379L644.881 23.074Z" fill="#F3BA2F"/>
<path d="M642.537 23.072L640.851 21.3831L639.604 22.6311L639.46 22.7742L639.165 23.0697L639.163 23.072L639.165 23.0755L640.851 24.7621L642.537 23.0731L642.538 23.072H642.537Z" fill="#F3BA2F"/>
<path d="M774.324 46.1336C781.693 46.1336 787.667 40.0849 787.667 32.6234C787.667 25.162 781.693 19.1133 774.324 19.1133C766.954 19.1133 760.98 25.162 760.98 32.6234C760.98 40.0849 766.954 46.1336 774.324 46.1336Z" fill="#2F4050"/>
<path d="M774.464 24.5859C774.543 24.6238 774.629 24.6237 774.714 24.6389C775.084 24.7144 775.39 24.9184 775.711 25.1149C777.198 26.0442 778.694 26.9661 780.182 27.888C780.837 28.296 781.214 28.908 781.321 29.7014C781.364 29.9961 781.342 30.2984 781.335 30.6006C781.321 30.9633 781.328 31.326 781.328 31.6887C781.328 32.6559 781.335 33.6306 781.321 34.5978C781.314 35.0738 781.335 35.5574 781.307 36.0334C781.257 36.9175 780.858 37.5975 780.132 38.0434C778.616 38.9728 777.092 39.887 775.568 40.8089C775.269 40.9902 774.97 41.164 774.629 41.2396C774.528 41.2623 774.422 41.2547 774.322 41.2925C774.223 41.2925 774.116 41.2925 774.016 41.2925C774.002 41.2698 773.973 41.2774 773.952 41.2698C773.646 41.2471 773.354 41.1564 773.083 40.9978C772.578 40.6955 772.079 40.3782 771.574 40.0684C770.456 39.3732 769.345 38.6856 768.228 37.9904C767.715 37.6731 767.359 37.2197 767.167 36.6152C767.11 36.449 767.096 36.2677 767.053 36.1014C767.053 35.5574 767.053 35.0133 767.053 34.4693C767.074 34.4542 767.074 34.4315 767.074 34.4089C767.074 34.0688 767.074 33.7364 767.067 33.3963C767.067 32.2932 767.074 31.19 767.074 30.0868C767.074 29.6107 767.153 29.1498 767.38 28.7342C767.53 28.4622 767.722 28.2204 767.957 28.024C768.178 27.8351 768.427 27.7142 768.669 27.5555C768.776 27.4875 768.883 27.4573 769.004 27.4724C769.908 27.5933 770.577 28.4396 770.52 29.4067L770.513 29.4143C770.513 29.4218 770.513 29.4294 770.52 29.4294C770.52 30.9331 770.52 32.4367 770.52 33.9404L770.513 33.9479C770.513 33.9555 770.52 33.9631 770.52 33.9631C770.528 34.1066 770.534 34.2426 770.556 34.3862C770.656 34.9605 770.933 35.4289 771.31 35.8294C771.624 36.1619 771.987 36.4339 772.393 36.6379C773.097 36.993 773.831 37.0988 774.593 36.9855C775.518 36.8495 776.295 36.3961 776.914 35.6556C777.661 34.7489 777.967 33.691 777.854 32.4972C777.796 31.8851 777.59 31.3184 777.284 30.7895C776.942 30.2001 776.465 29.7921 775.831 29.6107C775.062 29.3841 774.301 29.1574 773.532 28.9383C773.247 28.8551 773.012 29.0516 773.012 29.369C773.012 29.7619 773.012 30.1548 773.012 30.5477C773.012 30.7895 773.176 31.0313 773.396 31.0917C773.796 31.2126 774.201 31.326 774.6 31.4469C774.806 31.5073 775.02 31.5376 775.198 31.666C775.618 31.9531 775.803 32.3914 775.846 32.8976C775.895 33.5248 775.696 34.0537 775.241 34.4618C774.835 34.8244 774.351 34.9605 773.831 34.8622C773.446 34.7942 773.119 34.6053 772.856 34.2955C772.67 34.0839 772.549 33.827 772.549 33.5399C772.542 31.4469 772.549 29.3538 772.549 27.2608C772.549 27.1172 772.557 26.9812 772.564 26.8377C772.613 26.1652 772.82 25.5607 773.162 24.994C773.262 24.8277 773.39 24.7371 773.561 24.6842C773.703 24.6464 773.845 24.6237 773.988 24.5784C774.137 24.5859 774.301 24.5859 774.464 24.5859Z" fill="#5FDBFE"/>
<path d="M309.062 84.676L312.036 76.9703V84.676H313.838V73.5957H311.748L308.413 82.113L305.042 73.5957H302.897V84.676H304.681V76.9703L307.728 84.676H309.062ZM322.35 84.676V79.4246C322.35 77.6016 321.16 76.4827 319.141 76.4827C317.501 76.4827 316.239 77.5112 316.005 78.8832H317.735C317.934 78.3234 318.384 78.0166 319.105 78.0166C320.132 78.0166 320.637 78.6485 320.637 79.4607V80.1103C320.313 79.8756 319.502 79.6226 318.78 79.6226C317.014 79.6226 315.662 80.6878 315.662 82.2034C315.662 83.8455 317.014 84.8203 318.655 84.8203C319.556 84.8203 320.367 84.4952 320.637 84.2244V84.676H322.35ZM320.637 82.5463C320.439 83.0517 319.718 83.3585 318.997 83.3585C318.186 83.3585 317.338 83.0156 317.338 82.2034C317.338 81.4096 318.186 81.0667 318.997 81.0667C319.718 81.0667 320.439 81.3735 320.637 81.8789V82.5463ZM329.667 84.676H331.849L328.315 80.128L331.722 76.6635H329.415L326.278 79.9477V72.946H324.476V84.676H326.278V82.0231L327.018 81.2653L329.667 84.676ZM334.957 76.6635H333.154V84.676H334.957V76.6635ZM335.173 74.2453C335.173 73.6317 334.651 73.1441 334.055 73.1441C333.461 73.1441 332.938 73.6317 332.938 74.2453C332.938 74.8589 333.461 75.346 334.055 75.346C334.651 75.346 335.173 74.8589 335.173 74.2453ZM337.186 84.676H338.988V79.4063C339.187 78.6124 339.889 78.1248 340.664 78.1248C341.692 78.1248 342.179 78.7744 342.179 79.7675V84.676H343.981V79.4607C343.981 77.6921 342.972 76.4827 341.151 76.4827C340.214 76.4827 339.421 76.9159 338.988 77.4213V76.6635H337.186V84.676ZM351.302 84.1346C351.302 85.6324 350.671 86.444 349.337 86.444C348.345 86.444 347.715 85.993 347.534 85.1087H345.786C345.984 86.8596 347.3 87.9242 349.337 87.9242C351.464 87.9242 353.104 86.7148 353.104 84.0081V76.6635H351.302V77.3132C350.941 76.8799 350.166 76.4827 349.265 76.4827C346.904 76.4827 345.551 78.4316 345.551 80.543C345.551 82.6544 346.904 84.6033 349.265 84.6033C350.166 84.6033 350.941 84.2067 351.302 83.7734V84.1346ZM351.302 82.0592C350.995 82.6006 350.328 83.0156 349.571 83.0156C348.183 83.0156 347.39 81.9688 347.39 80.543C347.39 79.1178 348.183 78.071 349.571 78.071C350.328 78.071 350.995 78.4859 351.302 79.0274V82.0592ZM359.421 73.5957V84.676H366.649V82.9973H361.259V79.8213H366.145V78.1792H361.259V75.2555H366.649V73.5957H359.421ZM372.488 84.676L375.534 76.6635H373.66L371.604 82.5285L369.531 76.6635H367.603L370.631 84.676H372.488ZM381.732 82.1851C381.533 82.9612 380.884 83.3401 380.019 83.3401C378.866 83.3401 378.055 82.4919 378 81.0845H383.462V80.4348C383.462 78.0887 382.237 76.4827 379.983 76.4827C377.802 76.4827 376.234 78.2873 376.234 80.6878C376.234 83.1598 377.784 84.8563 380.019 84.8563C381.948 84.8563 383.12 83.7734 383.39 82.1851H381.732ZM380.001 77.9989C381.101 77.9989 381.66 78.7927 381.677 79.7675H378.055C378.271 78.6124 379.01 77.9989 380.001 77.9989ZM389.589 76.6269C389.463 76.5548 389.103 76.4827 388.706 76.4827C387.931 76.4827 387.228 76.8976 386.922 77.4935V76.6635H385.119V84.676H386.922V79.4967C387.102 78.6302 387.787 78.2152 388.526 78.2152C388.904 78.2152 389.337 78.3056 389.589 78.4859V76.6269ZM394.165 87.7433L398.383 76.6635H396.527L394.472 82.5646L392.381 76.6635H390.452L393.553 84.8924L392.417 87.7433H394.165ZM405.779 82.9973V75.2555H407.564C409.889 75.2555 411.133 76.7534 411.133 79.1356C411.133 81.4994 409.889 82.9973 407.564 82.9973H405.779ZM403.904 84.676H407.636C410.898 84.676 413.007 82.5102 413.007 79.1356C413.007 75.7609 410.898 73.5957 407.636 73.5957H403.904V84.676ZM416.566 76.6635H414.763V84.676H416.566V76.6635ZM416.782 74.2453C416.782 73.6317 416.259 73.1441 415.664 73.1441C415.07 73.1441 414.546 73.6317 414.546 74.2453C414.546 74.8589 415.07 75.346 415.664 75.346C416.259 75.346 416.782 74.8589 416.782 74.2453ZM423.985 84.1346C423.985 85.6324 423.354 86.444 422.02 86.444C421.029 86.444 420.399 85.993 420.218 85.1087H418.47C418.668 86.8596 419.984 87.9242 422.02 87.9242C424.148 87.9242 425.788 86.7148 425.788 84.0081V76.6635H423.985V77.3132C423.625 76.8799 422.85 76.4827 421.948 76.4827C419.587 76.4827 418.235 78.4316 418.235 80.543C418.235 82.6544 419.587 84.6033 421.948 84.6033C422.85 84.6033 423.625 84.2067 423.985 83.7734V84.1346ZM423.985 82.0592C423.679 82.6006 423.012 83.0156 422.255 83.0156C420.867 83.0156 420.074 81.9688 420.074 80.543C420.074 79.1178 420.867 78.071 422.255 78.071C423.012 78.071 423.679 78.4859 423.985 79.0274V82.0592ZM429.821 76.6635H428.018V84.676H429.821V76.6635ZM430.037 74.2453C430.037 73.6317 429.514 73.1441 428.919 73.1441C428.325 73.1441 427.802 73.6317 427.802 74.2453C427.802 74.8589 428.325 75.346 428.919 75.346C429.514 75.346 430.037 74.8589 430.037 74.2453ZM432.464 82.5102C432.464 84.0985 433.473 84.8563 434.897 84.8563C435.456 84.8563 435.943 84.7481 436.249 84.5673V82.9252C435.997 83.1055 435.582 83.2503 435.222 83.2503C434.627 83.2503 434.267 82.9612 434.267 82.3116V78.1608H436.069V76.6635H434.267V74.516H432.464V76.6635H431.202V78.1608H432.464V82.5102ZM444.076 84.676V79.4246C444.076 77.6016 442.886 76.4827 440.868 76.4827C439.227 76.4827 437.965 77.5112 437.731 78.8832H439.461C439.66 78.3234 440.11 78.0166 440.832 78.0166C441.859 78.0166 442.364 78.6485 442.364 79.4607V80.1103C442.039 79.8756 441.228 79.6226 440.507 79.6226C438.74 79.6226 437.388 80.6878 437.388 82.2034C437.388 83.8455 438.74 84.8203 440.38 84.8203C441.282 84.8203 442.093 84.4952 442.364 84.2244V84.676H444.076ZM442.364 82.5463C442.165 83.0517 441.444 83.3585 440.723 83.3585C439.912 83.3585 439.065 83.0156 439.065 82.2034C439.065 81.4096 439.912 81.0667 440.723 81.0667C441.444 81.0667 442.165 81.3735 442.364 81.8789V82.5463ZM448.005 72.946H446.202V84.676H448.005V72.946ZM457.709 73.5957L453.454 84.676H455.347L456.483 81.6082H460.719L461.855 84.676H463.765L459.511 73.5957H457.709ZM458.592 75.8874L460.106 79.9838H457.078L458.592 75.8874ZM464.514 82.366C464.749 83.9176 466.046 84.8563 467.921 84.8563C469.724 84.8563 471.039 83.8816 471.039 82.2939C471.039 81.1205 470.354 80.345 468.984 80.0199L467.29 79.6226C466.713 79.4784 466.461 79.2437 466.461 78.8832C466.461 78.2513 467.11 77.9628 467.74 77.9628C468.57 77.9628 469.039 78.3234 469.201 78.8471H470.967C470.697 77.3853 469.633 76.4827 467.759 76.4827C466.01 76.4827 464.73 77.5473 464.73 78.9913C464.73 80.3083 465.578 80.9219 466.713 81.1926L468.372 81.5899C469.039 81.7524 469.309 81.9871 469.309 82.4198C469.309 83.0517 468.768 83.3762 467.939 83.3762C467.146 83.3762 466.551 83.0333 466.353 82.366H464.514ZM472.242 82.366C472.477 83.9176 473.774 84.8563 475.649 84.8563C477.452 84.8563 478.767 83.8816 478.767 82.2939C478.767 81.1205 478.082 80.345 476.712 80.0199L475.018 79.6226C474.441 79.4784 474.189 79.2437 474.189 78.8832C474.189 78.2513 474.838 77.9628 475.468 77.9628C476.298 77.9628 476.767 78.3234 476.928 78.8471H478.695C478.425 77.3853 477.361 76.4827 475.487 76.4827C473.738 76.4827 472.458 77.5473 472.458 78.9913C472.458 80.3083 473.305 80.9219 474.441 81.1926L476.099 81.5899C476.767 81.7524 477.037 81.9871 477.037 82.4198C477.037 83.0517 476.496 83.3762 475.667 83.3762C474.874 83.3762 474.279 83.0333 474.081 82.366H472.242ZM485.468 82.1851C485.269 82.9612 484.62 83.3401 483.755 83.3401C482.602 83.3401 481.79 82.4919 481.736 81.0845H487.198V80.4348C487.198 78.0887 485.972 76.4827 483.719 76.4827C481.538 76.4827 479.97 78.2873 479.97 80.6878C479.97 83.1598 481.52 84.8563 483.755 84.8563C485.684 84.8563 486.856 83.7734 487.126 82.1851H485.468ZM483.737 77.9989C484.836 77.9989 485.396 78.7927 485.413 79.7675H481.79C482.006 78.6124 482.746 77.9989 483.737 77.9989ZM489.269 82.5102C489.269 84.0985 490.279 84.8563 491.703 84.8563C492.262 84.8563 492.748 84.7481 493.055 84.5673V82.9252C492.803 83.1055 492.388 83.2503 492.027 83.2503C491.432 83.2503 491.072 82.9612 491.072 82.3116V78.1608H492.875V76.6635H491.072V74.516H489.269V76.6635H488.008V78.1608H489.269V82.5102ZM503.251 80.543C505.54 80.543 507.037 79.3342 507.037 77.0785C507.037 74.7868 505.54 73.5957 503.251 73.5957H498.979V84.676H500.854V80.543H503.251ZM505.18 77.0785C505.18 78.1431 504.513 78.9192 503.215 78.9192H500.854V75.2195H503.215C504.513 75.2195 505.18 75.9773 505.18 77.0785ZM513.164 76.6269C513.038 76.5548 512.677 76.4827 512.281 76.4827C511.506 76.4827 510.803 76.8976 510.496 77.4935V76.6635H508.693V84.676H510.496V79.4967C510.677 78.6302 511.362 78.2152 512.1 78.2152C512.479 78.2152 512.912 78.3056 513.164 78.4859V76.6269ZM521.604 80.6695C521.604 78.2152 520.053 76.4827 517.8 76.4827C515.547 76.4827 513.997 78.2152 513.997 80.6695C513.997 83.1238 515.547 84.8563 517.8 84.8563C520.053 84.8563 521.604 83.1238 521.604 80.6695ZM519.801 80.6695C519.801 82.1851 519.098 83.3041 517.8 83.3041C516.502 83.3041 515.799 82.1851 515.799 80.6695C515.799 79.1539 516.502 78.0349 517.8 78.0349C519.098 78.0349 519.801 79.1539 519.801 80.6695ZM528.531 84.676H530.333V72.946H528.531V77.3492C528.171 76.8976 527.377 76.4827 526.494 76.4827C524.151 76.4827 522.78 78.3778 522.78 80.6695C522.78 82.9795 524.151 84.8563 526.494 84.8563C527.377 84.8563 528.171 84.4414 528.531 83.9898V84.676ZM528.531 82.1851C528.224 82.817 527.539 83.2503 526.801 83.2503C525.413 83.2503 524.583 82.1491 524.583 80.6695C524.583 79.1899 525.413 78.0887 526.801 78.0887C527.539 78.0887 528.224 78.522 528.531 79.1539V82.1851ZM539.215 76.6635H537.412V81.9327C537.215 82.7266 536.529 83.2142 535.754 83.2142C534.727 83.2142 534.258 82.5646 534.258 81.5721V76.6635H532.456V81.8789C532.456 83.6469 533.447 84.8563 535.267 84.8563C536.205 84.8563 536.98 84.423 537.412 83.9177V84.676H539.215V76.6635ZM540.895 80.6695C540.895 83.1598 542.463 84.8563 544.626 84.8563C546.536 84.8563 547.744 83.7734 547.979 82.1674H546.176C546.032 82.8891 545.437 83.2863 544.644 83.2863C543.436 83.2863 542.697 82.1851 542.697 80.6695C542.697 79.1539 543.436 78.0527 544.644 78.0527C545.437 78.0527 546.032 78.4499 546.176 79.1716H547.979C547.744 77.5656 546.536 76.4827 544.626 76.4827C542.463 76.4827 540.895 78.1792 540.895 80.6695ZM550.088 82.5102C550.088 84.0985 551.098 84.8563 552.522 84.8563C553.081 84.8563 553.567 84.7481 553.874 84.5673V82.9252C553.622 83.1055 553.207 83.2503 552.846 83.2503C552.252 83.2503 551.891 82.9612 551.891 82.3116V78.1608H553.694V76.6635H551.891V74.516H550.088V76.6635H548.827V78.1608H550.088V82.5102ZM557.514 76.6635H555.712V84.676H557.514V76.6635ZM557.731 74.2453C557.731 73.6317 557.208 73.1441 556.613 73.1441C556.018 73.1441 555.496 73.6317 555.496 74.2453C555.496 74.8589 556.018 75.346 556.613 75.346C557.208 75.346 557.731 74.8589 557.731 74.2453ZM563.835 84.676L566.881 76.6635H565.007L562.951 82.5285L560.878 76.6635H558.95L561.978 84.676H563.835ZM573.079 82.1851C572.88 82.9612 572.231 83.3401 571.366 83.3401C570.213 83.3401 569.402 82.4919 569.348 81.0845H574.809V80.4348C574.809 78.0887 573.584 76.4827 571.33 76.4827C569.149 76.4827 567.581 78.2873 567.581 80.6878C567.581 83.1598 569.131 84.8563 571.366 84.8563C573.295 84.8563 574.467 83.7734 574.737 82.1851H573.079ZM571.348 77.9989C572.448 77.9989 573.007 78.7927 573.025 79.7675H569.401C569.618 78.6124 570.357 77.9989 571.348 77.9989Z" fill="white"/>
<path d="M310.97 57.7854C308.18 57.7854 305.975 57.0648 304.355 55.6241C302.735 54.1829 301.925 52.1385 301.925 49.4896V37.9526H307.325V49.0448C307.325 50.4008 307.64 51.439 308.27 52.1596C308.922 52.8797 309.822 53.2402 310.97 53.2402C312.095 53.2402 312.973 52.8797 313.603 52.1596C314.255 51.439 314.581 50.4008 314.581 49.0448V37.9526H319.981V49.5216C319.981 52.1488 319.171 54.1829 317.551 55.6241C315.931 57.0648 313.737 57.7854 310.97 57.7854Z" fill="white"/>
<path d="M322.387 57.4674V43.1652H327.686V44.4048C328.676 43.3665 330.037 42.8474 331.77 42.8474C333.434 42.8474 334.74 43.3241 335.685 44.2776C336.652 45.2099 337.136 46.4812 337.136 48.0915V57.4674H331.871V49.2992C331.871 48.685 331.702 48.1974 331.365 47.8374C331.027 47.4562 330.532 47.2652 329.88 47.2652C329.34 47.2652 328.867 47.403 328.462 47.6783C328.08 47.9536 327.821 48.3353 327.686 48.8224V57.4674H322.387Z" fill="white"/>
<path d="M344.849 43.1653V57.4674H339.55V43.1653H344.849ZM345.22 39.2877C345.22 40.0717 344.928 40.7179 344.343 41.2265C343.757 41.7138 343.049 41.9575 342.217 41.9575C341.384 41.9575 340.675 41.7138 340.09 41.2265C339.505 40.7179 339.213 40.0717 339.213 39.2877C339.213 38.4826 339.505 37.8363 340.09 37.349C340.675 36.8404 341.384 36.5862 342.217 36.5862C343.049 36.5862 343.757 36.8404 344.343 37.349C344.928 37.8363 345.22 38.4826 345.22 39.2877Z" fill="white"/>
<path d="M347.522 57.4671V37.9526H352.956V53.0497H362.237V57.4671H347.522Z" fill="white"/>
<path d="M373.334 52.4775H378.228C377.958 54.1305 377.193 55.4332 375.933 56.3867C374.673 57.3191 373.064 57.7856 371.106 57.7856C368.789 57.7856 366.921 57.0965 365.504 55.7194C364.087 54.3423 363.378 52.541 363.378 50.3163C363.378 48.1127 364.098 46.3223 365.538 44.9451C366.978 43.5466 368.8 42.8474 371.005 42.8474C373.3 42.8474 375.089 43.5043 376.371 44.8179C377.654 46.1316 378.295 47.8689 378.295 50.0301V51.2698H368.474C368.654 53.0287 369.531 53.9078 371.106 53.9078C372.299 53.9078 373.042 53.4311 373.334 52.4775ZM371.005 46.7249C369.723 46.7249 368.913 47.4133 368.575 48.7909H373.165C373.121 48.1762 372.907 47.6783 372.524 47.297C372.142 46.9156 371.635 46.7249 371.005 46.7249Z" fill="white"/>
<path d="M379.968 57.4674V43.1652H385.267V44.4048C386.257 43.3665 387.618 42.8474 389.351 42.8474C391.015 42.8474 392.32 43.3241 393.265 44.2776C394.233 45.2099 394.717 46.4812 394.717 48.0915V57.4674H389.452V49.2992C389.452 48.685 389.283 48.1974 388.945 47.8374C388.608 47.4562 388.113 47.2652 387.461 47.2652C386.92 47.2652 386.448 47.403 386.043 47.6783C385.66 47.9536 385.402 48.3353 385.267 48.8224V57.4674H379.968Z" fill="white"/>
<path d="M406.851 57.4673V56.3232C406.468 56.7261 405.928 57.0752 405.23 57.3723C404.556 57.6476 403.847 57.7855 403.104 57.7855C400.989 57.7855 399.325 57.0861 398.11 55.6878C396.917 54.2678 396.321 52.4775 396.321 50.3162C396.321 48.155 396.917 46.3752 398.11 44.9768C399.325 43.5571 400.989 42.8474 403.104 42.8474C403.847 42.8474 404.556 42.9957 405.23 43.2923C405.928 43.5677 406.468 43.9067 406.851 44.3093V36.8086H412.149V57.4673H406.851ZM406.851 52.1913V48.4091C406.648 48.0279 406.333 47.7103 405.906 47.4561C405.478 47.2016 405.017 47.0745 404.522 47.0745C403.622 47.0745 402.913 47.3817 402.396 47.9964C401.878 48.5894 401.619 49.3627 401.619 50.3162C401.619 51.2486 401.878 52.0219 402.396 52.6366C402.913 53.2295 403.622 53.5266 404.522 53.5266C405.624 53.5266 406.401 53.0813 406.851 52.1913Z" fill="white"/>
<path d="M437.558 38.1082H433.391L428.78 48.7242L424.181 38.1082H420.062L428.792 57.9209L437.558 38.1082ZM445.628 41.8953C447.261 41.8953 448.642 43.2418 448.642 44.9008C448.642 45.4539 448.354 46.1632 447.802 47.0168C447.249 47.8704 446.528 48.7843 445.64 49.7458C443.875 51.6575 441.461 53.7615 439.312 55.276L438.651 57.4882H452.461V53.6053H447.081C447.898 52.9436 448.534 52.2465 449.266 51.4772C450.203 50.479 450.984 49.4213 451.608 48.3029C452.233 47.1971 452.545 46.055 452.545 44.9008C452.545 43.0013 451.86 41.3783 450.516 40.0198C449.17 38.6733 447.538 38 445.64 38C443.718 38 442.086 38.6733 440.74 40.0198C439.396 41.3663 438.723 43.0013 438.723 44.9008H442.614C442.614 43.2538 443.971 41.8953 445.628 41.8953Z" fill="white"/>
<path d="M461.905 57V37.2579H469.277L473.06 47.7778L476.843 37.2579H484.077V57H478.444V44.713L473.612 57H471.735L466.958 44.713V57H461.905ZM491.408 57.3313C488.812 57.3313 486.521 56.0612 486.521 52.9964C486.521 49.6002 489.392 48.2748 494.197 48.2748H495.577V47.9435C495.577 46.5629 495.246 45.6518 493.672 45.6518C492.319 45.6518 491.822 46.4525 491.712 47.3637H487.073C487.294 43.8847 490.027 42.1728 493.976 42.1728C497.952 42.1728 500.492 43.8018 500.492 47.6398V57H495.688V55.3157C494.997 56.3649 493.727 57.3313 491.408 57.3313ZM493.12 53.9904C494.528 53.9904 495.577 53.1896 495.577 51.9471V51.0636H494.279C492.291 51.0636 491.408 51.4501 491.408 52.6374C491.408 53.4658 491.96 53.9904 493.12 53.9904ZM503.45 57V42.5593H508.392V57H503.45ZM505.907 41.1787C504.361 41.1787 503.201 40.1019 503.201 38.6385C503.201 37.1751 504.361 36.0707 505.907 36.0707C507.453 36.0707 508.641 37.1751 508.641 38.6385C508.641 40.1019 507.453 41.1787 505.907 41.1787ZM511.455 57V42.5593H516.397V44.8787C517.17 43.3876 518.744 42.1728 521.146 42.1728C523.935 42.1728 525.868 43.9123 525.868 47.6122V57H520.926V48.6062C520.926 46.9771 520.29 46.1764 518.855 46.1764C517.391 46.1764 516.397 47.0599 516.397 48.9099V57H511.455ZM528.685 57V42.5593H533.627V44.8787C534.4 43.3876 535.974 42.1728 538.376 42.1728C541.165 42.1728 543.098 43.9123 543.098 47.6122V57H538.156V48.6062C538.156 46.9771 537.521 46.1764 536.085 46.1764C534.621 46.1764 533.627 47.0599 533.627 48.9099V57H528.685ZM552.984 57.3313C548.455 57.3313 545.142 54.6807 545.142 49.9591V49.7382C545.142 45.0995 548.593 42.1728 552.956 42.1728C556.904 42.1728 560.3 44.4369 560.3 49.6278V50.9255H550.14C550.278 52.8307 551.382 53.9352 553.149 53.9352C554.778 53.9352 555.469 53.1896 555.662 52.2233H560.3C559.859 55.4814 557.346 57.3313 552.984 57.3313ZM550.195 48.1368H555.496C555.413 46.3973 554.557 45.4309 552.956 45.4309C551.465 45.4309 550.443 46.3973 550.195 48.1368ZM568.16 57.3313C564.902 57.3313 563.08 55.7575 563.08 52.3613V45.9279H561.34V42.5593H563.08V39.5497H568.022V42.5593H570.866V45.9279H568.022V51.8919C568.022 52.9411 568.547 53.4105 569.486 53.4105C570.038 53.4105 570.452 53.3277 570.894 53.162V56.9172C570.259 57.0828 569.32 57.3313 568.16 57.3313Z" fill="white"/>
<path d="M679.607 115.509H682.223C682.279 115.509 682.305 115.509 682.309 115.433C682.331 115.155 682.331 114.875 682.309 114.597C682.309 114.542 682.284 114.52 682.227 114.52H677.022C676.957 114.52 676.94 114.542 676.94 114.606V115.406C676.94 115.509 676.94 115.509 677.043 115.509H679.607ZM682.017 113.585C682.025 113.564 682.025 113.542 682.017 113.522C681.973 113.423 681.922 113.328 681.862 113.239C681.771 113.087 681.665 112.946 681.543 112.82C681.486 112.744 681.42 112.676 681.345 112.618C680.973 112.287 680.53 112.053 680.054 111.935C679.814 111.878 679.569 111.851 679.323 111.854H677.013C676.948 111.854 676.94 111.881 676.94 111.939V113.535C676.94 113.603 676.94 113.621 677.022 113.621H681.986C681.986 113.621 682.029 113.612 682.038 113.585H682.017ZM682.017 116.444C681.944 116.436 681.87 116.436 681.797 116.444H677.026C676.962 116.444 676.94 116.444 676.94 116.534V118.095C676.94 118.167 676.94 118.185 677.026 118.185H679.229C679.334 118.193 679.44 118.186 679.543 118.163C679.862 118.139 680.177 118.066 680.477 117.947C680.586 117.907 680.691 117.856 680.79 117.794H680.821C681.337 117.513 681.756 117.072 682.021 116.531C682.021 116.531 682.051 116.462 682.017 116.444ZM676.076 118.994V118.967V117.919V117.564V116.508C676.076 116.449 676.076 116.44 676.007 116.44H675.073C675.021 116.44 675 116.44 675 116.368V115.514H675.998C676.054 115.514 676.076 115.514 676.076 115.438V114.592C676.076 114.538 676.076 114.525 676.007 114.525H675.073C675.021 114.525 675 114.525 675 114.453V113.662C675 113.612 675 113.599 675.069 113.599H675.994C676.058 113.599 676.076 113.599 676.076 113.514V111.09C676.076 111.018 676.076 111 676.162 111H679.388C679.622 111.01 679.855 111.037 680.085 111.081C680.559 111.173 681.015 111.35 681.432 111.602C681.708 111.772 681.962 111.978 682.189 112.214C682.359 112.399 682.513 112.599 682.649 112.812C682.784 113.028 682.897 113.259 682.985 113.5C682.996 113.563 683.054 113.605 683.114 113.595H683.884C683.983 113.595 683.983 113.595 683.987 113.694V114.431C683.987 114.503 683.961 114.521 683.892 114.521H683.298C683.238 114.521 683.221 114.521 683.225 114.602C683.249 114.876 683.249 115.151 683.225 115.425C683.225 115.501 683.225 115.51 683.307 115.51H683.987C684.017 115.551 683.987 115.591 683.987 115.632C683.991 115.684 683.991 115.737 683.987 115.789V116.333C683.987 116.409 683.965 116.432 683.901 116.432H683.087C683.031 116.421 682.976 116.459 682.963 116.518C682.769 117.044 682.459 117.515 682.059 117.894C681.913 118.031 681.759 118.161 681.599 118.28C681.426 118.384 681.259 118.492 681.082 118.577C680.757 118.73 680.417 118.842 680.067 118.914C679.735 118.976 679.398 119.004 679.06 118.999H676.074V118.995L676.076 118.994Z" fill="#FEFEFD"/>
</g>
</g>
<defs>
<filter id="filter0_f_4234_5465" x="138.702" y="-265.671" width="608.72" height="478.59" filterUnits="userSpaceOnUse" color-interpolation-filters="sRGB">
<feFlood flood-opacity="0" result="BackgroundImageFix"/>
<feBlend mode="normal" in="SourceGraphic" in2="BackgroundImageFix" result="shape"/>
<feGaussianBlur stdDeviation="1.34875" result="effect1_foregroundBlur_4234_5465"/>
</filter>
<linearGradient id="paint0_linear_4234_5465" x1="456.56" y1="240.151" x2="449.842" y2="-277.908" gradientUnits="userSpaceOnUse">
<stop offset="0.247917" stop-color="white" stop-opacity="0"/>
<stop offset="0.607292" stop-color="#D0D7FF" stop-opacity="0.16"/>
<stop offset="1" stop-color="#3378FF" stop-opacity="0.12"/>
</linearGradient>
<clipPath id="clip0_4234_5465">
<rect width="877" height="141" fill="white"/>
</clipPath>
</defs>
</svg>
