<svg width="373" height="198" viewBox="0 0 373 198" fill="none" xmlns="http://www.w3.org/2000/svg">
<g clip-path="url(#clip0_872_3464)">
<path opacity="0.35" fill-rule="evenodd" clip-rule="evenodd" d="M112.685 -27.9854C50.7282 -27.9854 0.5 21.9553 0.5 83.607C0.5 145.259 50.7282 195.214 112.685 195.214H293.622V194.964C337.726 191.753 372.507 155.129 372.507 110.422C372.507 63.6058 334.356 25.6544 287.297 25.6544C273.99 25.6367 260.866 28.7332 248.984 34.6937C239.145 30.2744 228.469 27.9988 217.674 28.0195C215.15 28.0195 212.656 28.1384 210.194 28.3762C190.882 -5.2909 154.451 -27.9854 112.685 -27.9854Z" fill="url(#paint0_radial_872_3464)"/>
<path d="M364.651 195.149H17.46V195.759H364.651V195.149Z" fill="#000446"/>
<path d="M299.517 93.0313C298.868 92.5426 298.696 92.0896 297.921 91.8577C297.355 91.6901 296.749 91.0444 296.258 90.7091C295.874 90.4451 294.153 89.5569 294.59 88.8827C294.611 88.846 294.64 88.8145 294.675 88.7904C294.709 88.7663 294.749 88.7503 294.791 88.7435C294.558 88.4368 295.117 88.13 295.318 88.0301C295.124 87.7019 295.641 87.3167 295.906 87.2596C295.548 86.7852 297.143 85.6294 297.455 86.2465C298.032 86.0753 297.961 86.2893 298.309 86.6032C298.398 86.564 300.872 89.168 301.034 89.432C301.281 89.8244 301.392 90.2881 301.837 90.5022L299.517 93.0313Z" fill="#F7AAAC"/>
<mask id="mask0_872_3464" style="mask-type:luminance" maskUnits="userSpaceOnUse" x="299" y="89" width="40" height="18">
<path d="M333.233 95.7957C335.642 95.9954 338.93 99.0061 338.644 101.567C338.568 102.245 338.93 102.994 337.866 103.665C334.097 106.026 321.042 107.61 316.427 105.491C312.637 103.754 301.367 95.6387 299.459 91.9895C298.878 90.8658 300.413 89.6245 300.947 89.3177C301.994 88.3617 310.302 95.7136 319.17 97.9931C326.485 99.873 331.067 95.6137 333.233 95.7957Z" fill="white"/>
</mask>
<g mask="url(#mask0_872_3464)">
<path d="M338.931 88.3511H298.875V107.6H338.931V88.3511Z" fill="url(#paint1_linear_872_3464)"/>
</g>
<mask id="mask1_872_3464" style="mask-type:luminance" maskUnits="userSpaceOnUse" x="106" y="26" width="41" height="14">
<path d="M112.377 29.3571C109.841 29.5533 106.392 32.5248 106.693 35.0325C106.772 35.696 106.388 36.4344 107.511 37.0944C111.455 39.4166 126.465 40.9755 131.313 38.878C135.289 37.1693 144.859 32.3714 146.842 28.7828C147.455 27.6806 145.842 26.457 145.282 26.1538C144.182 25.2156 137.752 29.2644 128.43 31.5046C120.749 33.3524 114.65 29.1645 112.377 29.3429" fill="white"/>
</mask>
<g mask="url(#mask1_872_3464)">
<path d="M147.452 25.2296H106.389V40.9752H147.452V25.2296Z" fill="url(#paint2_linear_872_3464)"/>
</g>
<path d="M145.469 1.94629L134.801 75.1465L192.376 83.4515L203.045 10.2513L145.469 1.94629Z" fill="url(#paint3_linear_872_3464)"/>
<mask id="mask2_872_3464" style="mask-type:luminance" maskUnits="userSpaceOnUse" x="92" y="38" width="39" height="94">
<path d="M128.802 65.0538C133.593 92.3071 125.399 116.821 122.413 126.013C123.746 126.727 129.559 128.261 130.351 129.01C130.918 129.552 131.868 131.735 124.062 131.532C118.518 131.386 115.84 131.86 115.248 130.965C114.736 130.198 115.048 125.368 115.015 125.368C117.454 100.904 117.697 99.3773 116.371 83.7031C115.27 88.6044 110.942 108.12 99.1594 123.909C98.9263 124.219 98.3203 126.534 98.704 127.544C98.851 127.933 99.8694 128.389 100.239 128.867C100.802 129.581 100.336 130.119 99.8371 130.462C98.2845 131.532 94.7526 130.744 94.2076 130.736C91.4 130.38 93.0243 125.742 92.257 123.566C91.9378 122.657 94.0892 121.184 93.9171 120.93C105.137 83.0039 100.418 82.5651 104.09 64.1014C105.047 25.9004 125.45 35.7458 123.614 58.8754C123.406 61.4866 127.877 61.451 128.802 65.0538Z" fill="white"/>
</mask>
<g mask="url(#mask2_872_3464)">
<path d="M133.593 25.9008H91.3857V131.861H133.593V25.9008Z" fill="url(#paint4_linear_872_3464)"/>
</g>
<path fill-rule="evenodd" clip-rule="evenodd" d="M116.374 83.7033C114.299 92.7914 111.295 101.645 107.41 110.125C110.687 99.3169 113.183 89.079 115.636 78.0386L116.374 83.7033Z" fill="#041846"/>
<path d="M113.27 12.4626C113.27 12.4626 118.573 10.4935 121.022 14.5102C121.635 15.5161 122.589 15.673 122.571 17.0357C122.554 17.8198 122.605 18.6038 122.721 19.3794C122.847 20.0928 123.41 21.1844 123.528 21.7694C123.679 22.5042 122.582 22.893 122.56 23.1963C122.374 25.7504 122.743 27.2272 121.563 27.6624C118.584 28.0797 113.865 28.0191 112.495 25.4971C111.125 22.9751 109.892 19.3508 109.949 16.9358C110.007 14.5208 111.875 13.1618 113.27 12.459" fill="#F7AAAC"/>
<path d="M119.667 27.3053C119.667 27.3053 119.451 28.6894 119.806 29.3707C120.161 30.052 113.133 30.0841 113.133 30.0841C112.759 27.766 112.206 25.4799 111.48 23.2458C110.405 20.1138 119.667 27.3196 119.667 27.3196" fill="#F7AAAC"/>
<mask id="mask3_872_3464" style="mask-type:luminance" maskUnits="userSpaceOnUse" x="108" y="10" width="17" height="17">
<path d="M114.295 26.646C115.607 26.2607 116.848 25.8648 117.942 24.6662C118.329 24.2417 118.953 20.5818 119.168 20.5069C119.996 20.2179 120.391 23.0503 120.391 23.0503C120.513 22.9005 120.95 22.7792 121.05 22.3119C121.093 22.1014 120.814 20.9349 120.997 20.6389C121.129 20.4213 122.029 19.6507 122.223 19.3618C123.819 17.0039 125.64 14.4569 123.489 12.6377C123.092 12.3387 122.616 12.1636 122.119 12.1347C121.396 12.1118 120.688 11.9316 120.043 11.6067C114.819 9.14894 104.581 12.9016 109.981 23.4034C110.738 24.8767 113.054 26.5176 114.284 26.646" fill="white"/>
</mask>
<g mask="url(#mask3_872_3464)">
<path d="M125.64 9.14868H104.578V26.6457H125.64V9.14868Z" fill="url(#paint5_linear_872_3464)"/>
</g>
<path d="M120.226 29.2926C120.226 29.2926 120.201 27.9906 119.609 27.8657C119.017 27.7409 112.678 27.3306 111.95 27.616L111.871 29.2748C111.871 29.2748 113.736 29.8313 120.226 29.2926Z" fill="#D0D2D3"/>
<path d="M119.971 21.3202C119.86 20.8565 118.72 18.9659 118.264 20.382C117.809 21.7982 118.949 23.6995 119.584 23.539C120.219 23.3785 120.254 22.4938 119.971 21.3202Z" fill="#F7AAAC"/>
<path d="M151.21 61.908C151.21 61.908 148.058 61.3658 147.95 61.0198C147.843 60.6737 146.892 61.1232 146.71 59.9496C146.606 59.2825 146.312 56.2968 146.312 56.2968L148.233 56.6143C148.743 56.5108 149.402 56.8783 150.485 56.8069C151.109 56.7677 152.049 56.3396 152.733 56.2112C153.042 56.1506 153.203 56.518 153.045 56.8783C152.888 57.2385 152.11 57.5917 152.138 57.8414C152.181 58.248 155.226 58.776 155.365 59.2683C154.903 62.3182 153.573 62.122 151.217 61.9222" fill="#F7AAAC"/>
<mask id="mask4_872_3464" style="mask-type:luminance" maskUnits="userSpaceOnUse" x="123" y="33" width="27" height="29">
<path d="M124.091 40.0088C126.164 44.5819 127.032 52.3869 132.407 55.9862C135.752 57.6307 147.875 63.0956 148.703 60.2669C149.532 57.4381 148.399 56.2038 148.399 56.2038C148.399 56.2038 138.029 48.9945 136.745 48.5665C135.777 48.2454 132.521 36.5379 129.628 33.9053C129.014 33.3488 123.202 38.0468 124.091 40.0124" fill="white"/>
</mask>
<g mask="url(#mask4_872_3464)">
<path d="M149.528 33.3453H123.198V63.0957H149.528V33.3453Z" fill="url(#paint6_linear_872_3464)"/>
</g>
<mask id="mask5_872_3464" style="mask-type:luminance" maskUnits="userSpaceOnUse" x="102" y="28" width="28" height="44">
<path d="M121.904 28.9431H111.803C109.082 28.9431 105.406 30.2202 104.173 32.4211C100.644 38.7244 102.774 52.9824 102.893 68.6638C106.654 72.8695 123.618 72.4414 129.663 69.0205L129.739 34.0406C129.308 33.3878 125.529 28.9253 121.904 28.9253" fill="white"/>
</mask>
<g mask="url(#mask5_872_3464)">
<path d="M129.738 28.9432H100.644V72.8696H129.738V28.9432Z" fill="url(#paint7_linear_872_3464)"/>
</g>
<path d="M272.535 85.8574H139.692V102.645H272.535V85.8574Z" fill="#5F8AFB"/>
<mask id="mask6_872_3464" style="mask-type:luminance" maskUnits="userSpaceOnUse" x="146" y="102" width="121" height="94">
<path d="M266.231 102.527H146.075V195.149H266.231V102.527Z" fill="white"/>
</mask>
<g mask="url(#mask6_872_3464)">
<path d="M266.228 102.527H146.072V195.149H266.228V102.527Z" fill="#1755FB"/>
</g>
<path d="M290.087 102.527H266.231V195.149H290.087V102.527Z" fill="#033ACD"/>
<path d="M294.45 85.8574H272.535V102.645H294.45V85.8574Z" fill="#3DA8F1"/>
<path d="M237.169 150.327V154.023H224.3V135.805H236.936V139.501H228.531V143.04H235.753V146.45H228.531V150.324L237.169 150.327ZM222.238 139.501H216.652V154.023H212.421V139.501H206.827V135.805H222.224L222.238 139.501ZM192.785 144.941C192.783 145.632 192.887 146.319 193.094 146.978C193.288 147.615 193.598 148.211 194.008 148.736C194.415 149.252 194.93 149.672 195.518 149.967C196.157 150.285 196.865 150.444 197.58 150.431C198.315 150.448 199.042 150.279 199.695 149.942C200.28 149.632 200.79 149.198 201.19 148.672C201.593 148.136 201.896 147.532 202.083 146.889C202.279 146.235 202.378 145.556 202.377 144.873C202.378 144.181 202.274 143.494 202.069 142.833C201.873 142.198 201.558 141.606 201.14 141.088C200.728 140.585 200.214 140.174 199.631 139.883C198.979 139.582 198.269 139.429 197.552 139.433C196.834 139.437 196.126 139.599 195.478 139.908C194.898 140.215 194.389 140.639 193.983 141.153C193.572 141.676 193.266 142.273 193.08 142.911C192.882 143.57 192.783 144.254 192.785 144.941ZM197.554 154.176C196.272 154.193 195.002 153.921 193.84 153.381C192.756 152.876 191.782 152.166 190.971 151.291C190.178 150.425 189.553 149.419 189.128 148.326C188.693 147.231 188.469 146.065 188.468 144.887C188.477 142.503 189.405 140.212 191.061 138.488C191.889 137.633 192.873 136.944 193.962 136.458C195.121 135.945 196.379 135.687 197.648 135.702C198.93 135.685 200.2 135.957 201.362 136.497C202.449 137.004 203.424 137.719 204.231 138.602C205.02 139.473 205.642 140.482 206.063 141.577C206.485 142.658 206.702 143.807 206.705 144.966C206.707 146.154 206.476 147.33 206.024 148.43C205.137 150.646 203.423 152.436 201.241 153.424C200.082 153.941 198.824 154.198 197.554 154.176ZM175.477 135.805L179.78 148.736L184.036 135.805H188.504L181.566 154.023H178.005L170.992 135.805H175.477Z" fill="white"/>
<path fill-rule="evenodd" clip-rule="evenodd" d="M87.1408 165.541C86.089 170.44 85.0396 175.336 83.9925 180.228H104.556L107.708 165.541H87.1408ZM90.8699 148.137C89.8181 153.036 88.7687 157.931 87.7216 162.823H108.293C109.335 157.929 110.383 153.034 111.437 148.137H90.8699ZM114.636 133.208H117.834C115.618 143.537 113.405 153.862 111.194 164.186C108.982 174.509 106.77 184.83 104.556 195.149H101.365C102.233 191.085 103.104 187.017 103.979 182.946H83.4081C82.5403 187.017 81.669 191.085 80.7941 195.149H77.6064L84.2435 164.186C86.4523 153.865 88.6635 143.539 90.8771 133.208H94.0647C93.197 137.277 92.3257 141.346 91.4508 145.415H112.022C112.894 141.349 113.766 137.28 114.636 133.208Z" fill="#93C1E7"/>
<path d="M134.483 130.689H90.8735V133.204H134.483V130.689Z" fill="#93C1E7"/>
<path fill-rule="evenodd" clip-rule="evenodd" d="M138.223 165.541C139.272 170.44 140.322 175.336 141.371 180.228H120.803C119.756 175.333 118.707 170.438 117.655 165.541H138.223ZM134.494 148.137C135.543 153.036 136.592 157.931 137.642 162.823H117.071C116.029 157.929 114.98 153.034 113.926 148.137H134.494ZM110.728 133.208H107.529C109.745 143.537 111.959 153.862 114.17 164.186C116.381 174.509 118.592 184.83 120.803 195.149H123.998C123.131 191.085 122.259 187.017 121.384 182.946H141.952C142.824 187.017 143.697 191.085 144.569 195.149H147.757L141.12 164.186C138.911 153.865 136.7 143.539 134.486 133.208H131.313C132.186 137.277 133.058 141.346 133.931 145.415H113.342C112.472 141.349 111.6 137.28 110.728 133.208Z" fill="#93C1E7"/>
<path d="M267.063 21.0766L233.347 66.4727L291.664 109.34L325.38 63.9441L267.063 21.0766Z" fill="url(#paint8_linear_872_3464)"/>
<path d="M52.9046 110.778L57.8457 151.444L55.3357 189.87L55.5867 190.227L55.7803 190.48C55.9345 190.683 56.0887 190.876 56.2393 191.054C56.311 191.136 56.3791 191.215 56.4508 191.29C57.5839 192.535 59.0504 192.834 60.2516 193.127C61.1803 193.352 61.8975 193.462 62.5285 194.7C62.5487 194.737 62.5643 194.777 62.5752 194.818C62.6039 194.924 62.6076 195.035 62.586 195.143C62.5645 195.25 62.5183 195.351 62.4509 195.438C62.3836 195.525 62.2971 195.596 62.198 195.644C62.0988 195.692 61.9899 195.717 61.8795 195.717L50.8572 195.36C50.601 195.351 50.3565 195.251 50.1678 195.078C49.9792 194.905 49.8587 194.671 49.8281 194.418C49.8191 194.345 49.8191 194.27 49.8281 194.197L50.5631 189.41C50.5623 189.404 50.5623 189.398 50.5631 189.392C50.2978 180.05 48.1715 166.359 49.9141 155.443C49.9141 155.443 39.5157 134.971 39.5479 134.475C39.5802 133.979 52.9046 110.778 52.9046 110.778Z" fill="#F7AAAC"/>
<path d="M45.9301 147.345C45.4496 151.458 48.3325 153.898 47.8556 158.011C47.8556 168.306 40.5982 180.167 38.1456 190.565C38.0631 190.922 38.6799 194.179 38.6117 194.518C37.536 195.677 34.4165 197.311 34.083 191.971C35.4743 182.992 37.199 168.484 40.7739 157.565L38.5149 146.678L45.9301 147.345Z" fill="#F7AAAC"/>
<mask id="mask7_872_3464" style="mask-type:luminance" maskUnits="userSpaceOnUse" x="35" y="115" width="28" height="48">
<path d="M60.7001 124.801C63.081 132.673 61.8368 147.788 60.5997 160.719C51.6355 163.005 38.4761 162.384 35.188 159.616C37.3824 142.751 38.5012 126.545 42.0008 123.559C49.3909 106.38 59.6101 120.438 60.6929 124.801" fill="white"/>
</mask>
<g mask="url(#mask7_872_3464)">
<path d="M63.0812 106.38H35.1846V163.005H63.0812V106.38Z" fill="url(#paint9_linear_872_3464)"/>
</g>
<path fill-rule="evenodd" clip-rule="evenodd" d="M56.7665 103.483C59.169 108.727 59.2765 108.93 66.1359 109.947C73.4364 111.017 81.9559 100.918 85.4448 95.7315C86.5205 94.1084 83.9603 90.7196 83.2038 91.4723C82.3826 92.2927 68.065 103.137 67.9503 103.126C67.1578 103.069 60.5889 96.9978 55.759 95.7351C55.1817 95.3783 55.0705 100.95 56.763 103.483" fill="#DC0482"/>
<path fill-rule="evenodd" clip-rule="evenodd" d="M36.4534 98.075C34.3486 106.636 42.7785 107.706 40.8674 124.939C47.1817 125.813 55.5077 126.056 60.9472 124.725C60.0794 118.379 62.3528 109.85 60.9149 104.949C59.9683 101.738 57.383 96.3877 55.7694 95.7349C48.1535 93.5946 39.5944 93.4234 36.4606 98.075" fill="#DC0482"/>
<path fill-rule="evenodd" clip-rule="evenodd" d="M51.1512 92.9421L51.1871 95.0146L51.4919 95.2715C52.6787 96.5378 51.3951 99.1347 50.0576 99.0527C46.6369 99.2203 44.0157 96.4343 45.0377 94.9183L45.4859 94.426L45.5827 91.4902C45.407 91.4902 44.1233 90.7554 43.7396 90.6377C43.356 90.52 42.7966 89.7887 42.7607 89.0182C42.7249 88.2477 43.9225 88.4938 43.9225 88.4938C42.4703 86.514 40.8209 84.8945 42.958 83.1109C45.095 81.3273 50.0002 80.2857 50.0002 80.2857L52.9548 79.269C52.5783 80.2821 53.0803 83.6638 53.8405 85.7756C54.9162 88.7792 54.321 91.4367 51.162 92.9421" fill="#F7AAAC"/>
<path fill-rule="evenodd" clip-rule="evenodd" d="M46.9629 91.9007C46.9629 91.9007 48.6338 94.7544 50.0071 95.0077C51.3805 95.261 50.6777 95.0755 51.1904 95.0077L51.151 92.9352C50.2043 93.085 49.2792 93.0101 46.9629 91.8936" fill="#EA8287"/>
<path d="M84.5225 80.7898L26.2051 123.657L59.9212 169.053L118.239 126.186L84.5225 80.7898Z" fill="url(#paint10_linear_872_3464)"/>
<path fill-rule="evenodd" clip-rule="evenodd" d="M38.2926 96.2418C30.7125 99.3667 25.23 116.072 26.7826 120.713C28.0878 124.476 39.0062 133.844 42.2584 132.484C43.8289 131.832 44.9046 130.28 42.5452 128.757C39.0958 127.237 33.287 119.867 33.0898 118.929C32.7312 116.279 37.0341 109.508 38.1994 107.414C39.8811 104.393 42.7066 95.5427 38.2926 96.2347" fill="#DC0482"/>
<path fill-rule="evenodd" clip-rule="evenodd" d="M43.3493 129.824L44.4824 130.448L47.2721 130.494C47.6019 130.416 49.6529 130.337 49.0075 130.883C48.5521 131.265 47.2792 131.793 47.2972 131.85C47.5302 132.563 50.9976 134.258 51.0227 134.322C51.3812 135.249 49.1043 134.322 48.7135 134.165C48.6131 134.129 50.1263 135.156 50.0402 135.214C49.9228 135.295 49.7864 135.346 49.644 135.36C49.5015 135.374 49.3577 135.352 49.2263 135.296C48.7027 135.089 47.8637 134.582 47.7382 134.65C47.6127 134.718 49.09 135.699 48.9645 135.745C48.8668 135.786 48.7611 135.805 48.6551 135.801C48.5491 135.797 48.4453 135.769 48.3513 135.72C47.8135 135.495 47.0677 135.007 46.9171 135.007C46.7665 135.007 47.8673 135.681 47.7239 135.699C47.5804 135.717 47.5482 135.891 47.4478 135.856C44.6939 134.942 45.0202 133.512 41.8397 132.549C40.0684 132.014 42.6752 129.977 43.3493 129.816" fill="#F7AAAC"/>
<mask id="mask8_872_3464" style="mask-type:luminance" maskUnits="userSpaceOnUse" x="26" y="76" width="29" height="30">
<path d="M47.433 84.9371C47.433 84.9371 51.6712 85.0798 53.2525 83.7171C56.5657 80.8848 54.547 74.125 46.0812 76.6291C39.3401 78.6196 41.6815 85.251 33.0185 88.3045C27.3531 90.3057 23.9539 94.326 27.7978 102.47C27.7978 102.47 29.6336 98.974 31.4337 98.7457C29.1854 102.081 29.7305 104.689 30.34 105.227C33.3627 99.0774 40.3512 94.3081 45.2672 94.9252C48.4011 92.6387 42.6568 85.6505 47.4186 84.9371" fill="white"/>
</mask>
<g mask="url(#mask8_872_3464)">
<path d="M56.5621 74.125H23.9468V105.227H56.5621V74.125Z" fill="url(#paint11_linear_872_3464)"/>
</g>
<path fill-rule="evenodd" clip-rule="evenodd" d="M59.9038 192.77C59.9038 192.77 63.7441 193.84 63.5684 195.003C63.2098 197.379 50.0504 195.809 49.9786 195.716C49.5125 195.138 49.4587 192.456 50.0862 191.657C50.5559 191.061 55.7086 194.243 59.9038 192.763" fill="#031542"/>
<path fill-rule="evenodd" clip-rule="evenodd" d="M39.8207 196.18C39.7383 197.707 34.0836 197.215 33.2374 196.754C31.9968 196.077 33.449 192.738 34.1016 191.864C34.1016 191.864 35.5358 194.129 37.2534 193.669C38.9709 193.209 38.3649 192.709 38.6554 193.284C39.2004 194.354 39.896 194.775 39.8207 196.18Z" fill="#000446"/>
<path fill-rule="evenodd" clip-rule="evenodd" d="M313.107 129.438C308.238 156.623 316.567 181.073 319.608 190.24C318.249 190.954 312.336 192.481 311.533 193.233C310.955 193.772 309.991 195.948 317.926 195.73C323.566 195.588 326.288 196.058 326.89 195.167C327.41 194.4 327.095 189.584 327.127 189.584C324.646 165.181 324.398 163.661 325.746 148.026C326.869 152.917 331.272 172.379 343.27 188.129C343.506 188.435 344.123 190.743 343.732 191.753C343.582 192.142 342.549 192.595 342.172 193.073C341.602 193.786 342.076 194.321 342.581 194.664C344.162 195.734 347.752 194.942 348.318 194.938C351.187 194.582 349.519 189.944 350.301 187.786C350.624 186.88 348.44 185.41 348.612 185.157C337.181 147.345 341.986 146.892 338.253 128.474C337.282 90.3698 316.528 100.19 318.396 123.256C318.607 125.863 314.061 125.828 313.121 129.42" fill="#104E8C"/>
<path fill-rule="evenodd" clip-rule="evenodd" d="M325.753 148.926C326.56 152.493 329.565 164.233 335.514 175.68C332.179 164.689 328.995 154.391 326.499 143.161L325.753 148.926Z" fill="#041846"/>
<path d="M328.915 76.4759C328.915 76.4759 323.519 74.4711 321.027 78.5591C320.403 79.5793 319.435 79.7399 319.453 81.1275C319.469 81.9247 319.418 82.7219 319.299 83.5104C319.17 84.2488 318.599 85.3439 318.478 85.9432C318.323 86.6852 319.438 87.0847 319.464 87.4129C319.65 90.0062 319.274 91.508 320.475 91.9503C323.508 92.3748 328.302 92.3071 329.697 89.7494C331.092 87.1917 332.347 83.4997 332.286 81.0312C332.225 78.5627 330.328 77.1893 328.912 76.4759" fill="#F7AAAC"/>
<path d="M322.408 91.5758C322.408 91.5758 322.626 92.9812 322.264 93.6733C321.902 94.3653 329.052 94.3867 329.052 94.3867C329.433 92.0299 329.995 89.7056 330.734 87.4343C331.834 84.2488 322.408 91.5758 322.408 91.5758Z" fill="#F7AAAC"/>
<mask id="mask9_872_3464" style="mask-type:luminance" maskUnits="userSpaceOnUse" x="318" y="74" width="16" height="17">
<path d="M327.872 90.8977C326.539 90.5089 325.276 90.1058 324.165 88.8858C323.77 88.4542 323.136 84.7336 322.917 84.6587C322.071 84.3805 321.673 87.2342 321.673 87.2342C321.547 87.0844 321.103 86.9595 321.002 86.4815C320.959 86.2711 321.243 85.0832 321.056 84.7836C320.923 84.5624 320.006 83.7776 319.808 83.4815C317.904 80.6706 319.575 76.7467 322.024 75.598C327.338 73.101 337.202 77.7384 331.706 88.4043C330.938 89.8989 329.131 90.7622 327.869 90.9013" fill="white"/>
</mask>
<g mask="url(#mask9_872_3464)">
<path d="M337.202 73.1049H317.904V90.898H337.202V73.1049Z" fill="url(#paint12_linear_872_3464)"/>
</g>
<path d="M321.841 93.5916C321.841 93.5916 321.863 92.2682 322.469 92.1398C323.075 92.0114 329.515 91.5976 330.257 91.8865L330.339 93.5702C330.339 93.5702 328.443 94.141 321.841 93.5916Z" fill="#D0D2D3"/>
<path d="M322.1 85.483C322.211 85.0121 323.373 83.0894 323.835 84.5269C324.298 85.9645 323.14 87.9051 322.494 87.7374C321.849 87.5698 321.813 86.6673 322.1 85.483Z" fill="#F7AAAC"/>
<path d="M284.712 92.7283C284.712 92.7283 286.504 95.4322 286.863 95.3894C287.221 95.3466 287.193 96.4168 288.373 96.1028C289.039 95.9316 291.958 94.9899 291.958 94.9899L290.882 93.3383C290.775 92.821 290.165 92.3573 289.807 91.3264C289.592 90.7307 289.61 89.6855 289.448 89.0006C289.38 88.6867 288.968 88.6867 288.695 88.9827C288.423 89.2788 288.423 90.1278 288.161 90.2099C287.759 90.3347 286.031 87.7128 285.525 87.7984C282.854 89.4643 283.568 90.6308 284.722 92.7247" fill="#F7AAAC"/>
<mask id="mask10_872_3464" style="mask-type:luminance" maskUnits="userSpaceOnUse" x="287" y="93" width="33" height="17">
<path d="M317.926 103.422C314.781 106.95 304.39 111.791 298.84 108.267C295.939 105.83 285.053 96.602 287.365 94.6828C289.678 92.7637 291.31 93.3166 291.31 93.3166C291.31 93.3166 303.117 100.212 304.039 101.232C304.731 101.999 315.85 92.4426 319.489 94.0585C320.26 94.4153 320.135 103.451 317.93 103.422" fill="white"/>
</mask>
<g mask="url(#mask10_872_3464)">
<path d="M320.257 92.4392H285.049V111.788H320.257V92.4392Z" fill="url(#paint13_linear_872_3464)"/>
</g>
<mask id="mask11_872_3464" style="mask-type:luminance" maskUnits="userSpaceOnUse" x="312" y="93" width="29" height="44">
<path d="M320.131 93.2349H330.408C333.173 93.2349 336.687 94.0018 338.164 96.7735C341.617 103.259 339.598 117.684 339.469 133.63C335.643 137.91 318.389 137.472 312.243 134.011L312.164 98.4358C312.602 97.7723 316.467 93.2349 320.131 93.2349Z" fill="white"/>
</mask>
<g mask="url(#mask11_872_3464)">
<path d="M341.617 93.2349H312.164V137.907H341.617V93.2349Z" fill="url(#paint14_linear_872_3464)"/>
</g>
<path d="M177.245 33.4735C175.174 31.4139 172.448 30.1325 169.534 29.8475C166.619 29.5625 163.695 30.2915 161.26 31.9103C158.825 33.5292 157.03 35.9378 156.18 38.7258C155.329 41.5138 155.477 44.5089 156.597 47.2009C157.717 49.8929 159.741 52.1152 162.323 53.4895C164.906 54.8637 167.887 55.3048 170.76 54.7376C173.633 54.1704 176.219 52.6301 178.078 50.3789C179.937 48.1277 180.954 45.305 180.956 42.3914C180.959 40.735 180.633 39.0943 179.996 37.5638C179.359 36.0333 178.424 34.6432 177.245 33.4735ZM168.281 28.7148C171.459 28.7158 174.538 29.8129 176.994 31.8192C179.45 33.8255 181.131 36.6168 181.75 39.7178C182.369 42.8187 181.889 46.0373 180.39 48.8252C178.892 51.6131 176.468 53.7978 173.532 55.0072C170.595 56.2166 167.328 56.3758 164.288 55.4577C161.247 54.5395 158.62 52.6009 156.854 49.972C155.089 47.3431 154.295 44.1867 154.606 41.0404C154.918 37.8941 156.317 34.9527 158.564 32.7172C159.841 31.4485 161.357 30.4433 163.026 29.7595C164.695 29.0757 166.483 28.7267 168.288 28.7327L168.281 28.7148Z" fill="white"/>
<path fill-rule="evenodd" clip-rule="evenodd" d="M165.57 44.5922L173.175 37.5719C173.552 37.261 174.034 37.1055 174.523 37.1374C175.011 37.1692 175.469 37.386 175.802 37.7431C176.134 38.1002 176.317 38.5706 176.312 39.0576C176.307 39.5446 176.115 40.0112 175.775 40.3615L166.71 48.7301L166.682 48.7515C166.3 49.0826 165.802 49.2497 165.296 49.2163C164.791 49.1829 164.319 48.9516 163.985 48.5731L160.242 44.3211C159.964 43.9364 159.841 43.4628 159.895 42.9925C159.95 42.5222 160.179 42.089 160.537 41.7773C160.895 41.4656 161.357 41.2977 161.832 41.3063C162.308 41.315 162.764 41.4995 163.11 41.824L165.57 44.5922Z" fill="white"/>
<path d="M288.244 55.7649C286.141 53.6728 283.374 52.3708 280.414 52.0808C277.455 51.7908 274.485 52.5306 272.013 54.1744C269.54 55.8181 267.716 58.2639 266.853 61.0952C265.99 63.9264 266.14 66.9679 267.278 69.7013C268.416 72.4348 270.472 74.6911 273.094 76.0858C275.717 77.4806 278.745 77.9274 281.662 77.3502C284.579 76.7731 287.204 75.2076 289.091 72.9205C290.978 70.6335 292.009 67.7664 292.009 64.8077C292.011 63.128 291.68 61.4643 291.034 59.9124C290.388 58.3605 289.439 56.951 288.244 55.7649ZM279.154 50.9385C282.38 50.9386 285.507 52.0516 288 54.0877C290.494 56.1239 292.201 58.9574 292.831 62.1052C293.46 65.2531 292.973 68.5207 291.452 71.3512C289.931 74.1817 287.47 76.4001 284.49 77.6282C281.509 78.8564 278.193 79.0184 275.105 78.0866C272.018 77.1549 269.351 75.187 267.559 72.5183C265.767 69.8496 264.96 66.6453 265.276 63.4512C265.592 60.2571 267.012 57.271 269.294 55.0015C270.587 53.711 272.124 52.6876 273.816 51.9903C275.508 51.293 277.322 50.9355 279.154 50.9385Z" fill="white"/>
<path fill-rule="evenodd" clip-rule="evenodd" d="M276.393 67.051L284.113 59.9167C284.49 59.5676 284.992 59.382 285.507 59.4007C286.022 59.4194 286.509 59.641 286.859 60.0166C287.21 60.3922 287.397 60.891 287.378 61.4035C287.359 61.9159 287.137 62.3999 286.759 62.749L277.558 71.2425L277.529 71.2675C277.141 71.6033 276.635 71.7727 276.122 71.7386C275.609 71.7045 275.13 71.4697 274.79 71.0855L270.986 66.7692C270.818 66.5783 270.689 66.3564 270.608 66.1162C270.526 65.8759 270.493 65.622 270.51 65.3689C270.527 65.1158 270.594 64.8686 270.707 64.6412C270.82 64.4139 270.977 64.2109 271.168 64.0439C271.36 63.8769 271.583 63.7491 271.825 63.6679C272.066 63.5867 272.322 63.5536 272.576 63.5704C272.83 63.5873 273.079 63.6539 273.308 63.7664C273.536 63.8788 273.74 64.0349 273.908 64.2258L276.393 67.051Z" fill="white"/>
<path d="M81.7403 114.413C79.5771 112.26 76.7307 110.921 73.686 110.622C70.6414 110.324 67.5868 111.085 65.0429 112.775C62.4989 114.466 60.6229 116.982 59.7346 119.895C58.8462 122.807 59.0005 125.936 60.171 128.748C61.3416 131.56 63.456 133.881 66.154 135.316C68.8521 136.751 71.9668 137.211 74.9675 136.618C77.9682 136.024 80.6692 134.414 82.6103 132.062C84.5514 129.709 85.6125 126.76 85.6128 123.716C85.6152 121.988 85.2742 120.277 84.6097 118.68C83.9451 117.083 82.97 115.633 81.7403 114.413ZM72.3888 109.447C75.7071 109.446 78.9232 110.589 81.4892 112.682C84.0552 114.775 85.8124 117.688 86.4613 120.926C87.1102 124.163 86.6107 127.524 85.0479 130.436C83.4851 133.348 80.9557 135.631 77.8906 136.896C74.8256 138.161 71.4145 138.329 68.2387 137.372C65.0629 136.416 62.3188 134.393 60.4739 131.649C58.629 128.905 57.7975 125.61 58.1211 122.325C58.4447 119.039 59.9034 115.967 62.2485 113.632C63.5787 112.304 65.1592 111.252 66.8993 110.534C68.6394 109.816 70.505 109.446 72.3888 109.447Z" fill="white"/>
<path fill-rule="evenodd" clip-rule="evenodd" d="M69.5533 126.021L77.492 118.69C77.8843 118.355 78.3918 118.184 78.9082 118.213C79.4245 118.242 79.9096 118.468 80.2616 118.845C80.6136 119.222 80.8052 119.72 80.7962 120.234C80.7873 120.749 80.5784 121.24 80.2135 121.604L70.7509 130.34L70.7222 130.365C70.3226 130.71 69.8024 130.884 69.2747 130.849C68.747 130.814 68.2544 130.574 67.9039 130.18L63.9919 125.739C63.6429 125.342 63.4665 124.824 63.5014 124.298C63.5364 123.773 63.7799 123.282 64.1784 122.935C64.5768 122.588 65.0976 122.412 65.6261 122.447C66.1547 122.482 66.6477 122.724 66.9967 123.12L69.5533 126.021Z" fill="white"/>
</g>
<defs>
<radialGradient id="paint0_radial_872_3464" cx="0" cy="0" r="1" gradientUnits="userSpaceOnUse" gradientTransform="translate(204.256 85.1873) rotate(0.458413) scale(190.488 57.9882)">
<stop stop-color="#2200FE"/>
<stop offset="0.526263" stop-color="#2200FE" stop-opacity="0.261849"/>
<stop offset="1" stop-color="#2200FE" stop-opacity="0"/>
</radialGradient>
<linearGradient id="paint1_linear_872_3464" x1="314.042" y1="99.602" x2="334.126" y2="92.8079" gradientUnits="userSpaceOnUse">
<stop stop-color="#000446"/>
<stop offset="1" stop-color="#03096B"/>
</linearGradient>
<linearGradient id="paint2_linear_872_3464" x1="160.783" y1="43.4544" x2="114.562" y2="29.1763" gradientUnits="userSpaceOnUse">
<stop stop-color="#002990"/>
<stop offset="0.22" stop-color="#0A4BAE"/>
<stop offset="0.58" stop-color="#1879D8"/>
<stop offset="0.85" stop-color="#2196F1"/>
<stop offset="1" stop-color="#24A1FB"/>
</linearGradient>
<linearGradient id="paint3_linear_872_3464" x1="139.448" y1="56.4258" x2="199.457" y2="39.5922" gradientUnits="userSpaceOnUse">
<stop stop-color="#DBE5FE"/>
<stop offset="0.380208" stop-color="#C4D8FD" stop-opacity="0.900833"/>
<stop offset="0.640625" stop-color="#DAE8FF" stop-opacity="0.871071"/>
<stop offset="1" stop-color="#C1D9FD" stop-opacity="0.83"/>
</linearGradient>
<linearGradient id="paint4_linear_872_3464" x1="111.77" y1="118.273" x2="113.676" y2="12.9123" gradientUnits="userSpaceOnUse">
<stop stop-color="#031542"/>
<stop offset="0.11" stop-color="#051C4C"/>
<stop offset="0.29" stop-color="#093066"/>
<stop offset="0.52" stop-color="#115191"/>
<stop offset="0.8" stop-color="#1B7DCB"/>
<stop offset="1" stop-color="#24A1FB"/>
</linearGradient>
<linearGradient id="paint5_linear_872_3464" x1="115.209" y1="25.3544" x2="114.819" y2="-4.02143" gradientUnits="userSpaceOnUse">
<stop stop-color="#031542"/>
<stop offset="0.11" stop-color="#051C4C"/>
<stop offset="0.29" stop-color="#093066"/>
<stop offset="0.52" stop-color="#115191"/>
<stop offset="0.8" stop-color="#1B7DCB"/>
<stop offset="1" stop-color="#24A1FB"/>
</linearGradient>
<linearGradient id="paint6_linear_872_3464" x1="137.247" y1="74.7318" x2="136.044" y2="38.1392" gradientUnits="userSpaceOnUse">
<stop stop-color="#002990"/>
<stop offset="0.22" stop-color="#0A4BAE"/>
<stop offset="0.58" stop-color="#1879D8"/>
<stop offset="0.85" stop-color="#2196F1"/>
<stop offset="1" stop-color="#24A1FB"/>
</linearGradient>
<linearGradient id="paint7_linear_872_3464" x1="117.192" y1="93.1669" x2="114.498" y2="35.7196" gradientUnits="userSpaceOnUse">
<stop stop-color="#002990"/>
<stop offset="0.22" stop-color="#0A4BAE"/>
<stop offset="0.58" stop-color="#1879D8"/>
<stop offset="0.85" stop-color="#2196F1"/>
<stop offset="1" stop-color="#24A1FB"/>
</linearGradient>
<linearGradient id="paint8_linear_872_3464" x1="243.998" y1="56.0941" x2="312.881" y2="56.8646" gradientUnits="userSpaceOnUse">
<stop stop-color="#DBE5FE"/>
<stop offset="0.380208" stop-color="#C4D8FD" stop-opacity="0.900833"/>
<stop offset="0.640625" stop-color="#DAE8FF" stop-opacity="0.871071"/>
<stop offset="1" stop-color="#C1D9FD" stop-opacity="0.83"/>
</linearGradient>
<linearGradient id="paint9_linear_872_3464" x1="47.6125" y1="158.182" x2="50.764" y2="108.974" gradientUnits="userSpaceOnUse">
<stop stop-color="#031542"/>
<stop offset="0.11" stop-color="#051C4C"/>
<stop offset="0.29" stop-color="#093066"/>
<stop offset="0.52" stop-color="#115191"/>
<stop offset="0.8" stop-color="#1B7DCB"/>
<stop offset="1" stop-color="#24A1FB"/>
</linearGradient>
<linearGradient id="paint10_linear_872_3464" x1="42.4363" y1="114.017" x2="95.1193" y2="144.22" gradientUnits="userSpaceOnUse">
<stop stop-color="#DBE5FE"/>
<stop offset="0.380208" stop-color="#C4D8FD" stop-opacity="0.900833"/>
<stop offset="0.640625" stop-color="#DAE8FF" stop-opacity="0.871071"/>
<stop offset="1" stop-color="#C1D9FD" stop-opacity="0.83"/>
</linearGradient>
<linearGradient id="paint11_linear_872_3464" x1="42.0616" y1="101.949" x2="36.5847" y2="64.3927" gradientUnits="userSpaceOnUse">
<stop stop-color="#031542"/>
<stop offset="0.11" stop-color="#051C4C"/>
<stop offset="0.29" stop-color="#093066"/>
<stop offset="0.52" stop-color="#115191"/>
<stop offset="0.8" stop-color="#1B7DCB"/>
<stop offset="1" stop-color="#24A1FB"/>
</linearGradient>
<linearGradient id="paint12_linear_872_3464" x1="326.983" y1="89.6495" x2="328.598" y2="67.6779" gradientUnits="userSpaceOnUse">
<stop stop-color="#031542"/>
<stop offset="0.11" stop-color="#051C4C"/>
<stop offset="0.29" stop-color="#093066"/>
<stop offset="0.52" stop-color="#115191"/>
<stop offset="0.8" stop-color="#1B7DCB"/>
<stop offset="1" stop-color="#24A1FB"/>
</linearGradient>
<linearGradient id="paint13_linear_872_3464" x1="301.116" y1="102.78" x2="318.349" y2="95.2456" gradientUnits="userSpaceOnUse">
<stop stop-color="#000446"/>
<stop offset="1" stop-color="#03096B"/>
</linearGradient>
<linearGradient id="paint14_linear_872_3464" x1="326.89" y1="122.307" x2="326.89" y2="95.4751" gradientUnits="userSpaceOnUse">
<stop stop-color="#000446"/>
<stop offset="1" stop-color="#03096B"/>
</linearGradient>
<clipPath id="clip0_872_3464">
<rect width="372" height="197.211" fill="white" transform="translate(0.5)"/>
</clipPath>
</defs>
</svg>
