<svg width="32" height="20" viewBox="0 0 32 20" fill="none" xmlns="http://www.w3.org/2000/svg">
<g id="Group 4372">
<g id="Group 4372_2">
<g id="Page-1">
<g id="walletconnect-logo-2">
<path id="WalletConnect_00000073703063438220642730000002917717552236472496_" d="M7.07575 4.31043C12.069 -0.578247 20.1672 -0.578247 25.1604 4.31043L25.7608 4.89486C26.0137 5.13968 26.0137 5.53457 25.7608 5.7794L23.7067 7.79331C23.5802 7.91178 23.3827 7.91178 23.2563 7.79331L22.4268 6.97985C18.9426 3.56804 13.2936 3.56804 9.80938 6.97985L8.9245 7.84859C8.79809 7.96706 8.60057 7.96706 8.47416 7.84859L6.41209 5.84258C6.15927 5.59775 6.15927 5.20287 6.41209 4.95804L7.07575 4.31043ZM29.4109 8.47251L31.2439 10.2653C31.4967 10.5101 31.4967 10.905 31.2439 11.1498L22.9877 19.2292C22.7349 19.474 22.3319 19.474 22.087 19.2292L16.2326 13.4954C16.1694 13.4323 16.0667 13.4323 16.0035 13.4954L10.1491 19.2292C9.89629 19.474 9.49335 19.474 9.24843 19.2292L0.992228 11.1498C0.739407 10.905 0.739407 10.5101 0.992228 10.2653L2.82518 8.47251C3.07801 8.22768 3.48094 8.22768 3.72586 8.47251L9.58026 14.2062C9.64346 14.2694 9.74617 14.2694 9.80938 14.2062L15.6638 8.47251C15.9166 8.22768 16.3195 8.22768 16.5645 8.47251L22.4188 14.2062C22.4821 14.2694 22.5848 14.2694 22.648 14.2062L28.5024 8.47251C28.7552 8.22768 29.1581 8.22768 29.4109 8.47251Z" fill="#3B99FC"/>
</g>
</g>
</g>
</g>
</svg>
