<svg width="25" height="28" viewBox="0 0 25 28" fill="none" xmlns="http://www.w3.org/2000/svg">
<g id="Group 4372">
<g id="Vector">
<path d="M5.48889 4.24999L12.7254 0.0154419L19.9618 4.24999L17.305 5.81571L12.7254 3.14687L8.14576 5.81571L5.48889 4.24999Z" fill="#FFC200"/>
<path d="M19.9618 9.62324L17.305 8.05753L12.7254 10.7264L8.14576 8.05753L5.48889 9.62324V12.7547L10.0685 15.4235V20.7612L12.7254 22.3269L15.3822 20.7612V15.4235L19.9618 12.7547V9.62324Z" fill="#FFC200"/>
<path d="M19.9618 18.1279V14.9965L17.305 16.5622V19.6936L19.9618 18.1279Z" fill="#FFC200"/>
<path d="M21.8496 19.231L17.27 21.8999V25.0669L24.5065 20.8323V12.3277L21.8496 13.8934V19.231Z" fill="#FFC200"/>
<path d="M19.1927 6.95441L21.8496 8.52012V11.6516L24.5065 10.0858V6.95441L21.8496 5.38869L19.1927 6.95441Z" fill="#FFC200"/>
<path d="M10.0685 23.0386V26.17L12.7254 27.7357L15.3822 26.17V23.0386L12.7254 24.6043L10.0685 23.0386Z" fill="#FFC200"/>
<path d="M5.48889 18.1279L8.14576 19.6936V16.5622L5.48889 14.9965V18.1279Z" fill="#FFC200"/>
<path d="M10.0685 6.95441L12.7254 8.52012L15.3822 6.95441L12.7254 5.38869L10.0685 6.95441Z" fill="#FFC200"/>
<path d="M3.60111 8.52012L6.25798 6.95441L3.60111 5.38869L0.944244 6.95441V10.0858L3.60111 11.6516V8.52012Z" fill="#FFC200"/>
<path d="M3.60111 13.8578L0.944244 12.2921V20.7612L8.18071 24.9957V21.8643L3.60111 19.1954V13.8578Z" fill="#FFC200"/>
</g>
</g>
</svg>
