<svg width="169" height="146" viewBox="0 0 169 146" fill="none" xmlns="http://www.w3.org/2000/svg">
<g clip-path="url(#clip0_3562_18665)">
<path d="M28.546 91.1339C28.546 91.1339 24.9621 93.1652 23.8354 95.3078C22.6174 97.491 21.4401 100.75 21.9074 102.294C22.3747 103.837 23.1767 102.933 23.1767 102.933C23.1767 102.933 21.248 105.979 22.9237 108.518C24.5994 111.056 24.5994 111.056 24.5994 111.056C24.5994 111.056 24.7515 109.675 25.188 108.933C25.188 108.933 25.6559 114.416 29.2504 115.116C32.8448 115.816 38.8049 115.683 40.9874 112.962L39.5354 112.404C39.5354 112.404 42.9065 113.094 45.5457 109.184C48.0936 105.315 45.5039 101.214 45.5039 101.214L44.9659 102.219C44.9659 102.219 45.5951 100.188 43.5537 96.8276C41.4717 93.3758 37.8666 89.9445 37.8666 89.9445L38.7097 92.0867C38.8011 92.0461 32.485 88.1787 28.546 91.1339Z" fill="white"/>
<path d="M41.2303 103.662C38.1544 107.328 33.2603 106.658 30.285 104.151C30.7014 104.841 30.4173 106.171 31.7576 106.232C26.092 106.781 24.8523 100.547 23.7854 95.4402C22.6587 97.5828 21.39 100.883 21.9487 102.385C22.416 103.929 23.218 103.025 23.218 103.025C23.218 103.025 21.2893 106.071 22.965 108.609C24.6408 111.148 24.6408 111.148 24.6408 111.148C24.6408 111.148 24.7522 109.675 25.1887 108.934C25.1887 108.934 25.6566 114.417 29.2511 115.117C32.8455 115.817 38.8056 115.684 40.9881 112.962L39.5361 112.404C39.5361 112.404 42.9072 113.094 45.5464 109.185C48.0943 105.316 45.5046 101.214 45.5046 101.214L44.9666 102.219C44.9666 102.219 45.5958 100.189 43.5544 96.8281C42.5494 98.2599 41.2398 99.4988 39.5951 100.23C43.6767 100.057 39.2503 102.901 41.2303 103.662Z" fill="#EAE9D8"/>
<path d="M30.2843 104.151C30.2031 103.968 30.0711 103.918 29.8984 103.775C29.9797 103.958 30.1117 104.009 30.2843 104.151Z" fill="#EAE9D8"/>
<path d="M123.941 37.8843C119.33 33.9151 107.633 31.2364 97.104 31.431C90.4223 26.7412 70.9481 27.7393 63.2521 29.6291C59.1807 30.5639 44.5504 36.3029 35.9728 48.7626C27.3951 61.2223 27.5119 93.2361 30.2639 95.7334C31.4215 96.8603 32.5485 96.6875 33.4217 96.1898C34.6603 95.5296 35.3505 94.1284 35.2386 92.646C35.1164 90.4021 35.9888 85.9649 44.4159 83.7501C46.2739 83.2523 47.9186 82.5209 49.2994 81.6881C52.8832 79.6569 57.3103 80.7527 59.575 84.1233C60.2047 85.0472 60.7937 85.8797 61.4742 86.6715C63.7185 89.504 65.5466 92.631 66.6945 95.951C69.5083 104.002 75.6212 107.413 75.6212 107.413C87.0031 106.182 142.077 54.5534 139.335 47.8932C136.542 41.365 130.054 43.2647 123.941 37.8843Z" fill="#D22129"/>
<path d="M129.566 41.1822C129.515 41.3142 129.515 41.3142 129.566 41.1822C115.953 62.0091 95.842 79.0498 74.8258 88.3943C68.7037 91.1164 70.3462 76.5967 72.985 69.7326C69.767 73.5711 68.4988 79.8258 63.9397 78.6792C53.4405 75.249 53.0322 61.5318 45.426 53.532C50.8702 65.7762 43.5823 80.3984 32.8605 81.8825C31.3781 81.9944 29.9972 81.8424 28.7077 81.6496C28.5566 88.9399 29.2784 94.7475 30.3954 95.783C31.5531 96.9098 32.6801 96.7371 33.5532 96.2394C34.7919 95.5792 35.4821 94.1779 35.3701 92.6955C35.2479 90.4517 36.1204 86.0145 44.5474 83.7997C46.4055 83.3018 48.0502 82.5705 49.4309 81.7377C53.0148 79.7065 57.4419 80.8023 59.7066 84.1729C60.3363 85.0968 60.9253 85.9293 61.6057 86.7211C63.8501 89.5536 65.6782 92.6806 66.8261 96.0006C69.6399 104.052 75.7528 107.462 75.7528 107.462C87.1346 106.232 142.209 54.603 139.466 47.9428C137.476 43.4654 133.739 42.938 129.566 41.1822Z" fill="#BF1D29"/>
<path d="M89.0765 123.645C89.0765 123.645 75.8759 116.601 74.3719 108.296C72.8678 99.9904 130.134 43.4468 141.212 46.9479C152.29 50.4491 155.703 59.1095 154.902 61.983C154.1 64.8566 112.19 84.8047 89.0765 123.645Z" fill="white"/>
<path d="M141.211 46.9473C140.947 46.8458 140.501 46.8256 140.145 46.7647C143.517 49.4244 146.502 52.6933 146.036 57.0594C146.128 62.9281 137.508 62.4928 133.833 67.5194C134.564 67.1943 135.935 66.5849 136.666 66.2599C131.469 75.2465 119 75.7562 114.128 85.4738C114.859 85.1488 116.23 84.5394 116.961 84.2144C111.469 90.815 99.7419 92.746 96.961 99.7828C94.3732 108.485 87.0739 114.466 79.0326 116.072C83.3993 120.478 88.9943 123.462 88.9943 123.462C112.108 84.6213 154.018 64.6732 154.82 61.7996C155.794 59.0682 152.289 50.4485 141.211 46.9473Z" fill="#EAE9D8"/>
<path opacity="0.2" d="M75.1716 31.3317C75.1716 31.3317 56.6109 29.9537 56.0441 41.478C55.4774 53.0023 90.778 34.6798 75.1716 31.3317Z" fill="white"/>
</g>
<defs>
<clipPath id="clip0_3562_18665">
<rect width="140.8" height="96.9" fill="white" transform="translate(0 57.2051) rotate(-23.9716)"/>
</clipPath>
</defs>
</svg>
