<svg width="12" height="10" viewBox="0 0 12 10" fill="none" xmlns="http://www.w3.org/2000/svg">
<path d="M9.88047 2.56812H2.30269C1.77955 2.56812 1.35547 2.9922 1.35547 3.51534V8.25145C1.35547 8.77459 1.77955 9.19867 2.30269 9.19867H9.88047C10.4036 9.19867 10.8277 8.77459 10.8277 8.25145V3.51534C10.8277 2.9922 10.4036 2.56812 9.88047 2.56812Z" stroke="#7AA7FF" stroke-width="0.947222" stroke-linecap="round" stroke-linejoin="round"/>
<path d="M7.98615 9.19858V1.62081C7.98615 1.36959 7.88636 1.12866 7.70872 0.951019C7.53108 0.77338 7.29015 0.673584 7.03893 0.673584H5.14449C4.89327 0.673584 4.65234 0.77338 4.4747 0.951019C4.29706 1.12866 4.19727 1.36959 4.19727 1.62081V9.19858" stroke="#7AA7FF" stroke-width="0.947222" stroke-linecap="round" stroke-linejoin="round"/>
</svg>
