<svg width="20" height="20" viewBox="0 0 20 20" fill="none" xmlns="http://www.w3.org/2000/svg">
<g clip-path="url(#clip0_1398_2996)">
<path d="M3.13086 5.62231H4.7143H17.3818" stroke="#000" stroke-width="1.58344" stroke-linecap="round" stroke-linejoin="round"/>
<path d="M7.09 5.62183V4.03839C7.09 3.61844 7.25683 3.21569 7.55378 2.91873C7.85073 2.62178 8.25349 2.45496 8.67344 2.45496H11.8403C12.2603 2.45496 12.663 2.62178 12.96 2.91873C13.2569 3.21569 13.4238 3.61844 13.4238 4.03839V5.62183M15.7989 5.62183V16.7059C15.7989 17.1259 15.6321 17.5286 15.3351 17.8256C15.0382 18.1225 14.6354 18.2893 14.2155 18.2893H6.29828C5.87833 18.2893 5.47557 18.1225 5.17862 17.8256C4.88167 17.5286 4.71484 17.1259 4.71484 16.7059V5.62183H15.7989Z" stroke="#000" stroke-width="1.58344" stroke-linecap="round" stroke-linejoin="round"/>
</g>
<defs>
<clipPath id="clip0_1398_2996">
<rect width="19.0013" height="19.0013" fill="white" transform="translate(0.755859 0.871094)"/>
</clipPath>
</defs>
</svg>