<svg width="9" height="11" viewBox="0 0 9 11" fill="none" xmlns="http://www.w3.org/2000/svg">
<path d="M4.97721 1.44092H1.42513C1.18961 1.44092 0.963741 1.53448 0.797205 1.70101C0.630668 1.86755 0.537109 2.09342 0.537109 2.32894V9.43311C0.537109 9.66862 0.630668 9.89449 0.797205 10.061C0.963741 10.2276 1.18961 10.3211 1.42513 10.3211H6.75326C6.98877 10.3211 7.21464 10.2276 7.38118 10.061C7.54772 9.89449 7.64128 9.66862 7.64128 9.43311V4.10498L4.97721 1.44092Z" stroke="#7AA7FF" stroke-width="0.888021" stroke-linecap="round" stroke-linejoin="round"/>
<path d="M4.97656 1.44092V4.10498H7.64062" stroke="#7AA7FF" stroke-width="0.888021" stroke-linecap="round" stroke-linejoin="round"/>
<path d="M5.86458 6.32495H2.3125" stroke="#7AA7FF" stroke-width="0.888021" stroke-linecap="round" stroke-linejoin="round"/>
<path d="M5.86458 8.10107H2.3125" stroke="#7AA7FF" stroke-width="0.888021" stroke-linecap="round" stroke-linejoin="round"/>
<path d="M3.20052 4.54907H2.75651H2.3125" stroke="#7AA7FF" stroke-width="0.888021" stroke-linecap="round" stroke-linejoin="round"/>
</svg>
