<svg xmlns="http://www.w3.org/2000/svg" width="17" height="17" viewBox="0 0 17 17" fill="none">
  <path d="M8.51508 1.21643C12.4625 1.21643 15.6618 4.41642 15.6618 8.36319C15.6618 12.3106 12.4625 15.51 8.51508 15.51C4.56831 15.51 1.36832 12.3103 1.36832 8.36319C1.36832 4.41642 4.56831 1.21643 8.51508 1.21643Z" fill="#F0F0F0"/>
  <path d="M8.60284 2.84143L8.52948 3.09062V10.3209L8.60284 10.3941L11.959 8.41025L8.60284 2.84143Z" fill="#343434"/>
  <path d="M8.60282 2.84143L5.24658 8.41025L8.60282 10.3941V6.88472V2.84143Z" fill="#8C8C8C"/>
  <path d="M8.60287 11.0297L8.56152 11.0801V13.6557L8.60287 13.7764L11.9611 9.04688L8.60287 11.0297Z" fill="#3C3C3B"/>
  <path d="M8.60285 13.7764V11.0297L5.24661 9.04688L8.60285 13.7764Z" fill="#8C8C8C"/>
  <path d="M8.60278 10.3942L11.9589 8.4103L8.60278 6.88477V10.3942Z" fill="#141414"/>
  <path d="M5.24661 8.4103L8.60285 10.3942V6.88477L5.24661 8.4103Z" fill="#393939"/>
</svg>