<svg width="12" height="11" viewBox="0 0 12 11" fill="none" xmlns="http://www.w3.org/2000/svg">
<path d="M6.09158 10.1944C8.70726 10.1944 10.8277 8.07396 10.8277 5.45828C10.8277 2.8426 8.70726 0.722168 6.09158 0.722168C3.4759 0.722168 1.35547 2.8426 1.35547 5.45828C1.35547 8.07396 3.4759 10.1944 6.09158 10.1944Z" stroke="#7AA7FF" stroke-width="0.947222" stroke-linecap="round" stroke-linejoin="round"/>
<path d="M4.9082 4.03967C5.01955 3.72314 5.23933 3.45624 5.52861 3.28622C5.8179 3.11621 6.15801 3.05406 6.48873 3.11079C6.81944 3.16751 7.11941 3.33945 7.3355 3.59615C7.55159 3.85285 7.66986 4.17774 7.66936 4.51329C7.66936 5.46051 6.24852 5.93412 6.24852 5.93412" stroke="#7AA7FF" stroke-width="0.947222" stroke-linecap="round" stroke-linejoin="round"/>
<path d="M6.28516 7.82837H6.28916" stroke="#7AA7FF" stroke-width="0.947222" stroke-linecap="round" stroke-linejoin="round"/>
</svg>
