<svg width="60" height="17" viewBox="0 0 60 17" fill="none" xmlns="http://www.w3.org/2000/svg">
<rect width="60" height="17" rx="2" fill="#E6EEF9"/>
<path opacity="0.8" d="M7.82657 4.62211H12.8472L12.8421 5.86706H9.32664V7.71919H12.3727V8.93863H9.32664V12H7.82657V4.62211ZM15.3271 12.102C14.9903 12.102 14.6876 12.0391 14.4189 11.9133C14.1501 11.7874 13.9376 11.6054 13.7811 11.3673C13.6246 11.1258 13.5464 10.8333 13.5464 10.4897C13.5464 9.91147 13.7624 9.47267 14.1944 9.17334C14.6264 8.8706 15.3084 8.71413 16.2404 8.70393L16.8986 8.69372V8.37738C16.8986 8.13588 16.8271 7.95049 16.6843 7.82123C16.5448 7.68858 16.3271 7.62395 16.0312 7.62735C15.8135 7.63075 15.606 7.68177 15.4087 7.78042C15.2148 7.87906 15.0822 8.05084 15.0107 8.29575H13.7709C13.7913 7.91478 13.9018 7.60184 14.1025 7.35693C14.3032 7.10862 14.5753 6.92494 14.9189 6.80588C15.2658 6.68343 15.6587 6.6222 16.0975 6.6222C16.6384 6.6222 17.0721 6.69023 17.3986 6.82629C17.7251 6.95895 17.9616 7.15114 18.1078 7.40285C18.2541 7.65116 18.3272 7.94709 18.3272 8.29064V12H17.0823L16.9598 11.0918C16.7795 11.4728 16.5533 11.7364 16.2812 11.8826C16.0125 12.0289 15.6944 12.102 15.3271 12.102ZM15.8271 11.1224C15.9632 11.1224 16.0941 11.0986 16.22 11.051C16.3492 11 16.4632 10.9336 16.5618 10.852C16.6639 10.7669 16.7455 10.6717 16.8067 10.5663C16.868 10.4608 16.8986 10.352 16.8986 10.2397V9.45907L16.3628 9.46927C16.1145 9.47267 15.8832 9.50329 15.6689 9.56111C15.4546 9.61554 15.2812 9.70568 15.1485 9.83153C15.0192 9.95739 14.9546 10.1275 14.9546 10.3418C14.9546 10.5867 15.0396 10.7789 15.2097 10.9183C15.3798 11.0544 15.5856 11.1224 15.8271 11.1224ZM21.5302 12.102C21.2853 12.102 21.0438 12.0646 20.8057 11.9898C20.571 11.915 20.3567 11.8044 20.1628 11.6581C19.969 11.5119 19.8125 11.3316 19.6934 11.1173C19.5778 10.903 19.52 10.6547 19.52 10.3724V6.72425H21.0098V10.1836C21.0098 10.4285 21.0898 10.6292 21.2496 10.7857C21.4095 10.9421 21.6442 11.0204 21.9537 11.0204C22.2463 11.0204 22.4776 10.9455 22.6476 10.7959C22.8211 10.6428 22.9079 10.4302 22.9079 10.1581V6.72425H24.3824V12H23.2599L23.0864 10.954C23.0252 11.2636 22.9096 11.5017 22.7395 11.6684C22.5728 11.8316 22.3806 11.9439 22.1629 12.0051C21.9486 12.0697 21.7377 12.102 21.5302 12.102ZM27.8557 6.6222C28.2979 6.6222 28.6789 6.71234 28.9986 6.89262C29.3218 7.0729 29.5752 7.31611 29.7589 7.62225C29.9459 7.92838 30.0531 8.27024 30.0803 8.6478H28.8405C28.8166 8.50834 28.7673 8.37058 28.6925 8.23452C28.6177 8.09506 28.5122 7.98111 28.3761 7.89267C28.2401 7.80083 28.07 7.75491 27.8659 7.75491C27.519 7.75491 27.2366 7.88927 27.0189 8.15799C26.8046 8.4233 26.6975 8.82808 26.6975 9.37233C26.6975 9.88596 26.8029 10.2941 27.0138 10.5969C27.2247 10.8962 27.519 11.0459 27.8965 11.0459C28.0972 11.0459 28.2639 10.9966 28.3966 10.8979C28.5326 10.7993 28.6381 10.6819 28.7129 10.5459C28.7877 10.4064 28.8354 10.2771 28.8558 10.1581H30.065C30.0412 10.522 29.9357 10.852 29.7487 11.1479C29.5616 11.4405 29.3065 11.6735 28.9833 11.8469C28.6636 12.017 28.2877 12.102 27.8557 12.102C27.3659 12.102 26.9288 11.9932 26.5444 11.7755C26.1601 11.5578 25.8573 11.2466 25.6362 10.8418C25.4185 10.4336 25.3097 9.94718 25.3097 9.38253C25.3097 8.83829 25.4151 8.35867 25.626 7.94369C25.8369 7.5287 26.1328 7.20556 26.5138 6.97426C26.8982 6.73955 27.3455 6.6222 27.8557 6.6222ZM32.3308 9.70398C32.3274 9.9727 32.3699 10.2074 32.4584 10.4081C32.5468 10.6054 32.6744 10.7584 32.841 10.8673C33.0111 10.9727 33.2152 11.0255 33.4533 11.0255C33.7084 11.0255 33.9312 10.971 34.1217 10.8622C34.3156 10.7533 34.45 10.5748 34.5248 10.3265H35.8667C35.8089 10.7006 35.6592 11.0204 35.4177 11.2857C35.1796 11.551 34.8905 11.7534 34.5503 11.8929C34.2101 12.0323 33.8564 12.102 33.489 12.102C32.9686 12.102 32.5094 11.9932 32.1114 11.7755C31.7168 11.5544 31.409 11.2432 31.1879 10.8418C30.9668 10.4404 30.8563 9.96759 30.8563 9.42335C30.8563 8.89611 30.9566 8.4216 31.1573 7.99981C31.358 7.57463 31.6488 7.23958 32.0298 6.99467C32.4141 6.74636 32.8751 6.6222 33.4125 6.6222C33.9499 6.6222 34.4006 6.73615 34.7646 6.96405C35.132 7.18855 35.4075 7.50319 35.5912 7.90797C35.7782 8.30935 35.8718 8.77366 35.8718 9.3009V9.70398H32.3308ZM32.3257 8.81618H34.4789C34.4789 8.60528 34.4398 8.4114 34.3615 8.23452C34.2833 8.05764 34.1642 7.91818 34.0044 7.81613C33.8479 7.71409 33.6506 7.66306 33.4125 7.66306C33.1812 7.66306 32.9839 7.71919 32.8206 7.83144C32.6608 7.94029 32.5383 8.08315 32.4533 8.26003C32.3682 8.43691 32.3257 8.62229 32.3257 8.81618ZM39.9511 7.76001H38.7776L38.7878 10.5714C38.7878 10.7006 38.8031 10.7976 38.8337 10.8622C38.8678 10.9234 38.9188 10.9642 38.9868 10.9846C39.0582 11.0017 39.1484 11.0102 39.2572 11.0102H39.9664V11.9286C39.8984 11.9592 39.7913 11.9881 39.645 12.0153C39.5021 12.0425 39.3015 12.0561 39.0429 12.0561C38.5803 12.0561 38.2215 11.9966 37.9664 11.8775C37.7146 11.7585 37.5395 11.5918 37.4408 11.3775C37.3422 11.1632 37.2929 10.9149 37.2929 10.6326V7.76001H36.4357V6.72425H37.3439L37.7163 5.13234H38.7776V6.71914H39.9511V7.76001Z" fill="#333333"/>
<path d="M44.0434 11.9988C44.0301 11.9811 44.0124 11.9634 44.0124 11.9412C44.0301 11.321 43.9503 10.692 44.0788 10.0762C44.3535 8.73391 45.1376 7.81247 46.4001 7.29416C46.8431 7.11253 47.3171 7.04607 47.7956 7.04164C48.2076 7.04164 48.6196 7.03721 49.0316 7.03721C49.1334 7.0638 49.129 6.99734 49.129 6.92646C49.129 6.74483 49.1334 6.5632 49.129 6.386C49.1246 6.29297 49.16 6.26639 49.2486 6.26639C49.448 6.27082 49.6429 6.26639 49.8422 6.26196C50.0062 6.26639 50.1701 6.26639 50.334 6.27082C50.334 7.3296 50.334 8.3928 50.334 9.45157C50.2232 9.456 50.1125 9.46043 50.0017 9.46486C49.1955 9.47372 48.3892 9.44271 47.5829 9.47815C47.0159 9.50473 46.502 10.0186 46.4444 10.5857C46.4001 11.0021 46.4267 11.4185 46.4223 11.8349C46.4223 11.959 46.3913 11.99 46.2672 11.99C45.523 11.99 44.7832 11.9944 44.0434 11.9988Z" fill="#668FFF"/>
<path d="M50.334 9.45161C50.334 8.39283 50.334 7.32963 50.334 6.27086L50.3428 6.262C50.5068 6.262 50.6707 6.262 50.8346 6.262C51.0162 6.262 51.1978 6.27086 51.3839 6.262C51.5035 6.25757 51.5522 6.28858 51.5434 6.41705C51.5301 6.57653 51.5478 6.73601 51.5389 6.89549C51.5301 7.02396 51.5788 7.05054 51.6984 7.05054C52.9521 7.04611 54.2058 7.05054 55.4595 7.04611C55.6101 7.04611 55.6589 7.07712 55.6544 7.2366C55.6456 7.92325 55.6456 8.61433 55.6544 9.30542C55.6544 9.42946 55.6323 9.47819 55.4905 9.47819C53.8115 9.47376 52.1326 9.47376 50.4536 9.47376C50.4137 9.46933 50.3739 9.45604 50.334 9.45161Z" fill="#0045FF"/>
<path d="M50.3296 6.27082C50.1657 6.26639 50.0018 6.26639 49.8379 6.26196C49.8423 6.04932 49.8423 5.83668 49.8468 5.62404C49.9309 5.65505 50.0107 5.69049 50.0948 5.71264C50.2898 5.7658 50.3341 5.73036 50.3341 5.52658C50.3341 5.03485 50.3341 4.54311 50.3341 4.05138C50.6131 4.04695 50.8391 4.1577 50.9986 4.3792C51.0827 4.49438 51.1403 4.48995 51.2511 4.43679C51.5302 4.31275 51.8092 4.18871 52.0972 4.08682C52.6377 3.89633 52.9788 4.01594 53.2933 4.48552C53.568 5.11902 53.1737 5.70378 52.6155 5.78352C52.363 5.82339 52.1282 5.72593 51.9023 5.63733C51.6631 5.5443 51.4283 5.43798 51.1935 5.33166C51.1359 5.30508 51.0872 5.2785 51.0473 5.35381C50.9941 5.46013 50.8878 5.52658 50.8169 5.61961C50.6707 5.67277 50.4891 5.69049 50.3872 5.79238C50.2676 5.90313 50.3518 6.09805 50.3429 6.25753C50.3385 6.26196 50.3296 6.27082 50.3296 6.27082Z" fill="#0045FF"/>
<path d="M50.3379 6.26201C50.3468 6.10253 50.2626 5.90761 50.3822 5.79685C50.4886 5.69939 50.6658 5.68167 50.812 5.62408C50.8164 5.83673 50.8208 6.04937 50.8297 6.26201C50.6658 6.26201 50.5019 6.26201 50.3379 6.26201Z" fill="#5A87FF"/>
<path d="M50.3335 4.05142C50.3335 4.54316 50.3335 5.03489 50.3335 5.52662C50.3335 5.7304 50.2892 5.76584 50.0943 5.71268C50.0101 5.69053 49.9304 5.65509 49.8462 5.62408C49.7709 5.54434 49.6867 5.46903 49.6247 5.376C49.5715 5.29626 49.5317 5.30069 49.4563 5.33613C49.2216 5.44245 48.9868 5.54877 48.7475 5.6418C48.4286 5.77027 48.1052 5.87659 47.7641 5.71268L47.7596 5.72154H47.7685C47.7508 5.71268 47.7331 5.69939 47.7198 5.69053C47.2059 5.30955 47.1084 4.73365 47.4894 4.30836C47.7508 4.01598 48.0742 3.94067 48.4507 4.05585C48.7874 4.15774 49.1064 4.31279 49.4298 4.45456C49.5184 4.49443 49.5715 4.51215 49.6424 4.41026C49.8019 4.1666 50.0455 4.06028 50.3335 4.05142Z" fill="#668FFF"/>
<path d="M45 11.9988C45.0176 12.0129 45.0422 12.0199 45.0527 12.0375C45.3833 12.5261 45.7032 13.0147 45.9318 13.5595C46.1955 14.1922 45.654 14.9303 45 14.8811C45 13.9215 45 12.9584 45 11.9988Z" fill="#F5F5F5"/>
<path d="M45 11.9988C45 12.961 45 13.9197 45 14.8819C44.8398 14.8925 44.6903 14.8468 44.5444 14.7801C44.1706 14.5624 43.9713 14.2498 44.0033 13.8144C44.0176 13.6318 44.103 13.4667 44.1813 13.3017C44.3237 12.9927 44.5159 12.7082 44.6939 12.4167C44.8042 12.2833 44.8754 12.1217 45 11.9988Z" fill="white"/>
<g clip-path="url(#clip0_3016_14935)">
<path fill-rule="evenodd" clip-rule="evenodd" d="M45.3369 13.6896L45.3369 13.6897L45.4111 13.6901C45.4195 13.6895 45.428 13.6895 45.4365 13.6902L45.6178 13.6912C45.6453 13.6928 45.6672 13.7158 45.6672 13.744C45.6672 13.7573 45.6623 13.7695 45.6543 13.7788L45.5661 13.9328C45.5654 13.9341 45.5647 13.9354 45.5639 13.9367L45.3457 14.3189C45.3161 14.3706 45.263 14.4 45.2079 14.4012L45.2079 14.4012L45.2053 14.4012C45.2039 14.4012 45.2025 14.4012 45.2011 14.4012L44.5554 14.3979H44.4834L44.4834 14.3966C44.5381 14.3889 44.5841 14.3538 44.6074 14.3055L44.6079 14.3055L44.9242 13.7492C44.942 13.7139 44.9783 13.6896 45.0202 13.6896L45.0173 13.6897L45.0174 13.6896H45.3369Z" fill="#2BBDF7"/>
<path fill-rule="evenodd" clip-rule="evenodd" d="M44.8313 13.4166L45.4013 13.4166C45.4288 13.4182 45.4507 13.4413 45.4507 13.4695C45.4507 13.4808 45.4472 13.4912 45.4412 13.4998L45.2874 13.7698L45.1239 14.0568L45.124 14.0568H45.1253L45.073 14.1484C45.0289 14.2256 45.0537 14.3239 45.128 14.3706L45.1326 14.3734C45.1536 14.3856 45.1761 14.3926 45.1987 14.3948L45.1987 14.3986L44.9292 14.3986L44.9291 14.3989H44.4618C44.4353 14.3984 44.4083 14.3916 44.3834 14.3776C44.3032 14.3327 44.2743 14.2305 44.3187 14.1495L44.6733 13.5026C44.7058 13.4433 44.7686 13.4117 44.8313 13.4166Z" fill="#2B6DEF"/>
<path fill-rule="evenodd" clip-rule="evenodd" d="M45.0186 13.6896L45.3324 13.6899L45.287 13.7696L45.1235 14.0566L45.1236 14.0566H45.1249L45.0726 14.1482C45.0285 14.2254 45.0533 14.3237 45.1276 14.3704L45.1323 14.3732C45.1532 14.3854 45.1757 14.3924 45.1983 14.3946L45.1983 14.3984L44.9288 14.3984L44.9287 14.3987L44.4824 14.3987C44.5319 14.3935 44.5784 14.3659 44.6063 14.3204L44.6095 14.3151L44.9396 13.7317C44.9583 13.7072 44.9871 13.691 45.0197 13.6895L45.0186 13.6896Z" fill="#001C52"/>
<path fill-rule="evenodd" clip-rule="evenodd" d="M45.0186 13.6896L45.3324 13.6899L45.287 13.7696L45.1235 14.0566L45.1236 14.0566H45.1249L45.0726 14.1482C45.0285 14.2254 45.0533 14.3237 45.1276 14.3704L45.1323 14.3732C45.1532 14.3854 45.1757 14.3924 45.1983 14.3946L45.1983 14.3984L44.9288 14.3984L44.9287 14.3987L44.4824 14.3987C44.5319 14.3935 44.5784 14.3659 44.6063 14.3204L44.6095 14.3151L44.9396 13.7317C44.9583 13.7072 44.9871 13.691 45.0197 13.6895L45.0186 13.6896Z" fill="#0CC19B" fill-opacity="0.5"/>
<path fill-rule="evenodd" clip-rule="evenodd" d="M45.0186 13.6896L45.3324 13.6899L45.287 13.7696L45.1235 14.0566L45.1236 14.0566H45.1249L45.0726 14.1482C45.0285 14.2254 45.0533 14.3237 45.1276 14.3704L45.1323 14.3732C45.1532 14.3854 45.1757 14.3924 45.1983 14.3946L45.1983 14.3984L44.9288 14.3984L44.9287 14.3987L44.4824 14.3987C44.5319 14.3935 44.5784 14.3659 44.6063 14.3204L44.6095 14.3151L44.9396 13.7317C44.9583 13.7072 44.9871 13.691 45.0197 13.6895L45.0186 13.6896Z" fill="#003CB2"/>
</g>
<path opacity="0.27" d="M45 11.9988C45.0176 12.0129 45.0422 12.0199 45.0527 12.0375C45.3833 12.5261 45.7032 13.0147 45.9318 13.5595C46.1955 14.1922 45.654 14.9303 45 14.8811C45 13.9215 45 12.9584 45 11.9988Z" fill="white"/>
<path opacity="0.27" d="M45 11.9988C45 12.961 45 13.9197 45 14.8819C44.8398 14.8925 44.6903 14.8468 44.5444 14.7801C44.1706 14.5624 43.9713 14.2498 44.0033 13.8144C44.0176 13.6318 44.103 13.4667 44.1813 13.3017C44.3237 12.9927 44.5159 12.7082 44.6939 12.4167C44.8042 12.2833 44.8754 12.1217 45 11.9988Z" fill="white"/>
<defs>
<clipPath id="clip0_3016_14935">
<rect width="1.41379" height="1.03585" fill="white" transform="translate(44.2773 13.3954)"/>
</clipPath>
</defs>
</svg>
