<svg width="33" height="23" viewBox="0 0 33 23" fill="none" xmlns="http://www.w3.org/2000/svg">
<path fill-rule="evenodd" clip-rule="evenodd" d="M24.5555 6.59558L24.5555 6.59653L26.2589 6.60572C26.4528 6.59135 26.6483 6.59218 26.8436 6.6087L31.0044 6.63101C31.6372 6.66757 32.1388 7.19649 32.1388 7.84387C32.1388 8.14982 32.0268 8.42931 31.8419 8.64268L29.8173 12.179C29.8012 12.2088 29.7848 12.2385 29.7679 12.2681L24.758 21.0417C24.0794 22.2301 22.859 22.9052 21.5944 22.9321L21.5945 22.9329L21.5356 22.9329C21.503 22.933 21.4704 22.9328 21.4378 22.9321L6.61303 22.8556H4.96094L4.96102 22.826C6.21609 22.6501 7.27205 21.8444 7.80673 20.7348L7.81869 20.735L15.0816 7.96354C15.4893 7.1518 16.3229 6.59558 17.285 6.59558L17.218 6.59701L17.2203 6.59558H24.5555Z" fill="#2BBDF7"/>
<path fill-rule="evenodd" clip-rule="evenodd" d="M12.9499 0.327855L26.0353 0.328065C26.6679 0.364668 27.1696 0.893565 27.1696 1.54092C27.1696 1.8004 27.089 2.04085 26.9517 2.23808L23.4202 8.43692L19.6661 15.025L19.6682 15.0244H19.6988L18.4982 17.1285C17.4861 18.9009 18.0545 21.1573 19.7611 22.2296L19.867 22.2938C20.3478 22.5744 20.8646 22.7349 21.3833 22.7844L21.3835 22.8728L15.1969 22.8727L15.1945 22.8782H4.46591C3.85674 22.8671 3.23818 22.7111 2.66589 22.3903C0.825353 21.3588 0.160359 19.014 1.18059 17.153L9.32233 2.30205C10.0685 0.940971 11.5095 0.215701 12.9499 0.327855Z" fill="#2B6DEF"/>
<path fill-rule="evenodd" clip-rule="evenodd" d="M17.2414 6.59407L24.4472 6.6015L23.4048 8.43162L19.6507 15.0197L19.6528 15.0191H19.6834L18.4828 17.1232C17.4708 18.8956 18.0391 21.152 19.7458 22.2243L19.8517 22.2885C20.3324 22.5691 20.8492 22.7296 21.368 22.7791L21.3681 22.8675L15.1816 22.8674L15.1791 22.8729L4.93262 22.8732C6.06857 22.7541 7.13501 22.1217 7.77764 21.0763L7.84989 20.9538L15.4283 7.55981C15.8582 6.99812 16.5196 6.62679 17.2679 6.59216L17.2414 6.59407Z" fill="#001C52"/>
<path fill-rule="evenodd" clip-rule="evenodd" d="M17.2414 6.59407L24.4472 6.6015L23.4048 8.43162L19.6507 15.0197L19.6528 15.0191H19.6834L18.4828 17.1232C17.4708 18.8956 18.0391 21.152 19.7458 22.2243L19.8517 22.2885C20.3324 22.5691 20.8492 22.7296 21.368 22.7791L21.3681 22.8675L15.1816 22.8674L15.1791 22.8729L4.93262 22.8732C6.06857 22.7541 7.13501 22.1217 7.77764 21.0763L7.84989 20.9538L15.4283 7.55981C15.8582 6.99812 16.5196 6.62679 17.2679 6.59216L17.2414 6.59407Z" fill="#0CC19B" fill-opacity="0.5"/>
<path fill-rule="evenodd" clip-rule="evenodd" d="M17.2414 6.59407L24.4472 6.6015L23.4048 8.43162L19.6507 15.0197L19.6528 15.0191H19.6834L18.4828 17.1232C17.4708 18.8956 18.0391 21.152 19.7458 22.2243L19.8517 22.2885C20.3324 22.5691 20.8492 22.7296 21.368 22.7791L21.3681 22.8675L15.1816 22.8674L15.1791 22.8729L4.93262 22.8732C6.06857 22.7541 7.13501 22.1217 7.77764 21.0763L7.84989 20.9538L15.4283 7.55981C15.8582 6.99812 16.5196 6.62679 17.2679 6.59216L17.2414 6.59407Z" fill="#003CB2"/>
</svg>
