<svg width="32" height="32" viewBox="0 0 32 32" fill="none" xmlns="http://www.w3.org/2000/svg">
<path d="M15.7592 0.00390625C24.4549 0.00390625 31.5027 7.05315 31.5027 15.7474C31.5027 24.4432 24.4549 31.491 15.7592 31.491C7.06486 31.491 0.015625 24.4425 0.015625 15.7474C0.015625 7.05315 7.06486 0.00390625 15.7592 0.00390625Z" fill="#F5AC37"/>
<path d="M16.3326 16.8584H22.3149C22.4425 16.8584 22.5027 16.8584 22.5119 16.6912C22.5608 16.0826 22.5608 15.4705 22.5119 14.8612C22.5119 14.7429 22.4531 14.694 22.3249 14.694H10.4191C10.2717 14.694 10.232 14.7429 10.232 14.881V16.6324C10.232 16.8584 10.232 16.8584 10.468 16.8584H16.3326ZM21.8438 12.6472C21.8608 12.6026 21.8608 12.5537 21.8438 12.5098C21.7439 12.2923 21.6256 12.0847 21.4882 11.8899C21.2813 11.5569 21.0376 11.2501 20.7599 10.9746C20.6288 10.8081 20.4772 10.6586 20.3071 10.5318C19.4556 9.807 18.4432 9.29407 17.355 9.03619C16.8059 8.91291 16.2448 8.85411 15.6823 8.85907H10.3985C10.2512 8.85907 10.2313 8.91787 10.2313 9.04611V12.5388C10.2313 12.6862 10.2313 12.7259 10.4184 12.7259H21.773C21.773 12.7259 21.8714 12.706 21.8913 12.6472H21.8431H21.8438ZM21.8438 18.9051C21.6766 18.8867 21.508 18.8867 21.3408 18.9051H10.429C10.2816 18.9051 10.232 18.9051 10.232 19.1021V22.5169C10.232 22.6742 10.232 22.7138 10.429 22.7138H15.4669C15.7078 22.7323 15.9487 22.7153 16.1846 22.665C16.9157 22.6125 17.6348 22.4538 18.3206 22.1924C18.57 22.106 18.8109 21.9933 19.0383 21.858H19.107C20.288 21.2438 21.2473 20.2788 21.8523 19.0943C21.8523 19.0943 21.921 18.9455 21.8438 18.9065V18.9051ZM8.25472 24.4843V24.4255V22.1329V21.3557V19.0433C8.25472 18.915 8.25472 18.8959 8.09744 18.8959H5.96212C5.84381 18.8959 5.79492 18.8959 5.79492 18.7386V16.869H8.0776C8.20512 16.869 8.25472 16.869 8.25472 16.7018V14.852C8.25472 14.7337 8.25472 14.7046 8.09744 14.7046H5.96212C5.84381 14.7046 5.79492 14.7046 5.79492 14.5473V12.8159C5.79492 12.7075 5.79492 12.6784 5.9522 12.6784H8.06768C8.21504 12.6784 8.25472 12.6784 8.25472 12.4914V7.1878C8.25472 7.03052 8.25472 6.99084 8.45167 6.99084H15.8311C16.3667 7.0121 16.8987 7.0709 17.4251 7.16796C18.5098 7.36846 19.5519 7.75599 20.5048 8.3093C21.1368 8.68125 21.7184 9.13041 22.2363 9.64759C22.626 10.0521 22.9774 10.49 23.2891 10.9561C23.5987 11.4287 23.8559 11.9338 24.0578 12.4616C24.0826 12.5991 24.2143 12.6919 24.3518 12.6685H26.113C26.339 12.6685 26.339 12.6685 26.3489 12.8853V14.4992C26.3489 14.6564 26.2901 14.6961 26.1322 14.6961H24.774C24.6366 14.6961 24.5969 14.6961 24.6068 14.8732C24.6607 15.4726 24.6607 16.0741 24.6068 16.6735C24.6068 16.8407 24.6068 16.8605 24.7946 16.8605H26.3482C26.417 16.949 26.3482 17.0376 26.3482 17.1269C26.3582 17.2409 26.3582 17.3564 26.3482 17.4705V18.6614C26.3482 18.8286 26.2994 18.8782 26.1513 18.8782H24.2916C24.1619 18.8534 24.0358 18.9363 24.006 19.0652C23.5633 20.2165 22.8548 21.2487 21.9394 22.0762C21.6051 22.3773 21.2537 22.6607 20.8867 22.9221C20.4928 23.1488 20.1095 23.3848 19.7057 23.5718C18.9625 23.9062 18.1832 24.1527 17.3833 24.3093C16.6238 24.4453 15.8537 24.507 15.0808 24.4963H8.25188V24.4864L8.25472 24.4843Z" fill="#FEFEFD"/>
</svg>
