<svg width="43" height="32" viewBox="0 0 43 32" fill="none" xmlns="http://www.w3.org/2000/svg">
<path fill-rule="evenodd" clip-rule="evenodd" d="M31.728 8.81006L31.7279 8.8113L33.9501 8.82329C34.2029 8.80454 34.4579 8.80562 34.7127 8.82717L40.1402 8.85628C40.9657 8.90397 41.6201 9.59391 41.6201 10.4384C41.6201 10.8375 41.4739 11.2021 41.2328 11.4804L38.5917 16.0933C38.5708 16.1322 38.5494 16.171 38.5273 16.2095L31.9922 27.6542C31.107 29.2045 29.5151 30.0851 27.8654 30.1201L27.8656 30.1212L27.7887 30.1212C27.7462 30.1214 27.7037 30.1211 27.6612 30.1202L8.32303 30.0204H6.16797L6.16808 29.9818C7.80525 29.7523 9.18269 28.7014 9.88015 27.2538L9.89575 27.2542L19.3698 10.5945C19.9017 9.53562 20.989 8.81006 22.244 8.81006L22.1566 8.81192L22.1596 8.81006H31.728Z" fill="#2BBDF7"/>
<path fill-rule="evenodd" clip-rule="evenodd" d="M16.5903 0.635319L33.6595 0.635594C34.4847 0.68334 35.139 1.37326 35.139 2.21769C35.139 2.55618 35.0339 2.86983 34.8549 3.1271L30.2482 11.2132L25.3512 19.8069L25.3539 19.8061H25.3938L23.8277 22.5509C22.5076 24.8628 23.2489 27.8062 25.4752 29.205L25.6133 29.2887C26.2405 29.6548 26.9146 29.8641 27.5913 29.9286L27.5914 30.044L19.5214 30.0438L19.5182 30.051H5.52339C4.72876 30.0365 3.92189 29.833 3.17537 29.4146C0.774483 28.069 -0.0929653 25.0103 1.23787 22.5828L11.8583 3.21055C12.8317 1.4351 14.7114 0.489021 16.5903 0.635319Z" fill="#2B6DEF"/>
<path fill-rule="evenodd" clip-rule="evenodd" d="M22.1885 8.81004L31.588 8.81974L30.2283 11.207L25.3312 19.8008L25.334 19.8H25.3739L23.8078 22.5447C22.4877 24.8567 23.229 27.8001 25.4553 29.1989L25.5934 29.2825C26.2206 29.6486 26.8947 29.8579 27.5714 29.9225L27.5715 30.0379L19.5015 30.0377L19.4983 30.0449L6.13232 30.0453C7.61411 29.8899 9.00523 29.0651 9.8435 27.7013L9.93775 27.5415L19.8234 10.0698C20.3841 9.3371 21.2469 8.85272 22.2231 8.80756L22.1885 8.81004Z" fill="white"/>
<path fill-rule="evenodd" clip-rule="evenodd" d="M22.1885 8.81004L31.588 8.81974L30.2283 11.207L25.3312 19.8008L25.334 19.8H25.3739L23.8078 22.5447C22.4877 24.8567 23.229 27.8001 25.4553 29.1989L25.5934 29.2825C26.2206 29.6486 26.8947 29.8579 27.5714 29.9225L27.5715 30.0379L19.5015 30.0377L19.4983 30.0449L6.13232 30.0453C7.61411 29.8899 9.00523 29.0651 9.8435 27.7013L9.93775 27.5415L19.8234 10.0698C20.3841 9.3371 21.2469 8.85272 22.2231 8.80756L22.1885 8.81004Z" fill="#0CC19B" fill-opacity="0.5"/>
<path fill-rule="evenodd" clip-rule="evenodd" d="M22.1885 8.81004L31.588 8.81974L30.2283 11.207L25.3312 19.8008L25.334 19.8H25.3739L23.8078 22.5447C22.4877 24.8567 23.229 27.8001 25.4553 29.1989L25.5934 29.2825C26.2206 29.6486 26.8947 29.8579 27.5714 29.9225L27.5715 30.0379L19.5015 30.0377L19.4983 30.0449L6.13232 30.0453C7.61411 29.8899 9.00523 29.0651 9.8435 27.7013L9.93775 27.5415L19.8234 10.0698C20.3841 9.3371 21.2469 8.85272 22.2231 8.80756L22.1885 8.81004Z" fill="#003CB2"/>
</svg>
