<svg width="274" height="56" viewBox="0 0 274 56" fill="none" xmlns="http://www.w3.org/2000/svg">
<path d="M104.716 47.0548C100.069 47.0548 96.396 45.7796 93.6975 43.2292C90.9991 40.6788 89.6499 37.0595 89.6499 32.3713V11.9496H98.6446V31.5837C98.6446 33.9841 99.1693 35.8219 100.219 37.097C101.306 38.3722 102.805 39.0098 104.716 39.0098C106.59 39.0098 108.052 38.3722 109.101 37.097C110.188 35.8219 110.731 33.9841 110.731 31.5837V11.9496H119.726V32.4276C119.726 37.0783 118.377 40.6788 115.678 43.2292C112.98 45.7796 109.326 47.0548 104.716 47.0548Z" fill="black"/>
<path d="M123.733 46.4922V21.1759H132.559V23.37C134.208 21.5322 136.476 20.6134 139.362 20.6134C142.135 20.6134 144.309 21.4572 145.883 23.145C147.494 24.7952 148.3 27.0456 148.3 29.896V46.4922H139.53V32.0338C139.53 30.9461 139.249 30.0835 138.687 29.4459C138.125 28.7708 137.3 28.4333 136.213 28.4333C135.314 28.4333 134.527 28.677 133.852 29.1646C133.215 29.6522 132.784 30.3273 132.559 31.1899V46.4922H123.733Z" fill="black"/>
<path d="M161.149 21.1759V46.4922H152.323V21.1759H161.149ZM161.767 14.3124C161.767 15.7001 161.28 16.844 160.306 17.7442C159.331 18.6068 158.151 19.0381 156.764 19.0381C155.377 19.0381 154.197 18.6068 153.222 17.7442C152.248 16.844 151.761 15.7001 151.761 14.3124C151.761 12.8872 152.248 11.7433 153.222 10.8807C154.197 9.98052 155.377 9.53046 156.764 9.53046C158.151 9.53046 159.331 9.98052 160.306 10.8807C161.28 11.7433 161.767 12.8872 161.767 14.3124Z" fill="black"/>
<path d="M165.601 46.4922V11.9496H174.651V38.6723H190.111V46.4922H165.601Z" fill="black"/>
<path d="M208.596 37.6596H216.748C216.298 40.5851 215.024 42.8917 212.925 44.5794C210.826 46.2297 208.146 47.0548 204.886 47.0548C201.026 47.0548 197.915 45.8358 195.554 43.398C193.193 40.9601 192.012 37.7722 192.012 33.8341C192.012 29.9335 193.211 26.7643 195.61 24.3264C198.009 21.851 201.044 20.6134 204.717 20.6134C208.54 20.6134 211.519 21.776 213.656 24.1014C215.792 26.4267 216.86 29.5022 216.86 33.3277V35.5218H200.501C200.801 38.6348 202.262 40.1913 204.886 40.1913C206.872 40.1913 208.109 39.3474 208.596 37.6596ZM204.717 27.4769C202.581 27.4769 201.232 28.6958 200.669 31.1337H208.315C208.24 30.046 207.884 29.1646 207.247 28.4895C206.61 27.8144 205.766 27.4769 204.717 27.4769Z" fill="black"/>
<path d="M219.645 46.4922V21.1759H228.471V23.37C230.12 21.5322 232.387 20.6134 235.273 20.6134C238.047 20.6134 240.22 21.4572 241.794 23.145C243.406 24.7952 244.212 27.0456 244.212 29.896V46.4922H235.442V32.0338C235.442 30.9461 235.161 30.0835 234.599 29.4459C234.037 28.7708 233.212 28.4333 232.125 28.4333C231.226 28.4333 230.439 28.677 229.764 29.1646C229.127 29.6522 228.696 30.3273 228.471 31.1899V46.4922H219.645Z" fill="black"/>
<path d="M264.425 46.4922V44.4669C263.788 45.1795 262.888 45.7983 261.727 46.3234C260.602 46.811 259.422 47.0548 258.185 47.0548C254.662 47.0548 251.889 45.8171 249.865 43.3417C247.878 40.8289 246.885 37.6596 246.885 33.8341C246.885 30.0085 247.878 26.858 249.865 24.3827C251.889 21.8698 254.662 20.6134 258.185 20.6134C259.422 20.6134 260.602 20.8759 261.727 21.401C262.888 21.8885 263.788 22.4886 264.425 23.2012V9.92426H273.251V46.4922H264.425ZM264.425 37.1533V30.4586C264.088 29.7835 263.563 29.2209 262.851 28.7708C262.139 28.3207 261.37 28.0957 260.546 28.0957C259.047 28.0957 257.866 28.6395 257.004 29.7272C256.142 30.7774 255.711 32.1463 255.711 33.8341C255.711 35.4843 256.142 36.8533 257.004 37.9409C257.866 38.9911 259.047 39.5162 260.546 39.5162C262.382 39.5162 263.675 38.7285 264.425 37.1533Z" fill="black"/>
<path fill-rule="evenodd" clip-rule="evenodd" d="M56.892 16.1052L56.8918 16.1074L60.872 16.1289C61.3248 16.0953 61.7816 16.0972 62.238 16.1358L71.9595 16.188C73.4381 16.2734 74.6102 17.5092 74.6102 19.0217C74.6102 19.7366 74.3484 20.3896 73.9165 20.8881L69.1858 29.1506C69.1484 29.2203 69.11 29.2897 69.0706 29.3588L57.3652 49.858C55.7795 52.6348 52.9282 54.2121 49.9734 54.2749L49.9737 54.2768L49.836 54.2767C49.7599 54.2771 49.6838 54.2765 49.6076 54.2749L14.9699 54.0962H11.1099L11.1101 54.0271C14.0425 53.616 16.5097 51.7336 17.759 49.1409L17.7869 49.1416L34.7565 19.3014C35.7091 17.4048 37.6567 16.1052 39.9046 16.1052L39.748 16.1085L39.7534 16.1052H56.892Z" fill="#2BBDF7"/>
<path fill-rule="evenodd" clip-rule="evenodd" d="M29.7781 1.46311L60.3518 1.4636C61.8299 1.54912 63.0018 2.78487 63.0018 4.29739C63.0018 4.90367 62.8135 5.46548 62.4928 5.92629L54.2416 20.4097L45.4702 35.8024L45.4752 35.801H45.5466L42.7415 40.7173C40.3769 44.8584 41.7048 50.1305 45.6923 52.6359L45.9398 52.7858C47.0631 53.4415 48.2705 53.8164 49.4826 53.932L49.4829 54.1387L35.0282 54.1384L35.0224 54.1513H9.95553C8.53222 54.1253 7.08698 53.7608 5.74984 53.0114C1.44948 50.6012 -0.104253 45.1226 2.27948 40.7745L21.3024 6.07575C23.0458 2.89564 26.4126 1.20107 29.7781 1.46311Z" fill="#2B6DEF"/>
<path fill-rule="evenodd" clip-rule="evenodd" d="M39.806 16.1055L56.642 16.1228L54.2066 20.3988L45.4352 35.7916L45.4402 35.7902H45.5116L42.7065 40.7065C40.3419 44.8475 41.6698 50.1196 45.6573 52.625L45.9048 52.775C47.0281 53.4307 48.2355 53.8056 49.4476 53.9212L49.4479 54.1279L34.9932 54.1276L34.9874 54.1405L11.0469 54.1412C13.701 53.8629 16.1927 52.3854 17.6942 49.9426L17.863 49.6565L35.5698 18.3619C36.5741 17.0495 38.1195 16.1819 39.8679 16.101L39.806 16.1055Z" fill="black"/>
<path fill-rule="evenodd" clip-rule="evenodd" d="M39.806 16.1055L56.642 16.1228L54.2066 20.3988L45.4352 35.7916L45.4402 35.7902H45.5116L42.7065 40.7065C40.3419 44.8475 41.6698 50.1196 45.6573 52.625L45.9048 52.775C47.0281 53.4307 48.2355 53.8056 49.4476 53.9212L49.4479 54.1279L34.9932 54.1276L34.9874 54.1405L11.0469 54.1412C13.701 53.8629 16.1927 52.3854 17.6942 49.9426L17.863 49.6565L35.5698 18.3619C36.5741 17.0495 38.1195 16.1819 39.8679 16.101L39.806 16.1055Z" fill="#0CC19B" fill-opacity="0.5"/>
<path fill-rule="evenodd" clip-rule="evenodd" d="M39.806 16.1055L56.642 16.1228L54.2066 20.3988L45.4352 35.7916L45.4402 35.7902H45.5116L42.7065 40.7065C40.3419 44.8475 41.6698 50.1196 45.6573 52.625L45.9048 52.775C47.0281 53.4307 48.2355 53.8056 49.4476 53.9212L49.4479 54.1279L34.9932 54.1276L34.9874 54.1405L11.0469 54.1412C13.701 53.8629 16.1927 52.3854 17.6942 49.9426L17.863 49.6565L35.5698 18.3619C36.5741 17.0495 38.1195 16.1819 39.8679 16.101L39.806 16.1055Z" fill="#003CB2"/>
</svg>
