<svg width="29" height="21" viewBox="0 0 29 21" fill="none" xmlns="http://www.w3.org/2000/svg">
<path fill-rule="evenodd" clip-rule="evenodd" d="M21.4134 5.97852L21.4133 5.97935L22.913 5.98744C23.0836 5.97479 23.2557 5.97552 23.4276 5.99007L27.0904 6.00971C27.6475 6.04189 28.0891 6.5075 28.0891 7.0774C28.0891 7.34673 27.9905 7.59277 27.8277 7.7806L26.0454 10.8937C26.0313 10.9199 26.0168 10.9461 26.0019 10.9721L21.5917 18.6956C20.9943 19.7418 19.92 20.3361 18.8067 20.3597L18.8068 20.3605L18.7549 20.3604C18.7263 20.3606 18.6976 20.3604 18.6689 20.3597L5.61842 20.2924H4.16406L4.16414 20.2664C5.26899 20.1115 6.19856 19.4023 6.66925 18.4254L6.67977 18.4257L13.0734 7.18275C13.4323 6.46816 14.1661 5.97852 15.0131 5.97852L14.9541 5.97977L14.9561 5.97852H21.4134Z" fill="#2BBDF7"/>
<path fill-rule="evenodd" clip-rule="evenodd" d="M11.1978 0.461875L22.7171 0.462061C23.274 0.494282 23.7156 0.959876 23.7156 1.52975C23.7156 1.75818 23.6446 1.96985 23.5238 2.14347L20.415 7.60038L17.1102 13.3999L17.112 13.3994H17.139L16.0821 15.2517C15.1912 16.8119 15.6915 18.7983 17.1939 19.7423L17.2871 19.7987C17.7103 20.0458 18.1653 20.187 18.6219 20.2306L18.622 20.3085L13.1759 20.3084L13.1738 20.3132H3.7293C3.19304 20.3034 2.64852 20.1661 2.14472 19.8837C0.524474 18.9757 -0.0609281 16.9115 0.83719 15.2733L8.00446 2.19978C8.66133 1.00161 9.92986 0.363145 11.1978 0.461875Z" fill="#2B6DEF"/>
<path fill-rule="evenodd" clip-rule="evenodd" d="M14.9762 5.97897L21.3195 5.98552L20.4019 7.59659L17.0971 13.3961L17.099 13.3956H17.1259L16.069 15.2479C15.1781 16.8081 15.6784 18.7945 17.1808 19.7385L17.274 19.7949C17.6973 20.042 18.1522 20.1833 18.6089 20.2268L18.609 20.3047L13.1629 20.3046L13.1607 20.3094L4.14062 20.3097C5.14062 20.2049 6.07942 19.6482 6.64513 18.7278L6.70874 18.62L13.3801 6.82912C13.7585 6.33466 14.3408 6.00777 14.9995 5.97729L14.9762 5.97897Z" fill="white"/>
<path fill-rule="evenodd" clip-rule="evenodd" d="M14.9762 5.97897L21.3195 5.98552L20.4019 7.59659L17.0971 13.3961L17.099 13.3956H17.1259L16.069 15.2479C15.1781 16.8081 15.6784 18.7945 17.1808 19.7385L17.274 19.7949C17.6973 20.042 18.1522 20.1833 18.6089 20.2268L18.609 20.3047L13.1629 20.3046L13.1607 20.3094L4.14062 20.3097C5.14062 20.2049 6.07942 19.6482 6.64513 18.7278L6.70874 18.62L13.3801 6.82912C13.7585 6.33466 14.3408 6.00777 14.9995 5.97729L14.9762 5.97897Z" fill="#0CC19B" fill-opacity="0.5"/>
<path fill-rule="evenodd" clip-rule="evenodd" d="M14.9762 5.97897L21.3195 5.98552L20.4019 7.59659L17.0971 13.3961L17.099 13.3956H17.1259L16.069 15.2479C15.1781 16.8081 15.6784 18.7945 17.1808 19.7385L17.274 19.7949C17.6973 20.042 18.1522 20.1833 18.6089 20.2268L18.609 20.3047L13.1629 20.3046L13.1607 20.3094L4.14062 20.3097C5.14062 20.2049 6.07942 19.6482 6.64513 18.7278L6.70874 18.62L13.3801 6.82912C13.7585 6.33466 14.3408 6.00777 14.9995 5.97729L14.9762 5.97897Z" fill="#003CB2"/>
</svg>
