<svg width="18" height="18" viewBox="0 0 18 18" fill="none" xmlns="http://www.w3.org/2000/svg">
<path d="M18 9.26577C17.8511 10.8768 17.2465 12.4122 16.2569 13.6921C15.2672 14.9721 13.9336 15.9437 12.4119 16.4934C10.8902 17.043 9.24341 17.1479 7.66427 16.7958C6.08513 16.4437 4.63893 15.6492 3.49489 14.5051C2.35084 13.3611 1.55628 11.9149 1.20417 10.3357C0.852061 8.75659 0.956966 7.10983 1.50661 5.58814C2.05626 4.06644 3.02791 2.73275 4.30788 1.74313C5.58784 0.753508 7.12318 0.148882 8.73423 0C7.79101 1.27607 7.33713 2.8483 7.45513 4.43074C7.57314 6.01317 8.2552 7.50069 9.37725 8.62275C10.4993 9.7448 11.9868 10.4269 13.5693 10.5449C15.1517 10.6629 16.7239 10.209 18 9.26577Z" fill="#4b2eff"/>
</svg>
