<svg width="312" height="182" viewBox="0 0 312 182" fill="none" xmlns="http://www.w3.org/2000/svg">
<g clip-path="url(#clip0_2603_3406)">
<path d="M36.1822 63.9091C36.1822 64.1858 36.0726 64.4511 35.8775 64.6468C35.6824 64.8424 35.4178 64.9523 35.1419 64.9523C34.866 64.9523 34.6014 64.8424 34.4063 64.6468C34.2112 64.4511 34.1016 64.1858 34.1016 63.9091C34.1016 63.6325 34.2112 63.3671 34.4063 63.1715C34.6014 62.9759 34.866 62.866 35.1419 62.866C35.4178 62.866 35.6824 62.9759 35.8775 63.1715C36.0726 63.3671 36.1822 63.6325 36.1822 63.9091Z" fill="#9A8BFA"/>
<path opacity="0.3" d="M79.8072 18.0308C80.9477 18.0308 81.8722 17.1037 81.8722 15.9601C81.8722 14.8165 80.9477 13.8894 79.8072 13.8894C78.6667 13.8894 77.7422 14.8165 77.7422 15.9601C77.7422 17.1037 78.6667 18.0308 79.8072 18.0308Z" fill="#9A8BFA"/>
<path opacity="0.3" d="M1.15995 148.828C1.80057 148.828 2.3199 148.307 2.3199 147.665C2.3199 147.022 1.80057 146.502 1.15995 146.502C0.519326 146.502 0 147.022 0 147.665C0 148.307 0.519326 148.828 1.15995 148.828Z" fill="#9A8BFA"/>
<path d="M126.439 4.62088C126.438 4.90957 126.323 5.18605 126.119 5.39019C125.916 5.59433 125.64 5.70962 125.352 5.71099C125.063 5.71099 124.786 5.59631 124.582 5.39202C124.377 5.18774 124.261 4.91047 124.26 4.62088C124.26 4.47728 124.288 4.3351 124.343 4.20251C124.398 4.06991 124.479 3.9495 124.58 3.84821C124.682 3.74691 124.802 3.66673 124.934 3.61225C125.067 3.55778 125.209 3.53009 125.352 3.53077C125.64 3.53077 125.917 3.64562 126.121 3.85006C126.325 4.05449 126.439 4.33176 126.439 4.62088Z" fill="#140095"/>
<path opacity="0.3" d="M199.678 15.2091C199.733 15.4867 199.719 15.7736 199.637 16.0444C199.555 16.3152 199.408 16.5616 199.208 16.7617C199.008 16.9618 198.763 17.1095 198.493 17.1917C198.223 17.2739 197.936 17.288 197.66 17.2328C197.326 17.1672 197.02 17.0038 196.779 16.7633C196.538 16.5228 196.374 16.216 196.307 15.8819C196.252 15.6036 196.267 15.3161 196.349 15.0447C196.431 14.7732 196.579 14.5263 196.779 14.3257C196.979 14.1251 197.225 13.9771 197.496 13.8946C197.766 13.8122 198.053 13.7979 198.331 13.853C198.664 13.9199 198.97 14.0845 199.21 14.3259C199.449 14.5673 199.612 14.8747 199.678 15.2091Z" fill="#9A8BFA"/>
<path opacity="0.3" d="M215.968 171.308C215.967 171.765 215.785 172.203 215.462 172.526C215.14 172.848 214.703 173.029 214.247 173.029C213.792 173.029 213.355 172.848 213.033 172.525C212.711 172.203 212.53 171.765 212.53 171.308C212.53 170.851 212.711 170.413 213.033 170.089C213.354 169.766 213.791 169.583 214.247 169.582C214.703 169.582 215.141 169.764 215.464 170.087C215.787 170.411 215.968 170.85 215.968 171.308Z" fill="#4B2EFF"/>
<path d="M258.012 38.8472C258.696 38.8472 259.25 38.2915 259.25 37.6059C259.25 36.9203 258.696 36.3645 258.012 36.3645C257.329 36.3645 256.774 36.9203 256.774 37.6059C256.774 38.2915 257.329 38.8472 258.012 38.8472Z" fill="#4B2EFF"/>
<path opacity="0.3" d="M77.3112 153.647C77.3112 154.046 77.1534 154.428 76.8725 154.71C76.5915 154.991 76.2105 155.149 75.8132 155.149C75.4168 155.148 75.0371 154.989 74.7573 154.708C74.4774 154.426 74.3203 154.045 74.3203 153.647C74.3203 153.25 74.4776 152.87 74.7576 152.589C75.0375 152.308 75.4172 152.15 75.8132 152.15C76.0096 152.15 76.2043 152.188 76.386 152.263C76.5678 152.338 76.733 152.448 76.8721 152.587C77.0113 152.726 77.1217 152.891 77.1971 153.073C77.2724 153.255 77.3112 153.45 77.3112 153.647Z" fill="#9A8BFA"/>
<path opacity="0.3" d="M266.034 70.8932C266.035 71.0902 265.996 71.2854 265.922 71.4676C265.847 71.6499 265.737 71.8155 265.598 71.9551C265.46 72.0946 265.295 72.2053 265.114 72.2809C264.932 72.3565 264.738 72.3953 264.541 72.3953C264.144 72.3953 263.763 72.2371 263.482 71.9554C263.201 71.6737 263.043 71.2916 263.043 70.8932C263.043 70.6962 263.082 70.5011 263.157 70.3191C263.232 70.1372 263.343 69.9719 263.482 69.8328C263.621 69.6938 263.786 69.5836 263.968 69.5087C264.15 69.4338 264.345 69.3956 264.541 69.3962C264.737 69.3956 264.932 69.4338 265.113 69.5088C265.295 69.5838 265.459 69.694 265.598 69.8332C265.737 69.9723 265.847 70.1376 265.922 70.3195C265.996 70.5015 266.035 70.6964 266.034 70.8932Z" fill="#4B2EFF"/>
<path d="M304.25 164.439C304.25 164.636 304.211 164.831 304.136 165.013C304.06 165.195 303.95 165.36 303.811 165.499C303.671 165.638 303.506 165.749 303.325 165.823C303.143 165.898 302.948 165.937 302.752 165.936C302.554 165.938 302.358 165.901 302.176 165.826C301.993 165.752 301.826 165.642 301.686 165.503C301.546 165.364 301.434 165.198 301.358 165.015C301.282 164.833 301.243 164.637 301.243 164.439C301.243 164.041 301.401 163.658 301.682 163.377C301.963 163.095 302.344 162.937 302.741 162.937C302.939 162.935 303.135 162.973 303.318 163.048C303.501 163.123 303.667 163.233 303.807 163.373C303.947 163.513 304.059 163.679 304.135 163.862C304.211 164.045 304.25 164.241 304.25 164.439Z" fill="#9A8BFA"/>
<path d="M221.544 144.52C221.544 144.738 221.458 144.948 221.304 145.102C221.15 145.257 220.941 145.344 220.723 145.344C220.504 145.344 220.295 145.257 220.14 145.103C219.985 144.948 219.897 144.739 219.896 144.52C219.897 144.301 219.985 144.091 220.14 143.937C220.295 143.782 220.504 143.696 220.723 143.696C220.941 143.696 221.15 143.782 221.304 143.937C221.458 144.091 221.544 144.301 221.544 144.52Z" fill="#4B2EFF"/>
<path opacity="0.3" d="M88.3584 39.228C89.2029 39.228 89.8876 38.5415 89.8876 37.6946C89.8876 36.8477 89.2029 36.1611 88.3584 36.1611C87.5138 36.1611 86.8291 36.8477 86.8291 37.6946C86.8291 38.5415 87.5138 39.228 88.3584 39.228Z" fill="#140095"/>
<path d="M228.89 24.1334C228.89 24.6868 228.671 25.2174 228.28 25.6087C227.89 26 227.361 26.2198 226.809 26.2198C226.257 26.2198 225.728 26 225.338 25.6087C224.948 25.2174 224.729 24.6868 224.729 24.1334C224.729 23.5801 224.948 23.0495 225.338 22.6582C225.728 22.2669 226.257 22.0471 226.809 22.0471C227.361 22.0471 227.89 22.2669 228.28 22.6582C228.671 23.0495 228.89 23.5801 228.89 24.1334Z" fill="#9A8BFA"/>
<path opacity="0.3" d="M309.935 127.986C311.076 127.986 312 127.059 312 125.915C312 124.771 311.076 123.844 309.935 123.844C308.795 123.844 307.87 124.771 307.87 125.915C307.87 127.059 308.795 127.986 309.935 127.986Z" fill="#9A8BFA"/>
<path opacity="0.3" d="M289.726 180.238C290.214 180.238 290.61 179.841 290.61 179.351C290.61 178.861 290.214 178.464 289.726 178.464C289.238 178.464 288.842 178.861 288.842 179.351C288.842 179.841 289.238 180.238 289.726 180.238Z" fill="#4B2EFF"/>
<path d="M260.489 115.744C260.489 116.297 260.27 116.828 259.88 117.219C259.49 117.611 258.961 117.83 258.409 117.83C257.857 117.83 257.328 117.611 256.938 117.219C256.547 116.828 256.328 116.297 256.328 115.744C256.328 115.191 256.547 114.66 256.938 114.269C257.328 113.878 257.857 113.658 258.409 113.658C258.961 113.658 259.49 113.878 259.88 114.269C260.27 114.66 260.489 115.191 260.489 115.744Z" fill="#4B2EFF"/>
<path d="M44.426 137.969C45.15 137.969 45.7368 137.38 45.7368 136.654C45.7368 135.928 45.15 135.34 44.426 135.34C43.7021 135.34 43.1152 135.928 43.1152 136.654C43.1152 137.38 43.7021 137.969 44.426 137.969Z" fill="#140095"/>
<path d="M285.254 68.6607H284.213V67.6175C284.213 67.4234 284.137 67.2371 284 67.0993C283.864 66.9615 283.679 66.8835 283.485 66.8821C283.291 66.8821 283.104 66.9596 282.966 67.0975C282.829 67.2354 282.752 67.4225 282.752 67.6175V68.6607H281.737C281.543 68.6607 281.356 68.7382 281.219 68.8761C281.081 69.014 281.004 69.2011 281.004 69.3961C281.005 69.5902 281.083 69.776 281.221 69.9128C281.358 70.0496 281.544 70.1263 281.737 70.1263H282.752V71.1695C282.753 71.3636 282.831 71.5493 282.968 71.6861C283.106 71.8229 283.291 71.8997 283.485 71.8997C283.678 71.8997 283.863 71.8228 284 71.6858C284.137 71.5489 284.213 71.3631 284.213 71.1695V70.1263H285.254C285.349 70.1263 285.444 70.1074 285.532 70.0707C285.621 70.034 285.701 69.9802 285.769 69.9124C285.836 69.8446 285.89 69.7641 285.926 69.6755C285.963 69.5869 285.982 69.492 285.982 69.3961C285.982 69.202 285.905 69.0157 285.769 68.8779C285.632 68.7401 285.447 68.662 285.254 68.6607Z" fill="#4B2EFF"/>
<path d="M284.791 152.735H283.751V151.691C283.751 151.498 283.674 151.312 283.537 151.175C283.401 151.038 283.216 150.961 283.022 150.961C282.829 150.961 282.643 151.038 282.506 151.175C282.368 151.312 282.29 151.497 282.289 151.691V152.735H281.249C281.056 152.735 280.87 152.811 280.734 152.948C280.597 153.085 280.521 153.271 280.521 153.465C280.521 153.658 280.597 153.844 280.734 153.981C280.87 154.118 281.056 154.195 281.249 154.195H282.289V155.238C282.289 155.433 282.366 155.62 282.504 155.758C282.641 155.896 282.828 155.974 283.022 155.974C283.216 155.972 283.401 155.894 283.538 155.756C283.674 155.619 283.751 155.432 283.751 155.238V154.195H284.791C284.984 154.195 285.169 154.118 285.306 153.981C285.442 153.844 285.519 153.658 285.519 153.465C285.519 153.271 285.442 153.085 285.306 152.948C285.169 152.811 284.984 152.735 284.791 152.735Z" fill="#4B2EFF"/>
<path opacity="0.3" d="M83.2978 51.9024H82.2575V50.8592C82.2575 50.6642 82.1803 50.4771 82.0427 50.3392C81.9052 50.2013 81.7186 50.1238 81.5241 50.1238C81.3305 50.1252 81.1453 50.2032 81.0089 50.341C80.8724 50.4788 80.7959 50.6651 80.7959 50.8592V51.9024H79.7556C79.5624 51.9024 79.3772 51.9793 79.2407 52.1163C79.1041 52.2532 79.0273 52.4389 79.0273 52.6326C79.0273 52.8263 79.1041 53.012 79.2407 53.1489C79.3772 53.2859 79.5624 53.3628 79.7556 53.3628H80.7959V54.406C80.7959 54.5996 80.8726 54.7854 81.0092 54.9223C81.1457 55.0593 81.331 55.1362 81.5241 55.1362C81.6218 55.1362 81.7184 55.1167 81.8084 55.0787C81.8984 55.0408 81.98 54.9852 82.0483 54.9153C82.1166 54.8453 82.1703 54.7624 82.2063 54.6713C82.2422 54.5803 82.2596 54.483 82.2575 54.3851V53.3419H83.2978C83.4915 53.3419 83.6772 53.2652 83.8146 53.1284C83.952 52.9916 84.0299 52.8059 84.0312 52.6117C84.0258 52.4208 83.946 52.2396 83.8089 52.107C83.6718 51.9744 83.4883 51.9009 83.2978 51.9024Z" fill="#4B2EFF"/>
<path d="M55.4385 85.5809H54.3981V84.5638C54.3982 84.3696 54.3216 84.1834 54.1852 84.0456C54.0488 83.9078 53.8635 83.8297 53.6699 83.8284C53.5738 83.8284 53.4788 83.8474 53.3901 83.8844C53.3014 83.9215 53.2208 83.9757 53.1532 84.0441C53.0855 84.1124 53.0319 84.1936 52.9957 84.2827C52.9594 84.3719 52.941 84.4675 52.9417 84.5638V85.5809H51.9014C51.7069 85.5809 51.5203 85.6584 51.3828 85.7963C51.2453 85.9342 51.168 86.1213 51.168 86.3163C51.1693 86.5105 51.2472 86.6962 51.3846 86.833C51.522 86.9698 51.7078 87.0465 51.9014 87.0465H52.9417V88.0897C52.9417 88.2834 53.0184 88.4691 53.155 88.606C53.2916 88.743 53.4768 88.8199 53.6699 88.8199C53.8631 88.8199 54.0483 88.743 54.1849 88.606C54.3214 88.4691 54.3981 88.2834 54.3981 88.0897V87.0465H55.4385C55.6316 87.0465 55.8168 86.9696 55.9534 86.8327C56.0899 86.6957 56.1667 86.51 56.1667 86.3163C56.1667 86.1222 56.0901 85.9359 55.9537 85.7981C55.8173 85.6603 55.6321 85.5823 55.4385 85.5809Z" fill="#9A8BFA"/>
<path d="M174.991 1.18378H173.951V0.140616C173.951 -0.0530488 173.874 -0.238783 173.737 -0.375725C173.601 -0.512667 173.416 -0.5896 173.222 -0.5896C173.029 -0.589604 172.843 -0.512837 172.706 -0.376043C172.568 -0.239249 172.49 -0.0535269 172.489 0.140616V1.18378H171.475C171.281 1.18378 171.095 1.26054 170.958 1.39734C170.82 1.53413 170.743 1.71985 170.741 1.914C170.741 2.10904 170.818 2.2961 170.956 2.43402C171.094 2.57194 171.28 2.64943 171.475 2.64943H172.489V3.69259C172.489 3.88764 172.566 4.0747 172.704 4.21262C172.841 4.35054 173.028 4.42802 173.222 4.42802C173.416 4.42665 173.601 4.34856 173.738 4.21079C173.874 4.07301 173.951 3.88674 173.951 3.69259V2.64943H174.991C175.185 2.64805 175.37 2.56996 175.506 2.43219C175.643 2.29442 175.719 2.10814 175.719 1.914C175.719 1.8181 175.7 1.72315 175.664 1.63455C175.627 1.54596 175.573 1.46546 175.506 1.39766C175.438 1.32985 175.358 1.27606 175.27 1.23936C175.181 1.20267 175.087 1.18378 174.991 1.18378Z" fill="#9A8BFA"/>
<path d="M95.3339 133.441C90.6996 125.467 87.6937 116.648 86.4913 107.498C83.5628 84.6421 92.2442 58.6934 111.693 43.0563C136.021 23.4866 173.206 23.2623 201.389 43.9795" stroke="#9A8BFA" stroke-width="4" stroke-miterlimit="10"/>
<path d="M202.331 43.9065C202.331 44.1831 202.221 44.4485 202.026 44.6441C201.831 44.8397 201.566 44.9496 201.29 44.9496C201.014 44.9496 200.75 44.8397 200.555 44.6441C200.36 44.4485 200.25 44.1831 200.25 43.9065C200.25 43.6873 200.319 43.4738 200.448 43.2962C200.543 43.158 200.671 43.0451 200.819 42.967C200.968 42.8889 201.133 42.8479 201.301 42.8477C201.438 42.849 201.573 42.8775 201.699 42.9315C201.825 42.9855 201.939 43.064 202.035 43.1624C202.131 43.2608 202.206 43.3772 202.257 43.5049C202.308 43.6326 202.333 43.769 202.331 43.9065Z" fill="#9A8BFA" stroke="#9A8BFA" stroke-width="3.02913" stroke-miterlimit="10"/>
<path d="M102.309 133.441C102.311 134.361 102.131 135.271 101.781 136.121C101.431 136.971 100.918 137.743 100.27 138.394C99.6221 139.044 98.8527 139.561 98.0058 139.913C97.1588 140.265 96.2509 140.446 95.334 140.446C94.4176 140.447 93.51 140.266 92.6631 139.915C91.8162 139.564 91.0467 139.049 90.3984 138.399C89.7501 137.75 89.2359 136.979 88.885 136.13C88.5341 135.281 88.3535 134.371 88.3535 133.452C88.3535 131.595 89.089 129.815 90.3981 128.502C91.7072 127.19 93.4827 126.452 95.334 126.452C97.1831 126.452 98.9565 127.188 100.264 128.499C101.572 129.809 102.308 131.587 102.309 133.441Z" fill="black"/>
<path d="M217.415 62.115C222.049 70.0873 225.055 78.9046 226.258 88.0533C229.191 110.909 220.51 136.858 201.061 152.5C176.734 172.065 139.542 172.289 111.36 151.572" stroke="#9A8BFA" stroke-width="4" stroke-miterlimit="10"/>
<path d="M110.414 151.644C110.414 151.368 110.524 151.102 110.719 150.907C110.914 150.711 111.179 150.601 111.454 150.601C111.73 150.601 111.995 150.711 112.19 150.907C112.385 151.102 112.495 151.368 112.495 151.644C112.494 151.864 112.425 152.077 112.297 152.255C112.202 152.393 112.074 152.506 111.926 152.584C111.777 152.662 111.612 152.703 111.444 152.703C111.307 152.702 111.172 152.673 111.046 152.619C110.92 152.565 110.805 152.487 110.71 152.389C110.614 152.29 110.539 152.174 110.488 152.046C110.437 151.918 110.412 151.782 110.414 151.644Z" fill="#9A8BFA" stroke="#9A8BFA" stroke-width="3.02913" stroke-miterlimit="10"/>
<path d="M210.434 62.1149C210.434 60.2585 211.169 58.4781 212.478 57.1654C213.787 55.8527 215.563 55.1152 217.414 55.1152C218.331 55.1152 219.238 55.2963 220.085 55.6482C220.931 56 221.7 56.5157 222.348 57.1657C222.996 57.8157 223.51 58.5874 223.86 59.4366C224.21 60.2858 224.39 61.1959 224.389 62.1149C224.389 63.9699 223.654 65.749 222.346 67.0607C221.038 68.3724 219.264 69.1093 217.414 69.1093C216.498 69.11 215.59 68.9296 214.743 68.5784C213.896 68.2272 213.127 67.7121 212.478 67.0625C211.83 66.413 211.316 65.6417 210.965 64.7927C210.614 63.9438 210.434 63.0338 210.434 62.1149Z" fill="black"/>
<path d="M185.693 113.113L176.006 123.831L203.305 148.682L212.987 137.959L185.693 113.113Z" fill="#4B2EFF"/>
<path fill-rule="evenodd" clip-rule="evenodd" d="M195.924 95.3695C195.924 100.698 194.878 105.974 192.844 110.896C190.811 115.819 187.83 120.292 184.072 124.059C180.315 127.827 175.854 130.815 170.945 132.853C166.035 134.892 160.773 135.941 155.46 135.94C150.146 135.941 144.885 134.892 139.976 132.853C135.067 130.815 130.606 127.826 126.849 124.059C123.092 120.291 120.112 115.819 118.079 110.896C116.045 105.973 114.999 100.698 115 95.3695C114.999 90.0413 116.045 84.7651 118.078 79.8423C120.111 74.9195 123.092 70.4464 126.849 66.6786C130.606 62.9107 135.066 59.9218 139.975 57.8827C144.884 55.8435 150.146 54.7939 155.46 54.7939C160.774 54.7933 166.036 55.8424 170.946 57.8813C175.855 59.9202 180.316 62.9089 184.074 66.6768C187.832 70.4448 190.812 74.918 192.846 79.8412C194.879 84.7643 195.925 90.0409 195.924 95.3695ZM189.72 95.3695C189.716 104.479 186.105 113.215 179.681 119.656C173.257 126.097 164.545 129.716 155.46 129.719C146.376 129.715 137.665 126.095 131.242 119.654C124.818 113.213 121.208 104.478 121.204 95.3695C121.208 86.2607 124.818 77.5261 131.242 71.0851C137.665 64.6442 146.376 61.024 155.46 61.0201C159.959 61.0176 164.415 61.9042 168.573 63.6295C172.73 65.3547 176.508 67.8847 179.69 71.0748C182.871 74.2649 185.395 78.0525 187.116 82.2212C188.837 86.3898 189.722 90.8578 189.72 95.3695Z" fill="#4B2EFF"/>
<path d="M163.72 95.3695L173.535 85.5281C173.994 85.0484 174.353 84.4814 174.59 83.8606C174.828 83.2397 174.939 82.5775 174.917 81.9129C174.914 81.2472 174.778 80.5888 174.519 79.9758C174.26 79.3628 173.882 78.8074 173.408 78.3418C172.46 77.3929 171.181 76.8502 169.841 76.8281C168.51 76.8264 167.225 77.3204 166.236 78.2144L156.427 88.0509L146.612 78.2144C146.136 77.7154 145.567 77.3159 144.936 77.0388C144.305 76.7509 143.617 76.607 142.924 76.6175C142.235 76.6178 141.553 76.7457 140.911 76.9947C140.267 77.2533 139.682 77.6399 139.191 78.1312C138.698 78.6193 138.319 79.2117 138.082 79.8653C137.826 80.5069 137.696 81.1924 137.701 81.8835C137.717 82.5764 137.859 83.2605 138.121 83.9018C138.41 84.527 138.807 85.096 139.294 85.582L149.108 95.4185L139.421 105.216C138.924 105.696 138.526 106.268 138.248 106.901C137.961 107.534 137.817 108.224 137.828 108.919C137.828 109.608 137.956 110.291 138.204 110.933C138.462 111.578 138.848 112.165 139.338 112.657C139.821 113.158 140.408 113.546 141.058 113.793C141.698 114.049 142.381 114.177 143.07 114.171C143.761 114.157 144.443 114.015 145.083 113.754C145.713 113.474 146.282 113.073 146.759 112.574L156.573 102.737L166.383 112.574C166.864 113.011 167.427 113.349 168.039 113.566C168.651 113.783 169.301 113.875 169.949 113.838C171.257 113.791 172.5 113.25 173.427 112.324C174.351 111.392 174.89 110.144 174.937 108.831C174.974 107.518 174.509 106.24 173.637 105.26L163.72 95.3695Z" fill="#FF4646"/>
<path opacity="0.83" d="M203.306 148.638L212.988 137.919L214.454 139.262C215.157 139.898 215.727 140.668 216.13 141.528C216.533 142.387 216.76 143.319 216.799 144.268C216.885 146.18 216.224 148.05 214.957 149.48C214.323 150.186 213.555 150.759 212.698 151.163C211.84 151.568 210.911 151.797 209.964 151.837C208.057 151.922 206.192 151.257 204.766 149.985L203.301 148.638H203.306Z" fill="#4B2EFF"/>
<path d="M94.9082 144.061C100.559 144.061 105.14 139.467 105.14 133.801C105.14 128.135 100.559 123.542 94.9082 123.542C89.2575 123.542 84.6768 128.135 84.6768 133.801C84.6768 139.467 89.2575 144.061 94.9082 144.061Z" fill="#9A8BFA"/>
<path d="M216.583 71.5244C222.234 71.5244 226.814 66.9311 226.814 61.2649C226.814 55.5987 222.234 51.0054 216.583 51.0054C210.932 51.0054 206.352 55.5987 206.352 61.2649C206.352 66.9311 210.932 71.5244 216.583 71.5244Z" fill="#9A8BFA"/>
<path d="M95.0469 144.033C100.698 144.033 105.278 139.44 105.278 133.774C105.278 128.108 100.698 123.514 95.0469 123.514C89.3962 123.514 84.8154 128.108 84.8154 133.774C84.8154 139.44 89.3962 144.033 95.0469 144.033Z" fill="#9A8BFA"/>
<g style="mix-blend-mode:screen">
<path d="M216.5 72.7939C222.851 72.7939 228 67.6452 228 61.2939C228 54.9427 222.851 49.7939 216.5 49.7939C210.149 49.7939 205 54.9427 205 61.2939C205 67.6452 210.149 72.7939 216.5 72.7939Z" fill="#B67CF0"/>
</g>
<path d="M216.5 72.7939C222.851 72.7939 228 67.6452 228 61.2939C228 54.9427 222.851 49.7939 216.5 49.7939C210.149 49.7939 205 54.9427 205 61.2939C205 67.6452 210.149 72.7939 216.5 72.7939Z" fill="#9A8BFA"/>
<g style="mix-blend-mode:multiply">
<path d="M216.582 70.5945C221.72 70.5945 225.886 66.4175 225.886 61.2648C225.886 56.1121 221.72 51.9351 216.582 51.9351C211.443 51.9351 207.277 56.1121 207.277 61.2648C207.277 66.4175 211.443 70.5945 216.582 70.5945Z" fill="#B67CF0"/>
</g>
<path d="M216.582 70.2103C221.509 70.2103 225.503 66.2052 225.503 61.2647C225.503 56.3242 221.509 52.3191 216.582 52.3191C211.655 52.3191 207.661 56.3242 207.661 61.2647C207.661 66.2052 211.655 70.2103 216.582 70.2103Z" fill="#4B2EFF"/>
<g style="mix-blend-mode:screen">
<path d="M216.977 60.5722C215.676 60.031 215.299 59.705 215.299 59.0997C215.299 58.6108 215.647 58.0463 216.634 58.0463C217.247 58.0387 217.85 58.2019 218.375 58.5177L218.584 58.6341L219.095 57.2839L218.944 57.1965C218.397 56.8798 217.782 56.6982 217.151 56.6669V55.241H215.862V56.7484C215.255 56.8361 214.699 57.1391 214.295 57.6025C213.892 58.066 213.667 58.6591 213.662 59.2743C213.662 60.7876 214.881 61.4744 216.193 61.9924C217.273 62.4289 217.714 62.877 217.714 63.5405C217.714 64.204 217.087 64.7686 216.187 64.7686C215.483 64.7705 214.794 64.5684 214.202 64.1866L213.982 64.0411L213.488 65.4146L213.616 65.5019C214.262 65.9084 215.002 66.141 215.764 66.1771V67.6612H217.087V66.1014C217.725 66.0064 218.308 65.6875 218.733 65.2014C219.158 64.7154 219.398 64.0938 219.409 63.4474C219.345 62.1204 218.648 61.2648 216.977 60.5722Z" fill="#B67CF0"/>
</g>
<g style="mix-blend-mode:screen">
<path d="M95.5 144.794C101.851 144.794 107 139.645 107 133.294C107 126.943 101.851 121.794 95.5 121.794C89.1487 121.794 84 126.943 84 133.294C84 139.645 89.1487 144.794 95.5 144.794Z" fill="#B67CF0"/>
</g>
<path d="M95.5 144.794C101.851 144.794 107 139.645 107 133.294C107 126.943 101.851 121.794 95.5 121.794C89.1487 121.794 84 126.943 84 133.294C84 139.645 89.1487 144.794 95.5 144.794Z" fill="#9A8BFA"/>
<g style="mix-blend-mode:multiply">
<path d="M95.5816 142.595C100.72 142.595 104.886 138.417 104.886 133.265C104.886 128.112 100.72 123.935 95.5816 123.935C90.443 123.935 86.2773 128.112 86.2773 133.265C86.2773 138.417 90.443 142.595 95.5816 142.595Z" fill="#B67CF0"/>
</g>
<path d="M95.5823 142.21C100.509 142.21 104.503 138.205 104.503 133.265C104.503 128.324 100.509 124.319 95.5823 124.319C90.6553 124.319 86.6611 128.324 86.6611 133.265C86.6611 138.205 90.6553 142.21 95.5823 142.21Z" fill="#4B2EFF"/>
<g style="mix-blend-mode:screen">
<path d="M95.9766 132.572C94.6765 132.031 94.2992 131.705 94.2992 131.1C94.2992 130.611 94.6475 130.046 95.6342 130.046C96.2469 130.039 96.8498 130.202 97.3755 130.518L97.5844 130.634L98.0952 129.284L97.9443 129.197C97.3968 128.88 96.7821 128.698 96.1508 128.667V127.241H94.8622V128.748C94.2549 128.836 93.699 129.139 93.2954 129.603C92.8918 130.066 92.6672 130.659 92.6624 131.274C92.6624 132.788 93.8813 133.474 95.1931 133.992C96.2727 134.429 96.7138 134.877 96.7138 135.541C96.7138 136.204 96.0869 136.769 95.1873 136.769C94.4835 136.771 93.7941 136.568 93.2022 136.187L92.9816 136.041L92.4883 137.415L92.616 137.502C93.262 137.908 94.0017 138.141 94.7635 138.177V139.661H96.0869V138.101C96.7247 138.006 97.3081 137.687 97.7332 137.201C98.1584 136.715 98.3977 136.094 98.4086 135.447C98.3448 134.12 97.6483 133.265 95.9766 132.572Z" fill="#B67CF0"/>
</g>
</g>
<defs>
<clipPath id="clip0_2603_3406">
<rect width="312" height="181" fill="white" transform="translate(0 0.146973)"/>
</clipPath>
</defs>
</svg>
