<svg width="207" height="168" viewBox="0 0 207 168" fill="none" xmlns="http://www.w3.org/2000/svg">
<path d="M82.8457 13.7708C82.8457 13.5775 83.4256 13.3843 84.1505 13.3843H87.1468C87.8718 13.3843 88.4517 13.5292 88.4517 13.7708C88.4517 13.9641 87.8718 14.1573 87.1468 14.1573H84.1505C83.4256 14.1573 82.8457 13.9641 82.8457 13.7708Z" fill="white"/>
<path d="M79.9458 13.7708C79.9458 13.5775 79.3659 13.3843 78.641 13.3843H74.0982H72.2134H60.3732C59.6483 13.3843 59.0684 13.5292 59.0684 13.7708C59.0684 13.9641 59.6483 14.1573 60.3732 14.1573H72.2618H74.1465H78.6893C79.3659 14.1573 79.9458 13.9641 79.9458 13.7708Z" fill="white"/>
<path d="M142.916 19.1332C142.916 18.9882 143.496 18.8433 144.269 18.8433H147.41C148.135 18.8433 148.764 18.9882 148.764 19.1332C148.764 19.2781 148.184 19.4231 147.41 19.4231H144.269C143.544 19.4231 142.964 19.2781 142.916 19.1332Z" fill="white"/>
<path d="M118.656 19.0848C118.656 18.9399 119.236 18.7949 120.009 18.7949H126.099C126.824 18.7949 127.452 18.9399 127.452 19.0848C127.452 19.2298 126.872 19.3747 126.099 19.3747H120.009C119.236 19.3747 118.656 19.2781 118.656 19.0848ZM130.786 19.0848C130.786 18.9399 131.366 18.7949 132.14 18.7949H138.229C138.954 18.7949 139.582 18.9399 139.582 19.0848C139.582 19.2298 139.002 19.3747 138.229 19.3747H132.14C131.415 19.423 130.786 19.2781 130.786 19.0848Z" fill="white"/>
<path d="M54.1855 84.2142C54.1855 56.9641 76.3679 34.8838 103.673 34.8838C131.026 34.8838 153.16 56.9641 153.16 84.2142" stroke="#C4C4C4" stroke-width="2.467" stroke-miterlimit="10" stroke-linecap="round" stroke-linejoin="round" stroke-dasharray="9.89 9.89"/>
<path d="M132.767 135.912C130.882 135.912 129.384 134.414 129.384 132.53V67.1585C129.384 65.2742 130.93 63.7764 132.767 63.7764H167.369C169.254 63.7764 170.752 65.2742 170.752 67.1585V132.481C170.752 134.366 169.254 135.863 167.369 135.863H132.767V135.912Z" fill="#2B6DEF"/>
<path d="M167.417 64.3564C168.963 64.3564 170.22 65.6126 170.22 67.1587V132.482C170.22 134.028 168.963 135.284 167.417 135.284H132.814C131.268 135.284 130.011 134.028 130.011 132.482V67.1587C130.011 65.6126 131.268 64.3564 132.814 64.3564H167.417ZM167.417 63.1968H132.814C130.64 63.1968 128.852 64.9845 128.852 67.1587V132.482C128.852 134.656 130.64 136.443 132.814 136.443H167.417C169.592 136.443 171.38 134.656 171.38 132.482V67.1587C171.38 64.9845 169.592 63.1968 167.417 63.1968Z" fill="#E6EEF9"/>
<path d="M166.934 124.268C166.934 125.524 165.871 126.587 164.566 126.587H135.569C134.264 126.587 133.201 125.573 133.201 124.268V70.7825C133.201 69.5263 134.264 68.4634 135.569 68.4634H164.566C165.871 68.4634 166.934 69.478 166.934 70.7825V124.268Z" fill="#F1F0EF"/>
<path d="M144.559 133.448C143.35 133.448 142.384 132.578 142.384 131.564C142.384 130.501 143.35 129.679 144.559 129.679H155.577C156.785 129.679 157.752 130.549 157.752 131.564C157.752 132.626 156.785 133.448 155.577 133.448H144.559Z" fill="#2B6DEF"/>
<path d="M155.625 130.259C156.495 130.259 157.22 130.839 157.22 131.564C157.22 132.288 156.495 132.868 155.625 132.868H144.606C143.736 132.868 143.011 132.288 143.011 131.564C143.011 130.839 143.736 130.259 144.606 130.259H155.625ZM155.625 129.1H144.606C143.06 129.1 141.852 130.211 141.852 131.564C141.852 132.917 143.108 134.028 144.606 134.028H155.625C157.171 134.028 158.38 132.917 158.38 131.564C158.38 130.211 157.123 129.1 155.625 129.1Z" fill="#E6EEF9"/>
<g opacity="0.19">
<path d="M167.416 64.3564H150.26V135.284H167.416C168.963 135.284 170.219 134.028 170.219 132.482V67.1588C170.219 65.6127 168.963 64.3564 167.416 64.3564Z" fill="#E6E7E8"/>
</g>
<path d="M135.279 75.9521V120.789" stroke="#E6EEF9" stroke-width="1.72852" stroke-miterlimit="10" stroke-linecap="round" stroke-linejoin="round" stroke-dasharray="7.47 7.47"/>
<path d="M39.9288 135.912C38.0441 135.912 36.5459 134.414 36.5459 132.53V67.1585C36.5459 65.2742 38.0924 63.7764 39.9288 63.7764H74.5313C76.4161 63.7764 77.9142 65.2742 77.9142 67.1585V132.481C77.9142 134.366 76.4161 135.863 74.5313 135.863H39.9288V135.912Z" fill="#0045FF"/>
<path d="M74.5795 64.3564C76.126 64.3564 77.3825 65.6126 77.3825 67.1587V132.482C77.3825 134.028 76.126 135.284 74.5795 135.284H39.9287C38.3822 135.284 37.1257 134.028 37.1257 132.482V67.1587C37.1257 65.6126 38.3822 64.3564 39.9287 64.3564H74.5795ZM74.5795 63.1968H39.9287C37.7539 63.1968 35.9658 64.9845 35.9658 67.1587V132.482C35.9658 134.656 37.7539 136.443 39.9287 136.443H74.5312C76.7059 136.443 78.494 134.656 78.494 132.482V67.1587C78.5423 64.9845 76.7542 63.1968 74.5795 63.1968Z" fill="#E6EEF9"/>
<path d="M74.0968 124.268C74.0968 125.524 73.0336 126.587 71.7288 126.587H42.7323C41.4275 126.587 40.3643 125.573 40.3643 124.268V70.7825C40.3643 69.5263 41.4275 68.4634 42.7323 68.4634H71.7288C73.0336 68.4634 74.0968 69.478 74.0968 70.7825V124.268Z" fill="#F1F0EF"/>
<path d="M51.7206 133.448C50.5124 133.448 49.5459 132.578 49.5459 131.564C49.5459 130.501 50.5124 129.679 51.7206 129.679H62.7876C63.9958 129.679 64.9624 130.549 64.9624 131.564C64.9624 132.626 63.9958 133.448 62.7876 133.448H51.7206Z" fill="#2B6DEF"/>
<path d="M62.788 130.259C63.6579 130.259 64.3828 130.839 64.3828 131.564C64.3828 132.288 63.6579 132.868 62.788 132.868H51.7693C50.8994 132.868 50.1745 132.288 50.1745 131.564C50.1745 130.839 50.8994 130.259 51.7693 130.259H62.788ZM62.788 129.1H51.7693C50.2228 129.1 49.0146 130.211 49.0146 131.564C49.0146 132.917 50.2712 134.028 51.7693 134.028H62.788C64.3345 134.028 65.5426 132.917 65.5426 131.564C65.5426 130.211 64.2861 129.1 62.788 129.1Z" fill="#E6EEF9"/>
<g opacity="0.19">
<path d="M74.5801 64.3564H57.4238V135.284H74.5801C76.1266 135.284 77.3831 134.028 77.3831 132.482V67.1588C77.3831 65.6127 76.1266 64.3564 74.5801 64.3564Z" fill="#E6E7E8"/>
</g>
<path d="M42.4414 75.9521V120.789" stroke="#E6EEF9" stroke-width="1.72852" stroke-miterlimit="10" stroke-linecap="round" stroke-linejoin="round" stroke-dasharray="7.47 7.47"/>
<path d="M57.4252 81.8476C50.901 81.8476 45.585 76.5328 45.585 70.0102C45.585 63.4876 50.901 58.1729 57.4252 58.1729C63.9494 58.1729 69.2654 63.4876 69.2654 70.0102C69.2654 76.5328 63.9494 81.8476 57.4252 81.8476Z" fill="#2B6DEF"/>
<path d="M57.4246 58.7524C63.6588 58.7524 68.7332 63.8255 68.7332 70.0583C68.7332 76.291 63.6588 81.3641 57.4246 81.3641C51.1903 81.3641 46.1159 76.291 46.1159 70.0583C46.1159 63.7772 51.1903 58.7524 57.4246 58.7524ZM57.4246 57.6411C50.6104 57.6411 45.0527 63.1974 45.0527 70.0099C45.0527 76.8225 50.6104 82.3788 57.4246 82.3788C64.2387 82.3788 69.7964 76.8225 69.7964 70.0099C69.7964 63.1974 64.2387 57.6411 57.4246 57.6411Z" fill="#E6EEF9"/>
<path d="M54.8145 71.8457C54.8145 73.0053 55.9743 73.9716 57.4241 73.9716C58.874 73.9716 60.0338 72.8604 60.0338 71.8457C60.0338 70.7828 59.3089 70.1064 57.6174 70.0097C55.926 69.9131 54.8145 69.2367 54.8145 68.1737C54.8145 66.7726 55.9743 66.0479 57.4241 66.0479C58.874 66.0479 60.0338 67.0142 60.0338 68.1737" stroke="#F1F0EF" stroke-width="1.3745" stroke-miterlimit="10" stroke-linecap="round" stroke-linejoin="round"/>
<path d="M57.4238 74.2134V75.6629" stroke="#F1F0EF" stroke-width="1.3745" stroke-miterlimit="10" stroke-linecap="round" stroke-linejoin="round"/>
<path d="M57.4238 64.3569V65.9514" stroke="#F1F0EF" stroke-width="1.3745" stroke-miterlimit="10" stroke-linecap="round" stroke-linejoin="round"/>
<path d="M62.0156 63.1494C62.4506 63.4393 62.8855 63.7775 63.2721 64.164L62.0156 63.1494Z" fill="#2B6DEF"/>
<path d="M62.0156 63.1494C62.4506 63.4393 62.8855 63.7775 63.2721 64.164" stroke="#E6EEF9" stroke-width="1.49217" stroke-miterlimit="10" stroke-linecap="round" stroke-linejoin="round"/>
<path d="M65.6882 70.01C65.6882 74.5517 61.9669 78.272 57.4242 78.272C52.8814 78.272 49.1602 74.5517 49.1602 70.01C49.1602 65.4684 52.8814 61.748 57.4242 61.748" fill="#2B6DEF"/>
<path d="M65.6882 70.01C65.6882 74.5517 61.9669 78.272 57.4242 78.272C52.8814 78.272 49.1602 74.5517 49.1602 70.01C49.1602 65.4684 52.8814 61.748 57.4242 61.748" stroke="#E6EEF9" stroke-width="1.49217" stroke-miterlimit="10" stroke-linecap="round" stroke-linejoin="round"/>
<path d="M54.8145 71.8457C54.8145 73.0053 55.9743 73.9716 57.4241 73.9716C58.874 73.9716 60.0338 72.8604 60.0338 71.8457C60.0338 70.7828 59.3089 70.1064 57.6174 70.0097C55.926 69.9131 54.8145 69.2367 54.8145 68.1737C54.8145 66.7726 55.9743 66.0479 57.4241 66.0479C58.874 66.0479 60.0338 67.0142 60.0338 68.1737" stroke="#E6EEF9" stroke-width="1.3745" stroke-miterlimit="10" stroke-linecap="round" stroke-linejoin="round"/>
<path d="M57.4238 74.2134V75.6629" stroke="#E6EEF9" stroke-width="1.3745" stroke-miterlimit="10" stroke-linecap="round" stroke-linejoin="round"/>
<path d="M57.4238 64.3569V65.9514" stroke="#E6EEF9" stroke-width="1.3745" stroke-miterlimit="10" stroke-linecap="round" stroke-linejoin="round"/>
<path d="M49.5955 69.8166C49.5955 69.8166 48.9672 66.0479 48.7739 65.8547C48.5806 65.6614 44.8594 65.0816 44.8594 65.0816C44.8594 65.0816 48.6289 64.4535 48.8706 64.2603C49.0639 64.067 49.6438 60.3467 49.6438 60.3467C49.6438 60.3467 50.2237 64.067 50.3687 64.2603C50.562 64.4535 54.3799 65.0816 54.3799 65.0816C54.3799 65.0816 50.6103 65.7097 50.417 65.903C50.1754 66.0963 49.5955 69.8166 49.5955 69.8166Z" fill="#F1F0EF"/>
<g opacity="0.24">
<path d="M57.4243 58.7524H57.376V81.3159H57.4243C63.6585 81.3159 68.7329 76.2427 68.7329 70.01C68.7329 63.7773 63.6585 58.7524 57.4243 58.7524Z" fill="#E6E7E8"/>
</g>
<path d="M104.302 46.7216C97.7779 46.7216 92.4619 41.4069 92.4619 34.8842C92.4619 28.3616 97.7779 23.0469 104.302 23.0469C110.826 23.0469 116.142 28.3616 116.142 34.8842C116.142 41.4069 110.826 46.7216 104.302 46.7216Z" fill="#2B6DEF"/>
<path d="M104.302 23.5781C110.536 23.5781 115.61 28.6512 115.61 34.884C115.61 41.1167 110.536 46.1899 104.302 46.1899C98.0673 46.1899 92.9929 41.1167 92.9929 34.884C93.0412 28.6512 98.0673 23.5781 104.302 23.5781ZM104.302 22.5151C97.4873 22.5151 91.9297 28.0714 91.9297 34.884C91.9297 41.6965 97.4873 47.2528 104.302 47.2528C111.116 47.2528 116.673 41.6965 116.673 34.884C116.722 28.0714 111.164 22.5151 104.302 22.5151Z" fill="#E6EEF9"/>
<path d="M101.691 36.7203C101.691 37.8798 102.851 38.8461 104.301 38.8461C105.751 38.8461 106.911 37.7349 106.911 36.7203C106.911 35.6573 106.186 34.9809 104.494 34.8843C102.803 34.7876 101.691 34.1112 101.691 33.0483C101.691 31.6471 102.851 30.9224 104.301 30.9224C105.751 30.9224 106.911 31.8887 106.911 33.0483" stroke="#F1F0EF" stroke-width="1.3745" stroke-miterlimit="10" stroke-linecap="round" stroke-linejoin="round"/>
<path d="M104.301 39.0874V40.5369" stroke="#F1F0EF" stroke-width="1.3745" stroke-miterlimit="10" stroke-linecap="round" stroke-linejoin="round"/>
<path d="M104.301 29.231V30.8254" stroke="#F1F0EF" stroke-width="1.3745" stroke-miterlimit="10" stroke-linecap="round" stroke-linejoin="round"/>
<path d="M108.94 28.0234C109.375 28.3133 109.81 28.6515 110.197 29.0381L108.94 28.0234Z" fill="#2B6DEF"/>
<path d="M108.94 28.0234C109.375 28.3133 109.81 28.6515 110.197 29.0381" stroke="#E6EEF9" stroke-width="1.49217" stroke-miterlimit="10" stroke-linecap="round" stroke-linejoin="round"/>
<path d="M112.565 34.8841C112.565 39.4257 108.844 43.1461 104.301 43.1461C99.7583 43.1461 96.0371 39.4257 96.0371 34.8841C96.0371 30.3424 99.7583 26.6221 104.301 26.6221" fill="#2B6DEF"/>
<path d="M112.565 34.8841C112.565 39.4257 108.844 43.1461 104.301 43.1461C99.7583 43.1461 96.0371 39.4257 96.0371 34.8841C96.0371 30.3424 99.7583 26.6221 104.301 26.6221" stroke="#E6EEF9" stroke-width="1.49217" stroke-miterlimit="10" stroke-linecap="round" stroke-linejoin="round"/>
<path d="M101.691 36.7203C101.691 37.8798 102.851 38.8461 104.301 38.8461C105.751 38.8461 106.911 37.7349 106.911 36.7203C106.911 35.6573 106.186 34.9809 104.494 34.8843C102.803 34.7876 101.691 34.1112 101.691 33.0483C101.691 31.6471 102.851 30.9224 104.301 30.9224C105.751 30.9224 106.911 31.8887 106.911 33.0483" stroke="#E6EEF9" stroke-width="1.3745" stroke-miterlimit="10" stroke-linecap="round" stroke-linejoin="round"/>
<path d="M104.301 39.0874V40.5369" stroke="#E6EEF9" stroke-width="1.3745" stroke-miterlimit="10" stroke-linecap="round" stroke-linejoin="round"/>
<path d="M104.301 29.231V30.8254" stroke="#E6EEF9" stroke-width="1.3745" stroke-miterlimit="10" stroke-linecap="round" stroke-linejoin="round"/>
<path d="M96.4724 34.6906C96.4724 34.6906 95.8442 30.922 95.6509 30.7287C95.4575 30.5354 91.7363 29.9556 91.7363 29.9556C91.7363 29.9556 95.5059 29.3275 95.7475 29.1343C95.9408 28.941 96.5208 25.2207 96.5208 25.2207C96.5208 25.2207 97.1007 28.941 97.2457 29.1343C97.439 29.3275 101.257 29.9556 101.257 29.9556C101.257 29.9556 97.4873 30.5838 97.294 30.777C97.0524 30.922 96.4724 34.6906 96.4724 34.6906Z" fill="#F1F0EF"/>
<path opacity="0.24" d="M104.301 23.5781H104.253V46.1416H104.301C110.535 46.1416 115.61 41.0684 115.61 34.8357C115.61 28.6513 110.535 23.5781 104.301 23.5781Z" fill="#E6E7E8"/>
<path opacity="0.5" d="M46.792 83.1309H69.071" stroke="#C4C4C4" stroke-width="2.467" stroke-miterlimit="10" stroke-linecap="round" stroke-linejoin="round"/>
<path opacity="0.5" d="M139.58 83.1309H161.859" stroke="#C4C4C4" stroke-width="2.467" stroke-miterlimit="10" stroke-linecap="round" stroke-linejoin="round"/>
</svg>
