<svg width="36" height="20" viewBox="0 0 36 20" fill="none" xmlns="http://www.w3.org/2000/svg">
<g clip-path="url(#clip0_1408_4581)">
<path fill-rule="evenodd" clip-rule="evenodd" d="M30.8396 6.95703L30.8395 6.95761L31.8671 6.96315C31.984 6.95448 32.1019 6.95498 32.2198 6.96495L34.7297 6.97841C35.1114 7.00046 35.414 7.31952 35.414 7.71003C35.414 7.89459 35.3464 8.06319 35.2349 8.1919L34.0136 10.3251C34.0039 10.3431 33.994 10.361 33.9838 10.3788L30.9617 15.6713C30.5523 16.3882 29.8162 16.7955 29.0533 16.8117L29.0534 16.8122L29.0179 16.8122C28.9982 16.8123 28.9785 16.8121 28.9589 16.8117L20.0161 16.7656H19.0195L19.0196 16.7477C19.7767 16.6416 20.4137 16.1556 20.7362 15.4862L20.7434 15.4864L25.1246 7.78222C25.3706 7.29256 25.8734 6.95703 26.4537 6.95703L26.4133 6.95789L26.4147 6.95703H30.8396Z" fill="#2BBDF7"/>
<path fill-rule="evenodd" clip-rule="evenodd" d="M23.8394 3.17773L31.7329 3.17786C32.1145 3.19994 32.4171 3.51898 32.4171 3.90948C32.4171 4.06601 32.3685 4.21106 32.2857 4.33003L30.1554 8.06935L27.8908 12.0435L27.892 12.0431H27.9105L27.1863 13.3124C26.5758 14.3815 26.9186 15.7427 27.9481 16.3895L28.012 16.4282C28.302 16.5975 28.6137 16.6943 28.9267 16.7241L28.9268 16.7775L25.1948 16.7774L25.1933 16.7808H18.7216C18.3541 16.774 17.981 16.6799 17.6358 16.4865C16.5255 15.8642 16.1243 14.4497 16.7398 13.3272L21.6511 4.36862C22.1012 3.54758 22.9705 3.11008 23.8394 3.17773Z" fill="#2B6DEF"/>
<path fill-rule="evenodd" clip-rule="evenodd" d="M26.427 6.95818L30.7737 6.96266L30.1449 8.06664L27.8803 12.0407L27.8816 12.0404H27.9001L27.1758 13.3097C26.5653 14.3788 26.9082 15.74 27.9377 16.3868L28.0016 16.4255C28.2916 16.5948 28.6033 16.6916 28.9162 16.7214L28.9163 16.7748L25.1844 16.7747L25.1829 16.7781L19.002 16.7783C19.6872 16.7064 20.3305 16.3249 20.7182 15.6943L20.7617 15.6204L25.3333 7.54074C25.5926 7.20191 25.9916 6.97792 26.443 6.95703L26.427 6.95818Z" fill="#001C52"/>
<path fill-rule="evenodd" clip-rule="evenodd" d="M26.427 6.95818L30.7737 6.96266L30.1449 8.06664L27.8803 12.0407L27.8816 12.0404H27.9001L27.1758 13.3097C26.5653 14.3788 26.9082 15.74 27.9377 16.3868L28.0016 16.4255C28.2916 16.5948 28.6033 16.6916 28.9162 16.7214L28.9163 16.7748L25.1844 16.7747L25.1829 16.7781L19.002 16.7783C19.6872 16.7064 20.3305 16.3249 20.7182 15.6943L20.7617 15.6204L25.3333 7.54074C25.5926 7.20191 25.9916 6.97792 26.443 6.95703L26.427 6.95818Z" fill="#0CC19B" fill-opacity="0.5"/>
<path fill-rule="evenodd" clip-rule="evenodd" d="M26.427 6.95818L30.7737 6.96266L30.1449 8.06664L27.8803 12.0407L27.8816 12.0404H27.9001L27.1758 13.3097C26.5653 14.3788 26.9082 15.74 27.9377 16.3868L28.0016 16.4255C28.2916 16.5948 28.6033 16.6916 28.9162 16.7214L28.9163 16.7748L25.1844 16.7747L25.1829 16.7781L19.002 16.7783C19.6872 16.7064 20.3305 16.3249 20.7182 15.6943L20.7617 15.6204L25.3333 7.54074C25.5926 7.20191 25.9916 6.97792 26.443 6.95703L26.427 6.95818Z" fill="#003CB2"/>
</g>
<path d="M10.4423 0.581055C15.6878 0.581055 19.9392 4.83336 19.9392 10.078C19.9392 15.3235 15.6878 19.575 10.4423 19.575C5.19762 19.575 0.945312 15.3231 0.945312 10.078C0.945312 4.83336 5.19762 0.581055 10.4423 0.581055Z" fill="#F5AC37"/>
<path d="M10.7878 10.7468H14.3965C14.4734 10.7468 14.5098 10.7468 14.5153 10.6459C14.5448 10.2788 14.5448 9.90959 14.5153 9.54206C14.5153 9.47069 14.4798 9.4412 14.4025 9.4412H7.22058C7.13169 9.4412 7.10775 9.47069 7.10775 9.55402V10.6105C7.10775 10.7468 7.10775 10.7468 7.25007 10.7468H10.7878ZM14.1123 8.20653C14.1226 8.17961 14.1226 8.15012 14.1123 8.12363C14.052 7.99242 13.9807 7.8672 13.8978 7.74968C13.773 7.54882 13.626 7.36377 13.4584 7.19752C13.3794 7.09709 13.2879 7.00691 13.1853 6.93042C12.6716 6.49322 12.0609 6.1838 11.4045 6.02824C11.0733 5.95388 10.7348 5.91841 10.3955 5.9214H7.20818C7.11929 5.9214 7.10733 5.95687 7.10733 6.03423V8.14115C7.10733 8.23004 7.10733 8.25397 7.22015 8.25397H14.0696C14.0696 8.25397 14.129 8.24201 14.1409 8.20653H14.1119H14.1123ZM14.1123 11.9815C14.0114 11.9704 13.9097 11.9704 13.8089 11.9815H7.22656C7.13767 11.9815 7.10775 11.9815 7.10775 12.1003V14.1602C7.10775 14.2551 7.10775 14.279 7.22656 14.279H10.2656C10.4109 14.2901 10.5562 14.2799 10.6985 14.2495C11.1395 14.2179 11.5733 14.1222 11.987 13.9645C12.1374 13.9123 12.2827 13.8444 12.4199 13.7627H12.4614C13.1738 13.3922 13.7525 12.8101 14.1174 12.0956C14.1174 12.0956 14.1589 12.0058 14.1123 11.9823V11.9815ZM5.91497 15.347V15.3115V13.9286V13.4597V12.0648C5.91497 11.9875 5.91497 11.9759 5.8201 11.9759H4.53201C4.46064 11.9759 4.43115 11.9759 4.43115 11.881V10.7532H5.80813C5.88506 10.7532 5.91497 10.7532 5.91497 10.6524V9.5365C5.91497 9.46513 5.91497 9.44761 5.8201 9.44761H4.53201C4.46064 9.44761 4.43115 9.44761 4.43115 9.35273V8.30825C4.43115 8.24286 4.43115 8.22534 4.52603 8.22534H5.80215C5.89104 8.22534 5.91497 8.22534 5.91497 8.11251V4.91324C5.91497 4.81837 5.91497 4.79443 6.03378 4.79443H10.4852C10.8083 4.80725 11.1293 4.84273 11.4468 4.90128C12.1011 5.02222 12.7298 5.25599 13.3046 5.58976C13.6858 5.81413 14.0367 6.08508 14.3491 6.39706C14.5841 6.64109 14.7961 6.9052 14.9841 7.18641C15.1709 7.47146 15.326 7.77618 15.4478 8.09456C15.4628 8.17747 15.5423 8.23346 15.6252 8.21936H16.6876C16.8239 8.21936 16.8239 8.21936 16.8299 8.35013V9.32367C16.8299 9.41855 16.7945 9.44248 16.6992 9.44248H15.8799C15.797 9.44248 15.7731 9.44248 15.779 9.54932C15.8115 9.91088 15.8115 10.2737 15.779 10.6353C15.779 10.7361 15.779 10.7481 15.8923 10.7481H16.8295C16.871 10.8015 16.8295 10.8549 16.8295 10.9088C16.8355 10.9776 16.8355 11.0472 16.8295 11.1161V11.8345C16.8295 11.9353 16.8 11.9652 16.7107 11.9652H15.5889C15.5106 11.9503 15.4346 12.0003 15.4166 12.0781C15.1495 12.7725 14.7222 13.3952 14.17 13.8944C13.9683 14.076 13.7563 14.2469 13.5349 14.4046C13.2973 14.5414 13.0661 14.6837 12.8225 14.7965C12.3742 14.9983 11.9041 15.147 11.4216 15.2414C10.9635 15.3235 10.4989 15.3607 10.0327 15.3543H5.91326V15.3483L5.91497 15.347Z" fill="#FEFEFD"/>
<defs>
<clipPath id="clip0_1408_4581">
<rect width="19.5798" height="14.3456" fill="white" transform="translate(16.1582 2.88477)"/>
</clipPath>
</defs>
</svg>
