<svg width="48" height="48" viewBox="0 0 48 48" fill="none" xmlns="http://www.w3.org/2000/svg">
<g clip-path="url(#clip0_2445_4219)">
<path d="M24 0C37.2561 0 48 10.7461 48 24C48 37.2561 37.2561 48 24 48C10.7461 48 0 37.255 0 24C0 10.7461 10.7461 0 24 0Z" fill="white"/>
<path d="M16.1452 31.2985L12.7883 37.1144H35.6412L32.2844 31.2985H16.1452Z" fill="black"/>
<path d="M24.2147 17.3219L20.8578 11.506L9.4295 31.2983H16.1451L24.2147 17.3219Z" fill="black"/>
<path d="M32.2844 31.2983H39L27.5717 11.506L24.2148 17.3219L32.2844 31.2983Z" fill="black"/>
<path d="M24.2148 30.2985C26.2223 30.2985 27.8497 28.671 27.8497 26.6635C27.8497 24.656 26.2223 23.0286 24.2148 23.0286C22.2073 23.0286 20.5798 24.656 20.5798 26.6635C20.5798 28.671 22.2073 30.2985 24.2148 30.2985Z" fill="black"/>
</g>
<defs>
<clipPath id="clip0_2445_4219">
<rect width="48" height="48" fill="white"/>
</clipPath>
</defs>
</svg>
