<svg width="653" height="186" viewBox="0 0 653 186" fill="none" xmlns="http://www.w3.org/2000/svg">
<path d="M163.166 136.608L170.607 127.359L176.718 118.355L170.252 126.54L163.166 136.608Z" fill="#FDF4F8"/>
<path d="M179.818 137.18L169.543 127.358L159.445 118.846L168.657 127.522L179.818 137.18Z" fill="#FDF4F8"/>
<path d="M151.562 128.503L170.075 128.667L186.816 127.275L170.518 127.357L151.562 128.503Z" fill="#FDF4F8"/>
<path d="M169.544 109.105L169.102 127.767L170.253 144.873L170.43 128.422L169.544 109.105Z" fill="#FDF4F8"/>
<path d="M545.822 70.7191L553.263 61.4702L559.375 52.4668L552.908 60.6517L545.822 70.7191Z" fill="#FDF4F8"/>
<path d="M562.474 71.3713L552.111 61.4675L542.102 53.0371L551.314 61.6312L562.474 71.3713Z" fill="#FDF4F8"/>
<path d="M534.219 62.6963L552.731 62.7781L569.473 61.3867L553.174 61.4686L534.219 62.6963Z" fill="#FDF4F8"/>
<path d="M552.201 43.2168L551.758 61.8783L552.909 78.9848L553.086 62.5331L552.201 43.2168Z" fill="#FDF4F8"/>
<path d="M638.826 133.005L646.267 133.087L652.999 132.514H646.444L638.826 133.005Z" fill="#FDF4F8"/>
<path d="M646.089 125.229L645.912 132.677L646.355 139.552L646.444 133.004L646.089 125.229Z" fill="#FDF4F8"/>
<path d="M564.422 132.595H571.862L578.594 132.104H572.04L564.422 132.595Z" fill="#FDF4F8"/>
<path d="M571.685 124.818L571.508 132.267L571.951 139.142L572.039 132.512L571.685 124.818Z" fill="#FDF4F8"/>
<path d="M624.479 20.2976H631.83L638.562 19.7246L632.008 19.8065L624.479 20.2976Z" fill="#FDF4F8"/>
<path d="M631.654 12.4395L631.477 19.9696L631.919 26.8449L632.008 20.2151L631.654 12.4395Z" fill="#FDF4F8"/>
<path d="M163.965 47.2253H171.405L178.137 46.6523L171.583 46.7342L163.965 47.2253Z" fill="#FDF4F8"/>
<path d="M171.228 39.4492L171.051 46.8975L171.494 53.7728L171.582 47.143L171.228 39.4492Z" fill="#FDF4F8"/>
<path d="M495.863 14.9794L503.304 15.0612L509.947 14.4883L503.481 14.5701L495.863 14.9794Z" fill="#FDF4F8"/>
<path d="M503.038 7.20312L502.861 14.7332L503.304 21.5267L503.393 14.9788L503.038 7.20312Z" fill="#FDF4F8"/>
<path d="M316.406 175.403L323.847 166.236L329.959 157.15L323.492 165.335L316.406 175.403Z" fill="#FDF4F8"/>
<path d="M333.058 176.059L322.695 166.237L312.686 157.725L321.898 166.319L333.058 176.059Z" fill="#FDF4F8"/>
<path d="M304.803 167.382L323.227 167.546L339.968 166.154L323.758 166.236L304.803 167.382Z" fill="#FDF4F8"/>
<path d="M322.696 147.984L322.342 166.646L323.493 183.752L323.67 167.301L322.696 147.984Z" fill="#FDF4F8"/>
<path d="M57.0508 115.488L68.2116 101.655L77.335 88.0684L67.6801 100.428L57.0508 115.488Z" fill="#FDF4F8"/>
<path d="M82.0299 116.39L66.5289 101.657L51.4707 88.9707L65.2888 101.821L82.0299 116.39Z" fill="#FDF4F8"/>
<path d="M39.6895 103.457L67.3256 103.62L92.3931 101.492L68.0342 101.656L39.6895 103.457Z" fill="#FDF4F8"/>
<path d="M66.5282 74.3184L65.9082 102.229L67.6798 127.848L67.9455 103.211L66.5282 74.3184Z" fill="#FDF4F8"/>
<path d="M497.903 115.245L492.322 108.37L487.805 101.658L492.588 107.715L497.903 115.245Z" fill="white"/>
<path d="M485.414 115.737L493.209 108.371L500.649 102.068L493.829 108.453L485.414 115.737Z" fill="white"/>
<path d="M506.583 109.271L492.765 109.353L480.275 108.289L492.411 108.371L506.583 109.271Z" fill="white"/>
<path d="M493.12 94.7832L493.474 108.698L492.589 121.466L492.5 109.189L493.12 94.7832Z" fill="white"/>
<path d="M283.896 83.0748L281.504 80.1282L279.467 77.1816L281.593 79.8008L283.896 83.0748Z" fill="white"/>
<path d="M278.494 83.3207L281.86 80.1286L285.137 77.3457L282.126 80.1286L278.494 83.3207Z" fill="white"/>
<path d="M287.706 80.4561L281.683 80.538L276.279 80.0469L281.505 80.1287L287.706 80.4561Z" fill="white"/>
<path d="M281.86 74.1543L281.949 80.2111L281.594 85.7768L281.506 80.4567L281.86 74.1543Z" fill="white"/>
<path d="M318.176 19.5605L316.316 17.3505L314.811 15.1406L316.405 17.105L318.176 19.5605Z" fill="white"/>
<path d="M314.104 19.7265L316.584 17.3529L319.064 15.3066L316.849 17.3529L314.104 19.7265Z" fill="white"/>
<path d="M320.923 17.5971L316.494 17.679L312.42 17.3516H316.317L320.923 17.5971Z" fill="white"/>
<path d="M316.583 12.9316L316.672 17.4333L316.406 21.6076V17.597L316.583 12.9316Z" fill="white"/>
<path d="M39.5977 7.19914L37.8261 4.98922L36.3203 2.7793L37.9147 4.74367L39.5977 7.19914Z" fill="white"/>
<path d="M35.6133 7.36497L38.0934 4.99135L40.485 2.86328L38.2706 4.99135L35.6133 7.36497Z" fill="white"/>
<path d="M42.4331 5.2356H37.9157L33.9297 4.9082L37.8271 4.99005L42.4331 5.2356Z" fill="white"/>
<path d="M38.0919 0.570312L38.1805 5.072L37.9147 9.16445L37.8262 5.2357L38.0919 0.570312Z" fill="white"/>
<path d="M442.097 36.4224L439.617 33.394L437.668 30.5293L439.794 33.1485L442.097 36.4224Z" fill="white"/>
<path d="M436.693 36.5884L440.059 33.3963L443.248 30.6953L440.325 33.4782L436.693 36.5884Z" fill="white"/>
<path d="M445.817 33.8038L439.794 33.8856L434.391 33.3945H439.705L445.817 33.8038Z" fill="white"/>
<path d="M439.971 27.502L440.148 33.5588L439.794 39.1245L439.705 33.8043L439.971 27.502Z" fill="white"/>
<path d="M418.357 122.688L415.965 119.741L413.928 116.795L416.054 119.414L418.357 122.688Z" fill="white"/>
<path d="M412.955 122.936L416.321 119.744L419.598 116.961L416.587 119.744L412.955 122.936Z" fill="white"/>
<path d="M422.167 120.069L416.143 120.151L410.74 119.66L415.966 119.742L422.167 120.069Z" fill="white"/>
<path d="M416.32 113.768L416.409 119.824L416.055 125.39V120.07L416.32 113.768Z" fill="white"/>
<path d="M617.571 76.4459L615.179 73.4993L613.23 70.5527L615.268 73.1719L617.571 76.4459Z" fill="white"/>
<path d="M612.168 76.6119L615.534 73.4198L618.811 70.7188L615.8 73.5016L612.168 76.6119Z" fill="white"/>
<path d="M621.38 73.8272L615.356 73.9091L609.953 73.418L615.179 73.4998L621.38 73.8272Z" fill="white"/>
<path d="M615.533 67.5254L615.71 73.5822L615.268 79.1479V73.8278L615.533 67.5254Z" fill="white"/>
<path d="M365.388 61.7933L362.908 58.7649L360.959 55.8184L363.085 58.5194L365.388 61.7933Z" fill="white"/>
<path d="M359.984 61.9595L363.262 58.7674L366.539 56.0664L363.527 58.8493L359.984 61.9595Z" fill="white"/>
<path d="M369.108 59.1749H363.085L357.682 58.7656H362.996L369.108 59.1749Z" fill="white"/>
<path d="M363.262 52.873L363.439 58.9299L363.085 64.4137L362.996 59.0936L363.262 52.873Z" fill="white"/>
<path d="M108.335 8.83843L105.944 5.89187L103.906 2.94531L106.032 5.64633L108.335 8.83843Z" fill="white"/>
<path d="M102.934 9.0863L106.3 5.89419L109.577 3.11133L106.565 5.97604L102.934 9.0863Z" fill="white"/>
<path d="M112.145 6.30182H106.122L100.719 5.89258H105.945L112.145 6.30182Z" fill="white"/>
<path d="M106.299 0L106.388 6.05682L106.033 11.5407V6.22052L106.299 0Z" fill="white"/>
<path d="M190.625 11.4576L188.234 8.51101L186.285 5.56445L188.322 8.18362L190.625 11.4576Z" fill="white"/>
<path d="M185.223 11.7054L188.589 8.51333L191.866 5.73047L188.854 8.51333L185.223 11.7054Z" fill="white"/>
<path d="M194.434 8.84089L188.411 8.92273L183.008 8.43164L188.234 8.51349L194.434 8.84089Z" fill="white"/>
<path d="M188.588 2.61914L188.677 8.59411L188.322 14.1598V8.83966L188.588 2.61914Z" fill="white"/>
<path d="M103.995 182.356L101.604 179.328L99.5664 176.463L101.692 179.082L103.995 182.356Z" fill="white"/>
<path d="M98.5938 182.522L101.96 179.33L105.237 176.629L102.225 179.412L98.5938 182.522Z" fill="white"/>
<path d="M107.805 179.737L101.782 179.819L96.3789 179.328H101.605L107.805 179.737Z" fill="white"/>
<path d="M101.959 173.436L102.048 179.492L101.693 185.058V179.738L101.959 173.436Z" fill="white"/>
</svg>
