<svg width="19" height="13" viewBox="0 0 19 13" fill="none" xmlns="http://www.w3.org/2000/svg">
<g clip-path="url(#clip0_1515_12902)">
<path fill-rule="evenodd" clip-rule="evenodd" d="M13.8624 3.62183L13.8624 3.62234L14.776 3.62727C14.8799 3.61956 14.9848 3.62 15.0895 3.62886L17.321 3.64083C17.6604 3.66044 17.9294 3.9441 17.9294 4.2913C17.9294 4.45539 17.8694 4.60528 17.7702 4.71972L16.6843 6.61629C16.6758 6.63229 16.6669 6.64822 16.6579 6.66407L13.971 11.3695C13.607 12.0069 12.9525 12.3689 12.2743 12.3833L12.2744 12.3838L12.2428 12.3838C12.2253 12.3839 12.2078 12.3837 12.1903 12.3834L4.23956 12.3423H3.35352L3.35356 12.3265C4.02668 12.2321 4.593 11.8 4.87976 11.2049L4.88617 11.205L8.78139 4.35548C9.00005 3.92014 9.44711 3.62183 9.96309 3.62183L9.92716 3.62259L9.92838 3.62183H13.8624Z" fill="#2BBDF7"/>
<path fill-rule="evenodd" clip-rule="evenodd" d="M7.63799 0.260469L14.6559 0.260582C14.9952 0.280212 15.2642 0.563868 15.2642 0.911053C15.2642 1.05022 15.221 1.17918 15.1474 1.28495L13.2534 4.60949L11.24 8.14276L11.2411 8.14243H11.2575L10.6136 9.27092C10.0708 10.2215 10.3757 11.4316 11.291 12.0067L11.3478 12.0411C11.6056 12.1917 11.8828 12.2777 12.161 12.3042L12.1611 12.3517L8.84311 12.3516L8.84178 12.3546H3.0879C2.76119 12.3486 2.42945 12.2649 2.12252 12.0929C1.13541 11.5397 0.778766 10.2821 1.32593 9.28406L5.69247 1.31926C6.09266 0.589293 6.86549 0.200319 7.63799 0.260469Z" fill="#2B6DEF"/>
<path fill-rule="evenodd" clip-rule="evenodd" d="M9.93928 3.62114L13.8038 3.62513L13.2448 4.60665L11.2314 8.13991L11.2326 8.13959H11.249L10.6051 9.26808C10.0623 10.2186 10.3671 11.4288 11.2824 12.0039L11.3392 12.0383C11.5971 12.1888 11.8742 12.2749 12.1524 12.3014L12.1525 12.3488L8.83456 12.3488L8.83323 12.3517L3.33789 12.3519C3.94712 12.288 4.51907 11.9489 4.86372 11.3882L4.90247 11.3225L8.9669 4.13908C9.19744 3.83784 9.55218 3.63869 9.9535 3.62012L9.93928 3.62114Z" fill="#001C52"/>
<path fill-rule="evenodd" clip-rule="evenodd" d="M9.93928 3.62114L13.8038 3.62513L13.2448 4.60665L11.2314 8.13991L11.2326 8.13959H11.249L10.6051 9.26808C10.0623 10.2186 10.3671 11.4288 11.2824 12.0039L11.3392 12.0383C11.5971 12.1888 11.8742 12.2749 12.1524 12.3014L12.1525 12.3488L8.83456 12.3488L8.83323 12.3517L3.33789 12.3519C3.94712 12.288 4.51907 11.9489 4.86372 11.3882L4.90247 11.3225L8.9669 4.13908C9.19744 3.83784 9.55218 3.63869 9.9535 3.62012L9.93928 3.62114Z" fill="#0CC19B" fill-opacity="0.5"/>
<path fill-rule="evenodd" clip-rule="evenodd" d="M9.93928 3.62114L13.8038 3.62513L13.2448 4.60665L11.2314 8.13991L11.2326 8.13959H11.249L10.6051 9.26808C10.0623 10.2186 10.3671 11.4288 11.2824 12.0039L11.3392 12.0383C11.5971 12.1888 11.8742 12.2749 12.1524 12.3014L12.1525 12.3488L8.83456 12.3488L8.83323 12.3517L3.33789 12.3519C3.94712 12.288 4.51907 11.9489 4.86372 11.3882L4.90247 11.3225L8.9669 4.13908C9.19744 3.83784 9.55218 3.63869 9.9535 3.62012L9.93928 3.62114Z" fill="#003CB2"/>
</g>
<defs>
<clipPath id="clip0_1515_12902">
<rect width="17.4079" height="12.7543" fill="white" transform="translate(0.814453)"/>
</clipPath>
</defs>
</svg>
