<svg width="42" height="30" viewBox="0 0 42 30" fill="none" xmlns="http://www.w3.org/2000/svg">
<path fill-rule="evenodd" clip-rule="evenodd" d="M31.728 8.29883L31.7279 8.30007L33.9501 8.31206C34.2029 8.29331 34.4579 8.29439 34.7127 8.31594L40.1402 8.34505C40.9657 8.39274 41.6201 9.08268 41.6201 9.92715C41.6201 10.3262 41.4739 10.6908 41.2328 10.9692L38.5917 15.5821C38.5708 15.621 38.5494 15.6597 38.5273 15.6983L31.9922 27.143C31.107 28.6933 29.5151 29.5738 27.8654 29.6089L27.8656 29.61L27.7887 29.6099C27.7462 29.6102 27.7037 29.6098 27.6612 29.6089L8.32303 29.5092H6.16797L6.16808 29.4706C7.80525 29.2411 9.18269 28.1901 9.88015 26.7426L9.89575 26.743L19.3698 10.0833C19.9017 9.02439 20.989 8.29883 22.244 8.29883L22.1566 8.30069L22.1596 8.29883H31.728Z" fill="#2BBDF7"/>
<path fill-rule="evenodd" clip-rule="evenodd" d="M16.5898 0.12415L33.659 0.124425C34.4842 0.17217 35.1386 0.862087 35.1386 1.70652C35.1386 2.04501 35.0334 2.35866 34.8544 2.61593L30.2477 10.702L25.3507 19.2957L25.3534 19.2949H25.3933L23.8272 22.0397C22.5071 24.3516 23.2484 27.295 25.4747 28.6938L25.6128 28.7775C26.24 29.1436 26.9141 29.3529 27.5908 29.4174L27.591 29.5328L19.5209 29.5327L19.5177 29.5399H5.5229C4.72827 29.5253 3.9214 29.3218 3.17488 28.9034C0.773995 27.5579 -0.0934536 24.4992 1.23738 22.0717L11.8578 2.69938C12.8312 0.923927 14.7109 -0.0221486 16.5898 0.12415Z" fill="#2B6DEF"/>
<path fill-rule="evenodd" clip-rule="evenodd" d="M22.1889 8.29936L31.5885 8.30906L30.2288 10.6963L25.3317 19.2901L25.3345 19.2893H25.3744L23.8083 22.034C22.4881 24.346 23.2295 27.2894 25.4558 28.6882L25.5939 28.7719C26.221 29.138 26.8952 29.3473 27.5718 29.4118L27.572 29.5272L19.502 29.527L19.4988 29.5342L6.13281 29.5347C7.6146 29.3793 9.00572 28.5544 9.84399 27.1906L9.93824 27.0308L19.8239 9.55911C20.3846 8.82642 21.2474 8.34204 22.2235 8.29688L22.1889 8.29936Z" fill="white"/>
<path fill-rule="evenodd" clip-rule="evenodd" d="M22.1889 8.29936L31.5885 8.30906L30.2288 10.6963L25.3317 19.2901L25.3345 19.2893H25.3744L23.8083 22.034C22.4881 24.346 23.2295 27.2894 25.4558 28.6882L25.5939 28.7719C26.221 29.138 26.8952 29.3473 27.5718 29.4118L27.572 29.5272L19.502 29.527L19.4988 29.5342L6.13281 29.5347C7.6146 29.3793 9.00572 28.5544 9.84399 27.1906L9.93824 27.0308L19.8239 9.55911C20.3846 8.82642 21.2474 8.34204 22.2235 8.29688L22.1889 8.29936Z" fill="#0CC19B" fill-opacity="0.5"/>
<path fill-rule="evenodd" clip-rule="evenodd" d="M22.1889 8.29936L31.5885 8.30906L30.2288 10.6963L25.3317 19.2901L25.3345 19.2893H25.3744L23.8083 22.034C22.4881 24.346 23.2295 27.2894 25.4558 28.6882L25.5939 28.7719C26.221 29.138 26.8952 29.3473 27.5718 29.4118L27.572 29.5272L19.502 29.527L19.4988 29.5342L6.13281 29.5347C7.6146 29.3793 9.00572 28.5544 9.84399 27.1906L9.93824 27.0308L19.8239 9.55911C20.3846 8.82642 21.2474 8.34204 22.2235 8.29688L22.1889 8.29936Z" fill="#003CB2"/>
</svg>
