<svg width="152" height="32" viewBox="0 0 152 32" fill="none" xmlns="http://www.w3.org/2000/svg">
<path fill-rule="evenodd" clip-rule="evenodd" d="M31.728 9.29883L31.7279 9.30007L33.9501 9.31206C34.2029 9.29331 34.4579 9.29439 34.7127 9.31594L40.1402 9.34505C40.9657 9.39274 41.6201 10.0827 41.6201 10.9271C41.6201 11.3262 41.4739 11.6908 41.2328 11.9692L38.5917 16.5821C38.5708 16.621 38.5494 16.6597 38.5273 16.6983L31.9922 28.143C31.107 29.6933 29.5151 30.5738 27.8654 30.6089L27.8656 30.61L27.7887 30.6099C27.7462 30.6102 27.7037 30.6098 27.6612 30.6089L8.32303 30.5092H6.16797L6.16808 30.4706C7.80525 30.2411 9.18269 29.1901 9.88015 27.7426L9.89575 27.743L19.3698 11.0833C19.9017 10.0244 20.989 9.29883 22.244 9.29883L22.1566 9.30069L22.1596 9.29883H31.728Z" fill="#2BBDF7"/>
<path fill-rule="evenodd" clip-rule="evenodd" d="M16.5898 1.12415L33.659 1.12442C34.4842 1.17217 35.1386 1.86209 35.1386 2.70652C35.1386 3.04501 35.0334 3.35866 34.8544 3.61593L30.2477 11.702L25.3507 20.2957L25.3534 20.2949H25.3933L23.8272 23.0397C22.5071 25.3516 23.2484 28.295 25.4747 29.6938L25.6128 29.7775C26.24 30.1436 26.9141 30.3529 27.5908 30.4174L27.591 30.5328L19.5209 30.5327L19.5177 30.5399H5.5229C4.72827 30.5253 3.9214 30.3218 3.17488 29.9034C0.773995 28.5579 -0.0934536 25.4992 1.23738 23.0717L11.8578 3.69938C12.8312 1.92393 14.7109 0.977851 16.5898 1.12415Z" fill="#2B6DEF"/>
<path fill-rule="evenodd" clip-rule="evenodd" d="M22.1889 9.29936L31.5885 9.30906L30.2288 11.6963L25.3317 20.2901L25.3345 20.2893H25.3744L23.8083 23.034C22.4881 25.346 23.2295 28.2894 25.4558 29.6882L25.5939 29.7719C26.221 30.138 26.8952 30.3473 27.5718 30.4118L27.572 30.5272L19.502 30.527L19.4988 30.5342L6.13281 30.5347C7.6146 30.3793 9.00572 29.5544 9.84399 28.1906L9.93824 28.0308L19.8239 10.5591C20.3846 9.82642 21.2474 9.34204 22.2235 9.29688L22.1889 9.29936Z" fill="white"/>
<path fill-rule="evenodd" clip-rule="evenodd" d="M22.1889 9.29936L31.5885 9.30906L30.2288 11.6963L25.3317 20.2901L25.3345 20.2893H25.3744L23.8083 23.034C22.4881 25.346 23.2295 28.2894 25.4558 29.6882L25.5939 29.7719C26.221 30.138 26.8952 30.3473 27.5718 30.4118L27.572 30.5272L19.502 30.527L19.4988 30.5342L6.13281 30.5347C7.6146 30.3793 9.00572 29.5544 9.84399 28.1906L9.93824 28.0308L19.8239 10.5591C20.3846 9.82642 21.2474 9.34204 22.2235 9.29688L22.1889 9.29936Z" fill="#0CC19B" fill-opacity="0.5"/>
<path fill-rule="evenodd" clip-rule="evenodd" d="M22.1889 9.29936L31.5885 9.30906L30.2288 11.6963L25.3317 20.2901L25.3345 20.2893H25.3744L23.8083 23.034C22.4881 25.346 23.2295 28.2894 25.4558 29.6882L25.5939 29.7719C26.221 30.138 26.8952 30.3473 27.5718 30.4118L27.572 30.5272L19.502 30.527L19.4988 30.5342L6.13281 30.5347C7.6146 30.3793 9.00572 29.5544 9.84399 28.1906L9.93824 28.0308L19.8239 10.5591C20.3846 9.82642 21.2474 9.34204 22.2235 9.29688L22.1889 9.29936Z" fill="#003CB2"/>
<path d="M56.5342 27.0719C53.9017 27.0719 51.8213 26.3496 50.2928 24.9049C48.7643 23.4603 48 21.4101 48 18.7545V7.1867H53.095V18.3084C53.095 19.668 53.3922 20.709 53.9867 21.4314C54.6023 22.1537 55.4515 22.5149 56.5342 22.5149C57.5956 22.5149 58.4236 22.1537 59.018 21.4314C59.6336 20.709 59.9415 19.668 59.9415 18.3084V7.1867H65.0365V18.7864C65.0365 21.4208 64.2722 23.4603 62.7437 24.9049C61.2152 26.3496 59.1454 27.0719 56.5342 27.0719Z" fill="white"/>
<path d="M67.3064 26.7532V12.4129H72.3059V13.6558C73.24 12.6148 74.5243 12.0943 76.159 12.0943C77.7299 12.0943 78.9612 12.5723 79.8529 13.5283C80.7657 14.4631 81.2222 15.7378 81.2222 17.3524V26.7532H76.2545V18.5633C76.2545 17.9472 76.0953 17.4586 75.7769 17.0974C75.4584 16.715 74.9914 16.5238 74.3757 16.5238C73.8662 16.5238 73.4204 16.6619 73.0383 16.9381C72.6774 17.2143 72.4332 17.5967 72.3059 18.0853V26.7532H67.3064Z" fill="white"/>
<path d="M88.5002 12.4129V26.7532H83.5007V12.4129H88.5002ZM88.8505 8.52512C88.8505 9.31118 88.5745 9.95915 88.0226 10.469C87.4706 10.9577 86.8019 11.202 86.0164 11.202C85.2309 11.202 84.5622 10.9577 84.0102 10.469C83.4583 9.95915 83.1823 9.31118 83.1823 8.52512C83.1823 7.71782 83.4583 7.06985 84.0102 6.58122C84.5622 6.07134 85.2309 5.81641 86.0164 5.81641C86.8019 5.81641 87.4706 6.07134 88.0226 6.58122C88.5745 7.06985 88.8505 7.71782 88.8505 8.52512Z" fill="white"/>
<path d="M91.0219 26.7532V7.1867H96.1488V22.3237H104.906V26.7532H91.0219Z" fill="white"/>
<path d="M115.377 21.75H119.994C119.739 23.4071 119.017 24.7137 117.828 25.6697C116.64 26.6045 115.122 27.0719 113.275 27.0719C111.088 27.0719 109.326 26.3814 107.989 25.0005C106.651 23.6196 105.983 21.8138 105.983 19.5831C105.983 17.3736 106.662 15.5784 108.021 14.1975C109.379 12.7953 111.099 12.0943 113.179 12.0943C115.345 12.0943 117.032 12.7529 118.242 14.07C119.453 15.3872 120.058 17.1293 120.058 19.2963V20.5391H110.791C110.961 22.3024 111.789 23.1841 113.275 23.1841C114.4 23.1841 115.101 22.7061 115.377 21.75ZM113.179 15.9821C111.969 15.9821 111.205 16.6725 110.887 18.0534H115.217C115.175 17.4373 114.973 16.9381 114.612 16.5557C114.251 16.1733 113.774 15.9821 113.179 15.9821Z" fill="white"/>
<path d="M121.635 26.7532V12.4129H126.635V13.6558C127.569 12.6148 128.853 12.0943 130.488 12.0943C132.059 12.0943 133.29 12.5723 134.182 13.5283C135.094 14.4631 135.551 15.7378 135.551 17.3524V26.7532H130.583V18.5633C130.583 17.9472 130.424 17.4586 130.106 17.0974C129.787 16.715 129.32 16.5238 128.704 16.5238C128.195 16.5238 127.749 16.6619 127.367 16.9381C127.006 17.2143 126.762 17.5967 126.635 18.0853V26.7532H121.635Z" fill="white"/>
<path d="M147.001 26.7532V25.606C146.64 26.0096 146.13 26.3602 145.472 26.6576C144.835 26.9338 144.166 27.0719 143.466 27.0719C141.47 27.0719 139.899 26.3708 138.753 24.9686C137.628 23.5452 137.065 21.75 137.065 19.5831C137.065 17.4161 137.628 15.6315 138.753 14.2294C139.899 12.806 141.47 12.0943 143.466 12.0943C144.166 12.0943 144.835 12.243 145.472 12.5404C146.13 12.8166 146.64 13.1565 147.001 13.5602V6.03948H152V26.7532H147.001ZM147.001 21.4632V17.671C146.809 17.2886 146.512 16.97 146.109 16.715C145.706 16.4601 145.27 16.3326 144.803 16.3326C143.954 16.3326 143.285 16.6407 142.797 17.2568C142.309 17.8516 142.065 18.6271 142.065 19.5831C142.065 20.5178 142.309 21.2933 142.797 21.9094C143.285 22.5042 143.954 22.8017 144.803 22.8017C145.844 22.8017 146.576 22.3555 147.001 21.4632Z" fill="white"/>
</svg>
