<svg width="281" height="170" viewBox="0 0 281 170" fill="none" xmlns="http://www.w3.org/2000/svg">
<g clip-path="url(#clip0_4097_16239)">
<path fill-rule="evenodd" clip-rule="evenodd" d="M85.1732 0.0421143C38.4855 0.0421143 0.635986 37.6749 0.635986 84.1325C0.635986 130.59 38.4855 168.234 85.1732 168.234H221.518V168.046C254.753 165.626 280.962 138.028 280.962 104.339C280.962 69.0606 252.213 40.4624 216.752 40.4624C206.725 40.4491 196.835 42.7824 187.881 47.2739C180.467 43.9438 172.422 42.229 164.287 42.2446C162.385 42.2446 160.506 42.3342 158.651 42.5134C144.098 17.1435 116.646 0.0421143 85.1732 0.0421143Z" fill="#E6EEF9"/>
<path d="M275.042 168.185H13.4164V168.645H275.042V168.185Z" fill="#000446"/>
<path d="M225.96 91.2342C225.471 90.866 225.342 90.5246 224.758 90.3499C224.331 90.2235 223.874 89.737 223.504 89.4843C223.215 89.2854 221.918 88.6161 222.248 88.108C222.264 88.0804 222.285 88.0567 222.312 88.0385C222.338 88.0204 222.368 88.0083 222.399 88.0032C222.224 87.772 222.645 87.5408 222.796 87.4656C222.65 87.2183 223.04 86.928 223.239 86.885C222.969 86.5275 224.172 85.6565 224.407 86.1216C224.842 85.9925 224.788 86.1538 225.05 86.3904C225.117 86.3608 226.982 88.3231 227.103 88.522C227.29 88.8177 227.374 89.1671 227.709 89.3284L225.96 91.2342Z" fill="#F7AAAC"/>
<mask id="mask0_4097_16239" style="mask-type:luminance" maskUnits="userSpaceOnUse" x="225" y="88" width="31" height="14">
<path d="M251.367 93.3176C253.183 93.4681 255.66 95.7368 255.444 97.6668C255.388 98.1776 255.66 98.7421 254.858 99.2474C252.018 101.027 242.18 102.22 238.703 100.624C235.847 99.3146 227.354 93.1993 225.917 90.4494C225.479 89.6027 226.636 88.6672 227.038 88.4361C227.827 87.7157 234.088 93.2557 240.77 94.9734C246.282 96.39 249.735 93.1805 251.367 93.3176Z" fill="white"/>
</mask>
<g mask="url(#mask0_4097_16239)">
<path d="M255.661 87.7076H225.477V102.212H255.661V87.7076Z" fill="url(#paint0_linear_4097_16239)"/>
</g>
<mask id="mask1_4097_16239" style="mask-type:luminance" maskUnits="userSpaceOnUse" x="80" y="40" width="32" height="12">
<path d="M84.9406 43.2525C83.0303 43.4003 80.431 45.6395 80.6579 47.5292C80.7174 48.0292 80.4283 48.5856 81.274 49.0829C84.2462 50.8328 95.5567 52.0075 99.2098 50.4269C102.206 49.1393 109.418 45.5239 110.912 42.8197C111.374 41.9891 110.158 41.0671 109.737 40.8386C108.907 40.1317 104.063 43.1826 97.0374 44.8707C91.2498 46.2631 86.6537 43.1073 84.9406 43.2417" fill="white"/>
</mask>
<g mask="url(#mask1_4097_16239)">
<path d="M111.372 40.1425H80.4283V52.0075H111.372V40.1425Z" fill="url(#paint1_linear_4097_16239)"/>
</g>
<path d="M109.878 22.5972L101.839 77.7572L145.225 84.0154L153.264 28.8554L109.878 22.5972Z" fill="url(#paint2_linear_4097_16239)"/>
<mask id="mask2_4097_16239" style="mask-type:luminance" maskUnits="userSpaceOnUse" x="69" y="50" width="30" height="71">
<path d="M97.3186 70.1519C100.928 90.6886 94.7544 109.161 92.5036 116.088C93.5088 116.626 97.8887 117.782 98.4858 118.346C98.9127 118.755 99.6288 120.4 93.7465 120.246C89.5693 120.136 87.5509 120.494 87.105 119.819C86.7187 119.241 86.9537 115.602 86.9294 115.602C88.7668 97.1668 88.9505 96.0163 87.9508 84.205C87.1212 87.8984 83.8599 102.605 74.9812 114.502C74.8056 114.736 74.3489 116.481 74.6381 117.241C74.7488 117.534 75.5162 117.878 75.7945 118.238C76.2187 118.776 75.8675 119.182 75.4919 119.44C74.3219 120.246 71.6605 119.652 71.2498 119.647C69.1341 119.378 70.3581 115.884 69.7799 114.244C69.5394 113.559 71.1606 112.448 71.0309 112.258C79.4854 83.6782 75.9296 83.3475 78.6964 69.4342C79.4179 40.6478 94.7922 48.0668 93.4088 65.4962C93.2521 67.4638 96.6214 67.4369 97.3186 70.1519Z" fill="white"/>
</mask>
<g mask="url(#mask2_4097_16239)">
<path d="M100.928 40.6478H69.1233V120.494H100.928V40.6478Z" fill="url(#paint3_linear_4097_16239)"/>
</g>
<path fill-rule="evenodd" clip-rule="evenodd" d="M87.9536 84.205C86.3895 91.0534 84.1261 97.7249 81.1986 104.115C83.6682 95.9707 85.5488 88.2559 87.397 79.9364L87.9536 84.205Z" fill="#041846"/>
<path d="M85.6135 30.5219C85.6135 30.5219 89.6097 29.0381 91.4552 32.0648C91.9172 32.8228 92.6359 32.9411 92.6224 33.968C92.6102 34.5588 92.6481 35.1496 92.7359 35.734C92.8305 36.2716 93.2547 37.0942 93.3439 37.535C93.4574 38.0887 92.6305 38.3817 92.6143 38.6102C92.4738 40.5349 92.7521 41.6477 91.8632 41.9757C89.6178 42.2902 86.062 42.2445 85.0298 40.344C83.9977 38.4436 83.0682 35.7125 83.1114 33.8927C83.1547 32.0729 84.5624 31.0487 85.6135 30.5192" fill="#F7AAAC"/>
<path d="M90.434 41.7069C90.434 41.7069 90.2719 42.7498 90.5394 43.2633C90.8069 43.7767 85.511 43.8009 85.511 43.8009C85.2287 42.0541 84.8123 40.3313 84.2653 38.6479C83.4547 36.2878 90.434 41.7176 90.434 41.7176" fill="#F7AAAC"/>
<mask id="mask3_4097_16239" style="mask-type:luminance" maskUnits="userSpaceOnUse" x="81" y="29" width="14" height="13">
<path d="M86.3865 41.2095C87.3755 40.9192 88.3104 40.6209 89.1345 39.7177C89.4263 39.3978 89.8964 36.6398 90.0585 36.5834C90.6827 36.3657 90.9799 38.5 90.9799 38.5C91.0718 38.3871 91.4014 38.2957 91.4771 37.9435C91.5095 37.785 91.2988 36.906 91.4366 36.6828C91.5365 36.5189 92.2147 35.9383 92.3606 35.7205C93.563 33.9437 94.9356 32.0244 93.3144 30.6535C93.0157 30.4282 92.6565 30.2963 92.2823 30.2745C91.7378 30.2573 91.2038 30.1215 90.7178 29.8767C86.781 28.0246 79.0669 30.8525 83.136 38.7661C83.7062 39.8763 85.4517 41.1128 86.3784 41.2095" fill="white"/>
</mask>
<g mask="url(#mask3_4097_16239)">
<path d="M94.9357 28.0247H79.0642V41.2096H94.9357V28.0247Z" fill="url(#paint4_linear_4097_16239)"/>
</g>
<path d="M90.8555 43.2042C90.8555 43.2042 90.8365 42.223 90.3907 42.1289C89.9449 42.0348 85.1678 41.7257 84.6193 41.9408L84.5598 43.1907C84.5598 43.1907 85.9648 43.61 90.8555 43.2042Z" fill="#D0D2D3"/>
<path d="M90.6636 37.1963C90.5798 36.8468 89.7206 35.4221 89.3774 36.4893C89.0343 37.5565 89.8935 38.9892 90.3718 38.8682C90.85 38.7473 90.877 38.0806 90.6636 37.1963Z" fill="#F7AAAC"/>
<path d="M114.203 67.7809C114.203 67.7809 111.828 67.3724 111.747 67.1116C111.666 66.8509 110.95 67.1896 110.812 66.3052C110.734 65.8025 110.512 63.5526 110.512 63.5526L111.961 63.7919C112.344 63.7139 112.842 63.9908 113.658 63.937C114.128 63.9075 114.836 63.5849 115.352 63.4881C115.584 63.4424 115.706 63.7193 115.587 63.9908C115.468 64.2623 114.882 64.5284 114.903 64.7166C114.936 65.023 117.23 65.4208 117.335 65.7918C116.986 68.0901 115.984 67.9422 114.209 67.7917" fill="#F7AAAC"/>
<mask id="mask4_4097_16239" style="mask-type:luminance" maskUnits="userSpaceOnUse" x="93" y="46" width="20" height="22">
<path d="M93.7682 51.279C95.3299 54.7251 95.9838 60.6066 100.034 63.3188C102.555 64.558 111.69 68.6761 112.315 66.5445C112.939 64.4129 112.085 63.4828 112.085 63.4828C112.085 63.4828 104.271 58.0502 103.304 57.7277C102.574 57.4858 100.121 48.6636 97.9401 46.6798C97.478 46.2604 93.0981 49.8006 93.7682 51.2817" fill="white"/>
</mask>
<g mask="url(#mask4_4097_16239)">
<path d="M112.936 46.2577H93.0951V68.6761H112.936V46.2577Z" fill="url(#paint5_linear_4097_16239)"/>
</g>
<mask id="mask5_4097_16239" style="mask-type:luminance" maskUnits="userSpaceOnUse" x="77" y="42" width="22" height="34">
<path d="M92.1201 42.9407H84.5085C82.4577 42.9407 79.6882 43.903 78.7587 45.5615C76.0999 50.3113 77.7049 61.0555 77.7941 72.8722C80.6285 76.0414 93.4116 75.7188 97.9672 73.141L98.0239 46.7819C97.6997 46.29 94.8518 42.9272 92.1201 42.9272" fill="white"/>
</mask>
<g mask="url(#mask5_4097_16239)">
<path d="M98.0238 42.9407H76.0999V76.0414H98.0238V42.9407Z" fill="url(#paint6_linear_4097_16239)"/>
</g>
<path d="M205.628 85.8286H105.525V98.4786H205.628V85.8286Z" fill="#5F8AFB"/>
<mask id="mask6_4097_16239" style="mask-type:luminance" maskUnits="userSpaceOnUse" x="110" y="98" width="91" height="71">
<path d="M200.878 98.3899H110.334V168.185H200.878V98.3899Z" fill="white"/>
</mask>
<g mask="url(#mask6_4097_16239)">
<path d="M200.875 98.3899H110.332V168.185H200.875V98.3899Z" fill="#1755FB"/>
</g>
<path d="M218.854 98.3899H200.878V168.185H218.854V98.3899Z" fill="#033ACD"/>
<path d="M222.142 85.8286H205.628V98.4786H222.142V85.8286Z" fill="#3DA8F1"/>
<path d="M178.978 134.41V137.195H169.281V123.467H178.802V126.252H172.469V128.918H177.911V131.488H172.469V134.407L178.978 134.41ZM167.727 126.252H163.517V137.195H160.329V126.252H156.114V123.467H167.716L167.727 126.252ZM145.533 130.351C145.531 130.871 145.609 131.389 145.765 131.886C145.912 132.366 146.145 132.815 146.454 133.211C146.761 133.599 147.149 133.916 147.592 134.138C148.074 134.378 148.607 134.498 149.145 134.488C149.699 134.5 150.248 134.374 150.74 134.119C151.18 133.886 151.565 133.559 151.866 133.163C152.17 132.758 152.398 132.303 152.539 131.818C152.687 131.326 152.761 130.814 152.761 130.3C152.761 129.779 152.683 129.26 152.528 128.762C152.381 128.284 152.143 127.838 151.828 127.448C151.518 127.068 151.13 126.759 150.691 126.539C150.2 126.313 149.665 126.197 149.124 126.2C148.583 126.204 148.05 126.326 147.562 126.558C147.125 126.789 146.741 127.109 146.435 127.496C146.126 127.891 145.895 128.341 145.754 128.821C145.606 129.318 145.531 129.833 145.533 130.351ZM149.126 137.31C148.16 137.323 147.203 137.118 146.327 136.711C145.511 136.33 144.777 135.795 144.166 135.136C143.568 134.483 143.097 133.726 142.777 132.902C142.449 132.077 142.28 131.198 142.28 130.31C142.286 128.513 142.985 126.787 144.233 125.488C144.857 124.844 145.599 124.325 146.419 123.959C147.293 123.572 148.24 123.377 149.197 123.389C150.163 123.376 151.12 123.581 151.996 123.988C152.815 124.37 153.549 124.909 154.158 125.574C154.752 126.231 155.22 126.991 155.538 127.816C155.856 128.63 156.02 129.496 156.022 130.37C156.024 131.265 155.849 132.151 155.509 132.98C154.84 134.65 153.549 135.998 151.904 136.743C151.031 137.133 150.083 137.326 149.126 137.31ZM132.49 123.467L135.733 133.211L138.94 123.467H142.307L137.078 137.195H134.395L129.11 123.467H132.49Z" fill="white"/>
<path fill-rule="evenodd" clip-rule="evenodd" d="M65.9241 145.874C65.1315 149.566 64.3407 153.255 63.5517 156.941H79.0477L81.4227 145.874H65.9241ZM68.7342 132.759C67.9416 136.451 67.1508 140.14 66.3618 143.826H81.8631C82.6485 140.138 83.4384 136.449 84.2328 132.759H68.7342ZM86.643 121.51H89.0531C87.3833 129.293 85.7153 137.074 84.0491 144.853C82.3828 152.632 80.7157 160.41 79.0477 168.185H76.6429C77.2968 165.123 77.9534 162.057 78.6126 158.989H63.1113C62.4574 162.057 61.8009 165.123 61.1416 168.185H58.7395L63.7409 144.853C65.4053 137.075 67.0715 129.294 68.7396 121.51H71.1416C70.4878 124.576 69.8312 127.642 69.1719 130.708H84.6732C85.3307 127.644 85.9873 124.578 86.643 121.51Z" fill="#93C1E7"/>
<path d="M101.599 119.612H68.7371V121.507H101.599V119.612Z" fill="#93C1E7"/>
<path fill-rule="evenodd" clip-rule="evenodd" d="M104.417 145.874C105.208 149.566 105.998 153.255 106.789 156.941H91.2905C90.5015 153.253 89.7107 149.564 88.9181 145.874H104.417ZM101.607 132.759C102.397 136.451 103.188 140.14 103.979 143.826H88.4777C87.6923 140.138 86.9025 136.449 86.1081 132.759H101.607ZM83.6979 121.51H81.2877C82.9576 129.293 84.6256 137.074 86.2918 144.853C87.958 152.632 89.6243 160.41 91.2905 168.185H93.698C93.0441 165.123 92.3875 162.057 91.7282 158.989H107.227C107.884 162.057 108.542 165.123 109.199 168.185H111.601L106.6 144.853C104.936 137.075 103.269 129.294 101.601 121.51H99.21C99.8675 124.576 100.525 127.642 101.182 130.708H85.6676C85.012 127.644 84.3554 124.578 83.6979 121.51Z" fill="#93C1E7"/>
<path d="M201.504 37.0128L176.098 71.2209L220.043 103.524L245.45 69.3155L201.504 37.0128Z" fill="url(#paint7_linear_4097_16239)"/>
<path d="M40.1254 104.607L43.8487 135.251L41.9573 164.207L42.1465 164.476L42.2924 164.667C42.4086 164.82 42.5248 164.965 42.6382 165.099C42.6923 165.161 42.7436 165.22 42.7977 165.277C43.6515 166.215 44.7566 166.441 45.6618 166.661C46.3616 166.83 46.902 166.914 47.3775 167.846C47.3927 167.875 47.4045 167.904 47.4127 167.935C47.4343 168.015 47.4371 168.099 47.4208 168.18C47.4046 168.261 47.3698 168.337 47.3191 168.403C47.2683 168.468 47.2031 168.521 47.1284 168.558C47.0537 168.594 46.9716 168.613 46.8885 168.613L38.5826 168.344C38.3895 168.337 38.2053 168.261 38.0631 168.131C37.9209 168.001 37.8301 167.825 37.8071 167.634C37.8003 167.579 37.8003 167.523 37.8071 167.467L38.361 163.86C38.3604 163.856 38.3604 163.851 38.361 163.847C38.161 156.807 36.5588 146.49 37.8719 138.264C37.8719 138.264 30.0362 122.838 30.0605 122.464C30.0848 122.09 40.1254 104.607 40.1254 104.607Z" fill="#F7AAAC"/>
<path d="M34.8701 132.163C34.5081 135.262 36.6805 137.101 36.3211 140.2C36.3211 147.958 30.8523 156.895 29.0041 164.731C28.942 165 29.4067 167.454 29.3554 167.709C28.5448 168.583 26.194 169.814 25.9427 165.79C26.9911 159.024 28.2908 148.092 30.9847 139.864L29.2824 131.66L34.8701 132.163Z" fill="#F7AAAC"/>
<mask id="mask7_4097_16239" style="mask-type:luminance" maskUnits="userSpaceOnUse" x="26" y="107" width="22" height="37">
<path d="M45.9998 115.174C47.7939 121.107 46.8563 132.496 45.9242 142.24C39.1692 143.963 29.2529 143.495 26.7751 141.409C28.4288 128.7 29.2718 116.488 31.9089 114.239C37.4777 101.293 45.1784 111.887 45.9944 115.174" fill="white"/>
</mask>
<g mask="url(#mask7_4097_16239)">
<path d="M47.7939 101.293H26.7725V143.963H47.7939V101.293Z" fill="url(#paint8_linear_4097_16239)"/>
</g>
<path fill-rule="evenodd" clip-rule="evenodd" d="M43.0358 99.1103C44.8461 103.062 44.9272 103.215 50.0961 103.981C55.5973 104.788 62.0173 97.1776 64.6463 93.2692C65.4569 92.0461 63.5277 89.4925 62.9576 90.0597C62.3388 90.6779 51.5498 98.8496 51.4633 98.8415C50.8661 98.7985 45.9161 94.2235 42.2765 93.2719C41.8415 93.0031 41.7577 97.2018 43.0331 99.1103" fill="#DC0482"/>
<path fill-rule="evenodd" clip-rule="evenodd" d="M27.7287 95.0352C26.1426 101.487 32.495 102.293 31.0548 115.279C35.8131 115.938 42.0871 116.12 46.186 115.118C45.5321 110.336 47.2452 103.908 46.1617 100.215C45.4484 97.7959 43.5002 93.7638 42.2843 93.2719C36.5453 91.659 30.0956 91.53 27.7341 95.0352" fill="#DC0482"/>
<path fill-rule="evenodd" clip-rule="evenodd" d="M38.8044 91.1671L38.8314 92.7288L39.061 92.9224C39.9554 93.8767 38.9881 95.8336 37.9802 95.7717C35.4026 95.8981 33.4274 93.7987 34.1975 92.6563L34.5352 92.2853L34.6082 90.073C34.4758 90.073 33.5085 89.5193 33.2193 89.4306C32.9302 89.3419 32.5087 88.7908 32.4817 88.2102C32.4547 87.6296 33.3571 87.8151 33.3571 87.8151C32.2628 86.3232 31.0199 85.1028 32.6303 83.7588C34.2407 82.4148 37.937 81.6299 37.937 81.6299L40.1635 80.8638C39.8798 81.6272 40.258 84.1755 40.8309 85.7668C41.6414 88.0301 41.1929 90.0327 38.8125 91.1671" fill="#F7AAAC"/>
<path fill-rule="evenodd" clip-rule="evenodd" d="M35.6483 90.3821C35.6483 90.3821 36.9074 92.5325 37.9423 92.7234C38.9772 92.9142 38.4476 92.7744 38.834 92.7234L38.8042 91.1616C38.0909 91.2745 37.3938 91.2181 35.6483 90.3767" fill="#EA8287"/>
<path d="M63.9512 82.0099L20.0061 114.313L45.4129 148.521L89.3581 116.218L63.9512 82.0099Z" fill="url(#paint9_linear_4097_16239)"/>
<path fill-rule="evenodd" clip-rule="evenodd" d="M29.1148 93.6536C23.4028 96.0083 19.2714 108.596 20.4414 112.094C21.4249 114.93 29.6525 121.988 32.1032 120.964C33.2867 120.472 34.0973 119.303 32.3194 118.155C29.72 117.01 25.3428 111.457 25.1942 110.75C24.924 108.752 28.1664 103.65 29.0445 102.073C30.3118 99.7958 32.4409 93.1267 29.1148 93.6482" fill="#DC0482"/>
<path fill-rule="evenodd" clip-rule="evenodd" d="M32.9249 118.959L33.7787 119.429L35.8809 119.464C36.1295 119.405 37.675 119.346 37.1886 119.757C36.8455 120.045 35.8863 120.443 35.8998 120.486C36.0754 121.023 38.6882 122.3 38.7072 122.349C38.9774 123.047 37.2616 122.349 36.9671 122.23C36.8914 122.203 38.0317 122.978 37.9668 123.021C37.8784 123.082 37.7756 123.12 37.6682 123.131C37.5609 123.142 37.4525 123.125 37.3535 123.082C36.959 122.926 36.3267 122.545 36.2321 122.596C36.1376 122.647 37.2508 123.386 37.1562 123.421C37.0826 123.452 37.003 123.467 36.9231 123.463C36.8432 123.46 36.765 123.439 36.6942 123.402C36.2889 123.233 35.7269 122.865 35.6134 122.865C35.4999 122.865 36.3294 123.373 36.2213 123.386C36.1132 123.4 36.0889 123.531 36.0133 123.504C33.9381 122.816 34.184 121.738 31.7874 121.013C30.4526 120.609 32.4169 119.074 32.9249 118.953" fill="#F7AAAC"/>
<mask id="mask8_4097_16239" style="mask-type:luminance" maskUnits="userSpaceOnUse" x="19" y="78" width="23" height="23">
<path d="M36.0025 85.1351C36.0025 85.1351 39.1963 85.2427 40.3879 84.2158C42.8845 82.0815 41.3633 76.9877 34.9839 78.8747C29.9042 80.3746 31.6685 85.3717 25.1405 87.6727C20.8714 89.1807 18.3099 92.2101 21.2064 98.3469C21.2064 98.3469 22.5899 95.7126 23.9463 95.5406C22.2521 98.0539 22.6628 100.019 23.1222 100.425C25.3999 95.7906 30.6661 92.1967 34.3705 92.6617C36.7321 90.9387 32.4035 85.6728 35.9917 85.1351" fill="white"/>
</mask>
<g mask="url(#mask8_4097_16239)">
<path d="M42.8816 76.9877H18.3043V100.425H42.8816V76.9877Z" fill="url(#paint10_linear_4097_16239)"/>
</g>
<path fill-rule="evenodd" clip-rule="evenodd" d="M45.3997 166.392C45.3997 166.392 48.2935 167.199 48.1611 168.075C47.8909 169.865 37.9746 168.682 37.9206 168.613C37.5693 168.177 37.5288 166.156 38.0016 165.554C38.3556 165.105 42.2383 167.502 45.3997 166.387" fill="#031542"/>
<path fill-rule="evenodd" clip-rule="evenodd" d="M30.2661 168.962C30.204 170.113 25.9429 169.742 25.3053 169.395C24.3704 168.884 25.4647 166.368 25.9565 165.71C25.9565 165.71 27.0373 167.416 28.3315 167.07C29.6258 166.723 29.1691 166.347 29.388 166.779C29.7987 167.586 30.3229 167.903 30.2661 168.962Z" fill="#000446"/>
<path fill-rule="evenodd" clip-rule="evenodd" d="M236.201 118.669C232.532 139.154 238.808 157.578 241.1 164.486C240.076 165.024 235.62 166.175 235.015 166.742C234.58 167.148 233.853 168.787 239.832 168.623C244.083 168.516 246.133 168.871 246.587 168.199C246.979 167.621 246.741 163.992 246.766 163.992C244.896 145.603 244.709 144.458 245.725 132.676C246.571 136.361 249.889 151.027 258.93 162.895C259.108 163.126 259.573 164.865 259.279 165.626C259.165 165.919 258.387 166.261 258.103 166.621C257.674 167.158 258.03 167.562 258.411 167.82C259.603 168.626 262.307 168.029 262.734 168.027C264.896 167.758 263.64 164.263 264.229 162.637C264.472 161.954 262.826 160.847 262.956 160.656C254.342 132.163 257.963 131.821 255.15 117.943C254.418 89.229 238.779 96.6292 240.186 114.01C240.346 115.975 236.92 115.948 236.212 118.655" fill="#104E8C"/>
<path fill-rule="evenodd" clip-rule="evenodd" d="M245.731 133.353C246.339 136.041 248.603 144.888 253.086 153.514C250.573 145.232 248.174 137.472 246.293 129.01L245.731 133.353Z" fill="#041846"/>
<path d="M248.114 78.7589C248.114 78.7589 244.047 77.2482 242.17 80.3288C241.699 81.0975 240.97 81.2185 240.983 82.2642C240.996 82.8649 240.957 83.4656 240.867 84.0598C240.77 84.6162 240.34 85.4414 240.248 85.893C240.132 86.4521 240.973 86.7532 240.991 87.0005C241.132 88.9547 240.848 90.0864 241.753 90.4197C244.039 90.7396 247.652 90.6885 248.703 88.7612C249.754 86.8338 250.7 84.0517 250.654 82.1916C250.608 80.3314 249.179 79.2966 248.111 78.7589" fill="#F7AAAC"/>
<path d="M243.21 90.1375C243.21 90.1375 243.375 91.1966 243.102 91.7181C242.829 92.2396 248.217 92.2557 248.217 92.2557C248.504 90.4797 248.928 88.7282 249.484 87.0167C250.313 84.6162 243.21 90.1375 243.21 90.1375Z" fill="#F7AAAC"/>
<mask id="mask9_4097_16239" style="mask-type:luminance" maskUnits="userSpaceOnUse" x="240" y="77" width="12" height="13">
<path d="M247.328 89.6268C246.323 89.3338 245.372 89.0301 244.534 88.1107C244.237 87.7855 243.759 84.9818 243.594 84.9254C242.956 84.7157 242.656 86.8662 242.656 86.8662C242.562 86.7533 242.227 86.6592 242.151 86.299C242.118 86.1404 242.332 85.2453 242.191 85.0195C242.091 84.8528 241.4 84.2614 241.251 84.0383C239.816 81.9201 241.075 78.9633 242.921 78.0977C246.925 76.2161 254.358 79.7106 250.216 87.7479C249.638 88.8742 248.276 89.5247 247.325 89.6295" fill="white"/>
</mask>
<g mask="url(#mask9_4097_16239)">
<path d="M254.358 76.2188H239.816V89.6268H254.358V76.2188Z" fill="url(#paint11_linear_4097_16239)"/>
</g>
<path d="M242.783 91.6563C242.783 91.6563 242.799 90.659 243.256 90.5623C243.712 90.4655 248.565 90.1537 249.125 90.3714L249.187 91.6402C249.187 91.6402 247.757 92.0703 242.783 91.6563Z" fill="#D0D2D3"/>
<path d="M242.978 85.5463C243.061 85.1915 243.937 83.7426 244.285 84.8259C244.634 85.9092 243.761 87.3715 243.275 87.2452C242.788 87.1188 242.761 86.4388 242.978 85.5463Z" fill="#F7AAAC"/>
<path d="M214.804 91.0059C214.804 91.0059 216.155 93.0434 216.425 93.0111C216.695 92.9789 216.674 93.7853 217.562 93.5488C218.065 93.4197 220.264 92.7101 220.264 92.7101L219.454 91.4655C219.373 91.0757 218.913 90.7263 218.643 89.9494C218.481 89.5005 218.495 88.713 218.373 88.1968C218.322 87.9603 218.011 87.9603 217.806 88.1834C217.6 88.4065 217.6 89.0463 217.403 89.1081C217.1 89.2022 215.798 87.2265 215.417 87.291C213.404 88.5463 213.942 89.4253 214.812 91.0032" fill="#F7AAAC"/>
<mask id="mask10_4097_16239" style="mask-type:luminance" maskUnits="userSpaceOnUse" x="216" y="91" width="26" height="13">
<path d="M239.833 99.0645C237.463 101.723 229.633 105.371 225.45 102.715C223.264 100.879 215.061 93.9249 216.803 92.4788C218.546 91.0326 219.776 91.4492 219.776 91.4492C219.776 91.4492 228.673 96.6452 229.368 97.414C229.889 97.992 238.268 90.7907 241.011 92.0084C241.592 92.2772 241.497 99.086 239.835 99.0645" fill="white"/>
</mask>
<g mask="url(#mask10_4097_16239)">
<path d="M241.589 90.788H215.058V105.368H241.589V90.788Z" fill="url(#paint12_linear_4097_16239)"/>
</g>
<mask id="mask11_4097_16239" style="mask-type:luminance" maskUnits="userSpaceOnUse" x="235" y="91" width="22" height="34">
<path d="M241.494 91.3875H249.238C251.321 91.3875 253.969 91.9654 255.082 94.054C257.685 98.9409 256.163 109.811 256.066 121.827C253.183 125.053 240.181 124.722 235.55 122.115L235.49 95.3066C235.82 94.8067 238.733 91.3875 241.494 91.3875Z" fill="white"/>
</mask>
<g mask="url(#mask11_4097_16239)">
<path d="M257.685 91.3875H235.49V125.05H257.685V91.3875Z" fill="url(#paint13_linear_4097_16239)"/>
</g>
<path d="M133.822 46.3545C132.261 44.8026 130.208 43.837 128.011 43.6222C125.815 43.4074 123.612 43.9568 121.777 45.1766C119.942 46.3965 118.589 48.2115 117.948 50.3124C117.308 52.4134 117.419 54.6703 118.263 56.6988C119.107 58.7274 120.632 60.4021 122.578 61.4376C124.524 62.4731 126.771 62.8055 128.935 62.3781C131.1 61.9508 133.049 60.79 134.45 59.0936C135.851 57.3973 136.617 55.2702 136.619 53.0747C136.621 51.8264 136.375 50.5901 135.895 49.4368C135.415 48.2835 134.711 47.236 133.822 46.3545ZM127.067 42.7687C129.462 42.7694 131.782 43.5961 133.633 45.1079C135.484 46.6198 136.75 48.7232 137.217 51.0599C137.684 53.3966 137.322 55.822 136.192 57.9228C135.063 60.0237 133.237 61.67 131.024 62.5813C128.811 63.4926 126.35 63.6126 124.058 62.9207C121.767 62.2289 119.787 60.768 118.457 58.787C117.127 56.806 116.528 54.4275 116.763 52.0566C116.998 49.6857 118.052 47.4692 119.745 45.7847C120.707 44.8286 121.85 44.0711 123.108 43.5559C124.365 43.0406 125.713 42.7776 127.073 42.7821L127.067 42.7687Z" fill="white"/>
<path fill-rule="evenodd" clip-rule="evenodd" d="M125.025 54.7332L130.756 49.4431C131.04 49.2088 131.403 49.0916 131.771 49.1156C132.139 49.1396 132.484 49.303 132.735 49.5721C132.986 49.8412 133.123 50.1956 133.12 50.5626C133.116 50.9296 132.971 51.2812 132.715 51.5451L125.884 57.8513L125.862 57.8674C125.575 58.1169 125.199 58.2429 124.819 58.2177C124.438 58.1925 124.082 58.0182 123.831 57.733L121.01 54.5289C120.801 54.239 120.708 53.8821 120.749 53.5278C120.79 53.1734 120.962 52.847 121.232 52.6121C121.502 52.3772 121.85 52.2506 122.208 52.2571C122.567 52.2636 122.91 52.4027 123.171 52.6472L125.025 54.7332Z" fill="white"/>
<path d="M217.465 63.1521C215.881 61.5756 213.796 60.5945 211.565 60.3759C209.335 60.1574 207.098 60.7149 205.234 61.9535C203.371 63.1922 201.997 65.0352 201.346 67.1687C200.696 69.3022 200.809 71.5941 201.666 73.6539C202.524 75.7137 204.073 77.4139 206.049 78.4649C208.026 79.5159 210.307 79.8526 212.505 79.4177C214.703 78.9828 216.682 77.8031 218.104 76.0797C219.525 74.3563 220.302 72.1958 220.302 69.9663C220.304 68.7005 220.054 67.4469 219.568 66.2775C219.081 65.108 218.366 64.0459 217.465 63.1521ZM210.616 59.5152C213.047 59.5152 215.403 60.3539 217.282 61.8883C219.161 63.4226 220.447 65.5578 220.922 67.9299C221.396 70.3019 221.029 72.7642 219.883 74.8972C218.737 77.0301 216.883 78.7017 214.636 79.6272C212.39 80.5527 209.891 80.6747 207.565 79.9726C205.239 79.2705 203.229 77.7876 201.878 75.7766C200.528 73.7656 199.92 71.351 200.158 68.9441C200.396 66.5372 201.466 64.287 203.185 62.5768C204.16 61.6043 205.318 60.8332 206.593 60.3077C207.868 59.7823 209.236 59.5129 210.616 59.5152Z" fill="white"/>
<path fill-rule="evenodd" clip-rule="evenodd" d="M208.535 71.6571L214.353 66.281C214.637 66.0179 215.015 65.8781 215.403 65.8922C215.791 65.9063 216.158 66.0733 216.422 66.3563C216.687 66.6393 216.827 67.0153 216.813 67.4014C216.799 67.7875 216.631 68.1523 216.347 68.4153L209.413 74.8156L209.392 74.8344C209.099 75.0875 208.718 75.2151 208.331 75.1895C207.944 75.1638 207.583 74.9868 207.327 74.6973L204.461 71.4448C204.334 71.3009 204.237 71.1337 204.176 70.9526C204.114 70.7716 204.089 70.5802 204.102 70.3895C204.115 70.1988 204.165 70.0125 204.25 69.8412C204.335 69.6699 204.454 69.5169 204.598 69.3911C204.743 69.2652 204.911 69.169 205.093 69.1078C205.275 69.0465 205.467 69.0216 205.659 69.0343C205.851 69.047 206.038 69.0972 206.21 69.1819C206.382 69.2667 206.536 69.3843 206.663 69.5282L208.535 71.6571Z" fill="white"/>
<path d="M61.8549 107.347C60.2248 105.725 58.0799 104.715 55.7856 104.49C53.4913 104.265 51.1895 104.839 49.2725 106.113C47.3555 107.387 45.9419 109.283 45.2725 111.477C44.6031 113.672 44.7193 116.03 45.6014 118.149C46.4834 120.268 48.0767 122.017 50.1099 123.098C52.143 124.18 54.4901 124.526 56.7512 124.079C59.0124 123.632 61.0477 122.419 62.5105 120.646C63.9732 118.873 64.7728 116.65 64.773 114.357C64.7748 113.055 64.5179 111.765 64.0171 110.562C63.5163 109.359 62.7815 108.266 61.8549 107.347ZM54.8081 103.605C57.3086 103.604 59.7321 104.465 61.6657 106.042C63.5993 107.619 64.9234 109.815 65.4124 112.254C65.9014 114.694 65.525 117.227 64.3473 119.421C63.1697 121.615 61.2636 123.336 58.954 124.289C56.6443 125.242 54.0739 125.369 51.6808 124.648C49.2876 123.927 47.2198 122.403 45.8296 120.335C44.4394 118.267 43.8128 115.784 44.0567 113.308C44.3005 110.833 45.3997 108.518 47.1669 106.758C48.1692 105.758 49.3602 104.964 50.6715 104.423C51.9827 103.882 53.3885 103.604 54.8081 103.605Z" fill="white"/>
<path fill-rule="evenodd" clip-rule="evenodd" d="M52.671 116.093L58.6532 110.569C58.9488 110.317 59.3313 110.188 59.7204 110.21C60.1095 110.231 60.475 110.402 60.7402 110.686C61.0054 110.97 61.1498 111.346 61.1431 111.733C61.1363 112.121 60.979 112.491 60.704 112.766L53.5734 119.349L53.5518 119.367C53.2506 119.627 52.8587 119.758 52.4611 119.732C52.0634 119.706 51.6922 119.524 51.4281 119.228L48.4802 115.881C48.2172 115.582 48.0842 115.192 48.1106 114.796C48.1369 114.399 48.3204 114.03 48.6207 113.768C48.9209 113.507 49.3134 113.374 49.7117 113.401C50.1099 113.427 50.4815 113.609 50.7444 113.908L52.671 116.093Z" fill="white"/>
</g>
<defs>
<linearGradient id="paint0_linear_4097_16239" x1="236.906" y1="96.1858" x2="252.04" y2="91.0661" gradientUnits="userSpaceOnUse">
<stop stop-color="#000446"/>
<stop offset="1" stop-color="#03096B"/>
</linearGradient>
<linearGradient id="paint1_linear_4097_16239" x1="121.418" y1="53.8757" x2="86.5877" y2="43.1164" gradientUnits="userSpaceOnUse">
<stop stop-color="#002990"/>
<stop offset="0.22" stop-color="#0A4BAE"/>
<stop offset="0.58" stop-color="#1879D8"/>
<stop offset="0.85" stop-color="#2196F1"/>
<stop offset="1" stop-color="#24A1FB"/>
</linearGradient>
<linearGradient id="paint2_linear_4097_16239" x1="105.341" y1="63.6502" x2="150.56" y2="50.9652" gradientUnits="userSpaceOnUse">
<stop stop-color="#DBE5FE"/>
<stop offset="0.380208" stop-color="#C4D8FD" stop-opacity="0.900833"/>
<stop offset="0.640625" stop-color="#DAE8FF" stop-opacity="0.871071"/>
<stop offset="1" stop-color="#C1D9FD" stop-opacity="0.83"/>
</linearGradient>
<linearGradient id="paint3_linear_4097_16239" x1="84.4841" y1="110.255" x2="85.9202" y2="30.8603" gradientUnits="userSpaceOnUse">
<stop stop-color="#031542"/>
<stop offset="0.11" stop-color="#051C4C"/>
<stop offset="0.29" stop-color="#093066"/>
<stop offset="0.52" stop-color="#115191"/>
<stop offset="0.8" stop-color="#1B7DCB"/>
<stop offset="1" stop-color="#24A1FB"/>
</linearGradient>
<linearGradient id="paint4_linear_4097_16239" x1="87.0756" y1="40.2365" x2="86.7814" y2="18.1003" gradientUnits="userSpaceOnUse">
<stop stop-color="#031542"/>
<stop offset="0.11" stop-color="#051C4C"/>
<stop offset="0.29" stop-color="#093066"/>
<stop offset="0.52" stop-color="#115191"/>
<stop offset="0.8" stop-color="#1B7DCB"/>
<stop offset="1" stop-color="#24A1FB"/>
</linearGradient>
<linearGradient id="paint5_linear_4097_16239" x1="103.681" y1="77.4445" x2="102.775" y2="49.8701" gradientUnits="userSpaceOnUse">
<stop stop-color="#002990"/>
<stop offset="0.22" stop-color="#0A4BAE"/>
<stop offset="0.58" stop-color="#1879D8"/>
<stop offset="0.85" stop-color="#2196F1"/>
<stop offset="1" stop-color="#24A1FB"/>
</linearGradient>
<linearGradient id="paint6_linear_4097_16239" x1="88.5695" y1="91.3364" x2="86.5398" y2="48.047" gradientUnits="userSpaceOnUse">
<stop stop-color="#002990"/>
<stop offset="0.22" stop-color="#0A4BAE"/>
<stop offset="0.58" stop-color="#1879D8"/>
<stop offset="0.85" stop-color="#2196F1"/>
<stop offset="1" stop-color="#24A1FB"/>
</linearGradient>
<linearGradient id="paint7_linear_4097_16239" x1="184.124" y1="63.4002" x2="236.031" y2="63.9808" gradientUnits="userSpaceOnUse">
<stop stop-color="#DBE5FE"/>
<stop offset="0.380208" stop-color="#C4D8FD" stop-opacity="0.900833"/>
<stop offset="0.640625" stop-color="#DAE8FF" stop-opacity="0.871071"/>
<stop offset="1" stop-color="#C1D9FD" stop-opacity="0.83"/>
</linearGradient>
<linearGradient id="paint8_linear_4097_16239" x1="36.1376" y1="140.329" x2="38.5123" y2="103.248" gradientUnits="userSpaceOnUse">
<stop stop-color="#031542"/>
<stop offset="0.11" stop-color="#051C4C"/>
<stop offset="0.29" stop-color="#093066"/>
<stop offset="0.52" stop-color="#115191"/>
<stop offset="0.8" stop-color="#1B7DCB"/>
<stop offset="1" stop-color="#24A1FB"/>
</linearGradient>
<linearGradient id="paint9_linear_4097_16239" x1="32.2371" y1="107.048" x2="71.9364" y2="129.808" gradientUnits="userSpaceOnUse">
<stop stop-color="#DBE5FE"/>
<stop offset="0.380208" stop-color="#C4D8FD" stop-opacity="0.900833"/>
<stop offset="0.640625" stop-color="#DAE8FF" stop-opacity="0.871071"/>
<stop offset="1" stop-color="#C1D9FD" stop-opacity="0.83"/>
</linearGradient>
<linearGradient id="paint10_linear_4097_16239" x1="31.9548" y1="97.9545" x2="27.8276" y2="69.6539" gradientUnits="userSpaceOnUse">
<stop stop-color="#031542"/>
<stop offset="0.11" stop-color="#051C4C"/>
<stop offset="0.29" stop-color="#093066"/>
<stop offset="0.52" stop-color="#115191"/>
<stop offset="0.8" stop-color="#1B7DCB"/>
<stop offset="1" stop-color="#24A1FB"/>
</linearGradient>
<linearGradient id="paint11_linear_4097_16239" x1="246.658" y1="88.686" x2="247.875" y2="72.1293" gradientUnits="userSpaceOnUse">
<stop stop-color="#031542"/>
<stop offset="0.11" stop-color="#051C4C"/>
<stop offset="0.29" stop-color="#093066"/>
<stop offset="0.52" stop-color="#115191"/>
<stop offset="0.8" stop-color="#1B7DCB"/>
<stop offset="1" stop-color="#24A1FB"/>
</linearGradient>
<linearGradient id="paint12_linear_4097_16239" x1="227.165" y1="98.5806" x2="240.151" y2="92.9027" gradientUnits="userSpaceOnUse">
<stop stop-color="#000446"/>
<stop offset="1" stop-color="#03096B"/>
</linearGradient>
<linearGradient id="paint13_linear_4097_16239" x1="246.587" y1="113.295" x2="246.587" y2="93.0756" gradientUnits="userSpaceOnUse">
<stop stop-color="#000446"/>
<stop offset="1" stop-color="#03096B"/>
</linearGradient>
<clipPath id="clip0_4097_16239">
<rect width="280.321" height="169.708" fill="white" transform="translate(0.635986 0.03125)"/>
</clipPath>
</defs>
</svg>
