<svg width="36" height="33" viewBox="0 0 36 33" fill="none" xmlns="http://www.w3.org/2000/svg">
<path d="M5.14734 4.49853H30.8616C31.162 4.49839 31.4621 4.51744 31.76 4.55558C31.659 3.84665 31.4155 3.16551 31.0442 2.55323C30.6728 1.94096 30.1813 1.41022 29.5993 0.993032C29.0173 0.57584 28.3568 0.280832 27.6577 0.125794C26.9586 -0.0292439 26.2353 -0.0411005 25.5315 0.090939L4.38394 3.70139H4.35984C3.0324 3.95523 1.85194 4.70627 1.05957 5.80112C2.25335 4.952 3.68238 4.49664 5.14734 4.49853Z" fill="#0045FF"/>
<path d="M30.8571 6.42627H5.14286C3.77934 6.42776 2.4721 6.97007 1.50795 7.93422C0.543802 8.89837 0.0014889 10.2056 0 11.5691V26.9977C0.0014889 28.3612 0.543802 29.6685 1.50795 30.6326C2.4721 31.5968 3.77934 32.1391 5.14286 32.1406H30.8571C32.2207 32.1391 33.5279 31.5968 34.492 30.6326C35.4562 29.6685 35.9985 28.3612 36 26.9977V11.5691C35.9985 10.2056 35.4562 8.89837 34.492 7.93422C33.5279 6.97007 32.2207 6.42776 30.8571 6.42627ZM27.0402 21.8548C26.5316 21.8548 26.0344 21.704 25.6116 21.4215C25.1887 21.1389 24.8591 20.7373 24.6645 20.2675C24.4699 19.7976 24.4189 19.2806 24.5182 18.7818C24.6174 18.2829 24.8623 17.8248 25.2219 17.4651C25.5815 17.1055 26.0397 16.8606 26.5385 16.7614C27.0373 16.6622 27.5544 16.7131 28.0242 16.9077C28.4941 17.1023 28.8957 17.4319 29.1782 17.8548C29.4608 18.2777 29.6116 18.7748 29.6116 19.2834C29.6116 19.9654 29.3407 20.6195 28.8585 21.1017C28.3762 21.5839 27.7222 21.8548 27.0402 21.8548Z" fill="#0045FF"/>
<path d="M0.0439453 16.9938V8.99826C0.0439453 7.25692 1.00823 4.33754 4.35511 3.70513C7.19573 3.17236 10.0082 3.17236 10.0082 3.17236C10.0082 3.17236 11.8564 4.45808 10.3297 4.45808C8.80287 4.45808 8.84305 6.42683 10.3297 6.42683C11.8163 6.42683 10.3297 8.31522 10.3297 8.31522L4.34305 15.1054L0.0439453 16.9938Z" fill="#0045FF"/>
</svg>
