<svg width="29" height="24" viewBox="0 0 29 24" fill="none" xmlns="http://www.w3.org/2000/svg">
<path d="M22.8606 14.7127H14.2834L19.6482 7.7336C20.0452 7.21597 19.6769 6.4671 19.0242 6.4671H8.54215L6.25671 9.44003L13.9847 9.43597C14.6072 9.43597 14.3142 9.93928 14.1157 10.1971L9.87828 15.7092C9.26442 16.5072 9.83323 17.6632 10.8399 17.6632H20.6161L22.8606 14.7148V14.7127Z" fill="#EA9C2F"/>
<path d="M22.5538 3.48182C23.5604 3.48182 24.4198 4.02198 24.8556 4.92839C25.2914 5.83481 25.0541 6.84349 24.426 7.63127L21.007 12.0631H24.8781L26.8649 9.47684C28.1989 7.80719 28.4526 5.57086 27.5237 3.6455C26.5989 1.72015 24.694 0.523193 22.5558 0.523193H13.1766L10.9034 3.48182H22.5579H22.5538Z" fill="#EA9C2F"/>
<path d="M6.44302 20.8756C5.43635 20.8756 4.57701 20.3353 4.14119 19.429C3.70538 18.5226 3.94272 17.5138 4.57086 16.7261L8.16789 12.0651H4.29669L2.13399 14.8826C0.799952 16.5522 0.546239 18.7886 1.47516 20.7139C2.39998 22.6392 4.30487 23.8362 6.44302 23.8362H15.8181L18.0913 20.8776H6.44302V20.8756Z" fill="#EA9C2F"/>
</svg>
